G04 #@! TF.GenerationSoftware,KiCad,Pcbnew,5.1.6-c6e7f7d~87~ubuntu20.04.1*
G04 #@! TF.CreationDate,2020-07-20T09:25:59+02:00*
G04 #@! TF.ProjectId,x-LedChaser,782d4c65-6443-4686-9173-65722e6b6963,1.0*
G04 #@! TF.SameCoordinates,Original*
G04 #@! TF.FileFunction,Soldermask,Bot*
G04 #@! TF.FilePolarity,Negative*
%FSLAX46Y46*%
G04 Gerber Fmt 4.6, Leading zero omitted, Abs format (unit mm)*
G04 Created by KiCad (PCBNEW 5.1.6-c6e7f7d~87~ubuntu20.04.1) date 2020-07-20 09:25:59*
%MOMM*%
%LPD*%
G01*
G04 APERTURE LIST*
%ADD10C,0.100000*%
G04 APERTURE END LIST*
D10*
G36*
X232633561Y-123085760D02*
G01*
X233124930Y-123289291D01*
X233124932Y-123289292D01*
X233210250Y-123346300D01*
X233567150Y-123584773D01*
X233943227Y-123960850D01*
X233997201Y-124041628D01*
X234110180Y-124210712D01*
X234238709Y-124403070D01*
X234442240Y-124894439D01*
X234546000Y-125416073D01*
X234546000Y-125947927D01*
X234442240Y-126469561D01*
X234253832Y-126924420D01*
X234238708Y-126960932D01*
X234090968Y-127182040D01*
X233943227Y-127403150D01*
X233567150Y-127779227D01*
X233500627Y-127823676D01*
X233124932Y-128074708D01*
X233124931Y-128074709D01*
X233124930Y-128074709D01*
X232633561Y-128278240D01*
X232111927Y-128382000D01*
X231580073Y-128382000D01*
X231058439Y-128278240D01*
X230567070Y-128074709D01*
X230567069Y-128074709D01*
X230567068Y-128074708D01*
X230191373Y-127823676D01*
X230124850Y-127779227D01*
X229748773Y-127403150D01*
X229601032Y-127182040D01*
X229453292Y-126960932D01*
X229438168Y-126924420D01*
X229249760Y-126469561D01*
X229146000Y-125947927D01*
X229146000Y-125416073D01*
X229249760Y-124894439D01*
X229453291Y-124403070D01*
X229581821Y-124210712D01*
X229694799Y-124041628D01*
X229748773Y-123960850D01*
X230124850Y-123584773D01*
X230481750Y-123346300D01*
X230567068Y-123289292D01*
X230567070Y-123289291D01*
X231058439Y-123085760D01*
X231580073Y-122982000D01*
X232111927Y-122982000D01*
X232633561Y-123085760D01*
G37*
G36*
X67208561Y-123085760D02*
G01*
X67699930Y-123289291D01*
X67699932Y-123289292D01*
X67785250Y-123346300D01*
X68142150Y-123584773D01*
X68518227Y-123960850D01*
X68572201Y-124041628D01*
X68685180Y-124210712D01*
X68813709Y-124403070D01*
X69017240Y-124894439D01*
X69121000Y-125416073D01*
X69121000Y-125947927D01*
X69017240Y-126469561D01*
X68828832Y-126924420D01*
X68813708Y-126960932D01*
X68665968Y-127182040D01*
X68518227Y-127403150D01*
X68142150Y-127779227D01*
X68075627Y-127823676D01*
X67699932Y-128074708D01*
X67699931Y-128074709D01*
X67699930Y-128074709D01*
X67208561Y-128278240D01*
X66686927Y-128382000D01*
X66155073Y-128382000D01*
X65633439Y-128278240D01*
X65142070Y-128074709D01*
X65142069Y-128074709D01*
X65142068Y-128074708D01*
X64766373Y-127823676D01*
X64699850Y-127779227D01*
X64323773Y-127403150D01*
X64176032Y-127182040D01*
X64028292Y-126960932D01*
X64013168Y-126924420D01*
X63824760Y-126469561D01*
X63721000Y-125947927D01*
X63721000Y-125416073D01*
X63824760Y-124894439D01*
X64028291Y-124403070D01*
X64156821Y-124210712D01*
X64269799Y-124041628D01*
X64323773Y-123960850D01*
X64699850Y-123584773D01*
X65056750Y-123346300D01*
X65142068Y-123289292D01*
X65142070Y-123289291D01*
X65633439Y-123085760D01*
X66155073Y-122982000D01*
X66686927Y-122982000D01*
X67208561Y-123085760D01*
G37*
G36*
X79386000Y-126082000D02*
G01*
X77586000Y-126082000D01*
X77586000Y-124282000D01*
X79386000Y-124282000D01*
X79386000Y-126082000D01*
G37*
G36*
X140637581Y-124299293D02*
G01*
X140724520Y-124316586D01*
X140888310Y-124384430D01*
X140888312Y-124384431D01*
X140916204Y-124403068D01*
X141035717Y-124482924D01*
X141161076Y-124608283D01*
X141259570Y-124755690D01*
X141327414Y-124919480D01*
X141327414Y-124919482D01*
X141362000Y-125093356D01*
X141362000Y-125270644D01*
X141344707Y-125357581D01*
X141327414Y-125444520D01*
X141259570Y-125608310D01*
X141161076Y-125755717D01*
X141035717Y-125881076D01*
X140962013Y-125930323D01*
X140888312Y-125979569D01*
X140888311Y-125979570D01*
X140888310Y-125979570D01*
X140724520Y-126047414D01*
X140637581Y-126064707D01*
X140550644Y-126082000D01*
X140373356Y-126082000D01*
X140286419Y-126064707D01*
X140199480Y-126047414D01*
X140035690Y-125979570D01*
X140035689Y-125979570D01*
X140035688Y-125979569D01*
X139961987Y-125930323D01*
X139888283Y-125881076D01*
X139762924Y-125755717D01*
X139664430Y-125608310D01*
X139596586Y-125444520D01*
X139579293Y-125357581D01*
X139562000Y-125270644D01*
X139562000Y-125093356D01*
X139596586Y-124919482D01*
X139596586Y-124919480D01*
X139664430Y-124755690D01*
X139762924Y-124608283D01*
X139888283Y-124482924D01*
X140007796Y-124403068D01*
X140035688Y-124384431D01*
X140035690Y-124384430D01*
X140199480Y-124316586D01*
X140286419Y-124299293D01*
X140373356Y-124282000D01*
X140550644Y-124282000D01*
X140637581Y-124299293D01*
G37*
G36*
X81201581Y-124299293D02*
G01*
X81288520Y-124316586D01*
X81452310Y-124384430D01*
X81452312Y-124384431D01*
X81480204Y-124403068D01*
X81599717Y-124482924D01*
X81725076Y-124608283D01*
X81823570Y-124755690D01*
X81891414Y-124919480D01*
X81891414Y-124919482D01*
X81926000Y-125093356D01*
X81926000Y-125270644D01*
X81908707Y-125357581D01*
X81891414Y-125444520D01*
X81823570Y-125608310D01*
X81725076Y-125755717D01*
X81599717Y-125881076D01*
X81526013Y-125930323D01*
X81452312Y-125979569D01*
X81452311Y-125979570D01*
X81452310Y-125979570D01*
X81288520Y-126047414D01*
X81201581Y-126064707D01*
X81114644Y-126082000D01*
X80937356Y-126082000D01*
X80850419Y-126064707D01*
X80763480Y-126047414D01*
X80599690Y-125979570D01*
X80599689Y-125979570D01*
X80599688Y-125979569D01*
X80525987Y-125930323D01*
X80452283Y-125881076D01*
X80326924Y-125755717D01*
X80228430Y-125608310D01*
X80160586Y-125444520D01*
X80143293Y-125357581D01*
X80126000Y-125270644D01*
X80126000Y-125093356D01*
X80160586Y-124919482D01*
X80160586Y-124919480D01*
X80228430Y-124755690D01*
X80326924Y-124608283D01*
X80452283Y-124482924D01*
X80571796Y-124403068D01*
X80599688Y-124384431D01*
X80599690Y-124384430D01*
X80763480Y-124316586D01*
X80850419Y-124299293D01*
X80937356Y-124282000D01*
X81114644Y-124282000D01*
X81201581Y-124299293D01*
G37*
G36*
X87805581Y-124299293D02*
G01*
X87892520Y-124316586D01*
X88056310Y-124384430D01*
X88056312Y-124384431D01*
X88084204Y-124403068D01*
X88203717Y-124482924D01*
X88329076Y-124608283D01*
X88427570Y-124755690D01*
X88495414Y-124919480D01*
X88495414Y-124919482D01*
X88530000Y-125093356D01*
X88530000Y-125270644D01*
X88512707Y-125357581D01*
X88495414Y-125444520D01*
X88427570Y-125608310D01*
X88329076Y-125755717D01*
X88203717Y-125881076D01*
X88130013Y-125930323D01*
X88056312Y-125979569D01*
X88056311Y-125979570D01*
X88056310Y-125979570D01*
X87892520Y-126047414D01*
X87805581Y-126064707D01*
X87718644Y-126082000D01*
X87541356Y-126082000D01*
X87454419Y-126064707D01*
X87367480Y-126047414D01*
X87203690Y-125979570D01*
X87203689Y-125979570D01*
X87203688Y-125979569D01*
X87129987Y-125930323D01*
X87056283Y-125881076D01*
X86930924Y-125755717D01*
X86832430Y-125608310D01*
X86764586Y-125444520D01*
X86747293Y-125357581D01*
X86730000Y-125270644D01*
X86730000Y-125093356D01*
X86764586Y-124919482D01*
X86764586Y-124919480D01*
X86832430Y-124755690D01*
X86930924Y-124608283D01*
X87056283Y-124482924D01*
X87175796Y-124403068D01*
X87203688Y-124384431D01*
X87203690Y-124384430D01*
X87367480Y-124316586D01*
X87454419Y-124299293D01*
X87541356Y-124282000D01*
X87718644Y-124282000D01*
X87805581Y-124299293D01*
G37*
G36*
X85990000Y-126082000D02*
G01*
X84190000Y-126082000D01*
X84190000Y-124282000D01*
X85990000Y-124282000D01*
X85990000Y-126082000D01*
G37*
G36*
X92594000Y-126082000D02*
G01*
X90794000Y-126082000D01*
X90794000Y-124282000D01*
X92594000Y-124282000D01*
X92594000Y-126082000D01*
G37*
G36*
X94409581Y-124299293D02*
G01*
X94496520Y-124316586D01*
X94660310Y-124384430D01*
X94660312Y-124384431D01*
X94688204Y-124403068D01*
X94807717Y-124482924D01*
X94933076Y-124608283D01*
X95031570Y-124755690D01*
X95099414Y-124919480D01*
X95099414Y-124919482D01*
X95134000Y-125093356D01*
X95134000Y-125270644D01*
X95116707Y-125357581D01*
X95099414Y-125444520D01*
X95031570Y-125608310D01*
X94933076Y-125755717D01*
X94807717Y-125881076D01*
X94734013Y-125930323D01*
X94660312Y-125979569D01*
X94660311Y-125979570D01*
X94660310Y-125979570D01*
X94496520Y-126047414D01*
X94409581Y-126064707D01*
X94322644Y-126082000D01*
X94145356Y-126082000D01*
X94058419Y-126064707D01*
X93971480Y-126047414D01*
X93807690Y-125979570D01*
X93807689Y-125979570D01*
X93807688Y-125979569D01*
X93733987Y-125930323D01*
X93660283Y-125881076D01*
X93534924Y-125755717D01*
X93436430Y-125608310D01*
X93368586Y-125444520D01*
X93351293Y-125357581D01*
X93334000Y-125270644D01*
X93334000Y-125093356D01*
X93368586Y-124919482D01*
X93368586Y-124919480D01*
X93436430Y-124755690D01*
X93534924Y-124608283D01*
X93660283Y-124482924D01*
X93779796Y-124403068D01*
X93807688Y-124384431D01*
X93807690Y-124384430D01*
X93971480Y-124316586D01*
X94058419Y-124299293D01*
X94145356Y-124282000D01*
X94322644Y-124282000D01*
X94409581Y-124299293D01*
G37*
G36*
X101013581Y-124299293D02*
G01*
X101100520Y-124316586D01*
X101264310Y-124384430D01*
X101264312Y-124384431D01*
X101292204Y-124403068D01*
X101411717Y-124482924D01*
X101537076Y-124608283D01*
X101635570Y-124755690D01*
X101703414Y-124919480D01*
X101703414Y-124919482D01*
X101738000Y-125093356D01*
X101738000Y-125270644D01*
X101720707Y-125357581D01*
X101703414Y-125444520D01*
X101635570Y-125608310D01*
X101537076Y-125755717D01*
X101411717Y-125881076D01*
X101338013Y-125930323D01*
X101264312Y-125979569D01*
X101264311Y-125979570D01*
X101264310Y-125979570D01*
X101100520Y-126047414D01*
X101013581Y-126064707D01*
X100926644Y-126082000D01*
X100749356Y-126082000D01*
X100662419Y-126064707D01*
X100575480Y-126047414D01*
X100411690Y-125979570D01*
X100411689Y-125979570D01*
X100411688Y-125979569D01*
X100337987Y-125930323D01*
X100264283Y-125881076D01*
X100138924Y-125755717D01*
X100040430Y-125608310D01*
X99972586Y-125444520D01*
X99955293Y-125357581D01*
X99938000Y-125270644D01*
X99938000Y-125093356D01*
X99972586Y-124919482D01*
X99972586Y-124919480D01*
X100040430Y-124755690D01*
X100138924Y-124608283D01*
X100264283Y-124482924D01*
X100383796Y-124403068D01*
X100411688Y-124384431D01*
X100411690Y-124384430D01*
X100575480Y-124316586D01*
X100662419Y-124299293D01*
X100749356Y-124282000D01*
X100926644Y-124282000D01*
X101013581Y-124299293D01*
G37*
G36*
X99198000Y-126082000D02*
G01*
X97398000Y-126082000D01*
X97398000Y-124282000D01*
X99198000Y-124282000D01*
X99198000Y-126082000D01*
G37*
G36*
X105802000Y-126082000D02*
G01*
X104002000Y-126082000D01*
X104002000Y-124282000D01*
X105802000Y-124282000D01*
X105802000Y-126082000D01*
G37*
G36*
X107617581Y-124299293D02*
G01*
X107704520Y-124316586D01*
X107868310Y-124384430D01*
X107868312Y-124384431D01*
X107896204Y-124403068D01*
X108015717Y-124482924D01*
X108141076Y-124608283D01*
X108239570Y-124755690D01*
X108307414Y-124919480D01*
X108307414Y-124919482D01*
X108342000Y-125093356D01*
X108342000Y-125270644D01*
X108324707Y-125357581D01*
X108307414Y-125444520D01*
X108239570Y-125608310D01*
X108141076Y-125755717D01*
X108015717Y-125881076D01*
X107942013Y-125930323D01*
X107868312Y-125979569D01*
X107868311Y-125979570D01*
X107868310Y-125979570D01*
X107704520Y-126047414D01*
X107617581Y-126064707D01*
X107530644Y-126082000D01*
X107353356Y-126082000D01*
X107266419Y-126064707D01*
X107179480Y-126047414D01*
X107015690Y-125979570D01*
X107015689Y-125979570D01*
X107015688Y-125979569D01*
X106941987Y-125930323D01*
X106868283Y-125881076D01*
X106742924Y-125755717D01*
X106644430Y-125608310D01*
X106576586Y-125444520D01*
X106559293Y-125357581D01*
X106542000Y-125270644D01*
X106542000Y-125093356D01*
X106576586Y-124919482D01*
X106576586Y-124919480D01*
X106644430Y-124755690D01*
X106742924Y-124608283D01*
X106868283Y-124482924D01*
X106987796Y-124403068D01*
X107015688Y-124384431D01*
X107015690Y-124384430D01*
X107179480Y-124316586D01*
X107266419Y-124299293D01*
X107353356Y-124282000D01*
X107530644Y-124282000D01*
X107617581Y-124299293D01*
G37*
G36*
X160449581Y-124299293D02*
G01*
X160536520Y-124316586D01*
X160700310Y-124384430D01*
X160700312Y-124384431D01*
X160728204Y-124403068D01*
X160847717Y-124482924D01*
X160973076Y-124608283D01*
X161071570Y-124755690D01*
X161139414Y-124919480D01*
X161139414Y-124919482D01*
X161174000Y-125093356D01*
X161174000Y-125270644D01*
X161156707Y-125357581D01*
X161139414Y-125444520D01*
X161071570Y-125608310D01*
X160973076Y-125755717D01*
X160847717Y-125881076D01*
X160774013Y-125930323D01*
X160700312Y-125979569D01*
X160700311Y-125979570D01*
X160700310Y-125979570D01*
X160536520Y-126047414D01*
X160449581Y-126064707D01*
X160362644Y-126082000D01*
X160185356Y-126082000D01*
X160098419Y-126064707D01*
X160011480Y-126047414D01*
X159847690Y-125979570D01*
X159847689Y-125979570D01*
X159847688Y-125979569D01*
X159773987Y-125930323D01*
X159700283Y-125881076D01*
X159574924Y-125755717D01*
X159476430Y-125608310D01*
X159408586Y-125444520D01*
X159391293Y-125357581D01*
X159374000Y-125270644D01*
X159374000Y-125093356D01*
X159408586Y-124919482D01*
X159408586Y-124919480D01*
X159476430Y-124755690D01*
X159574924Y-124608283D01*
X159700283Y-124482924D01*
X159819796Y-124403068D01*
X159847688Y-124384431D01*
X159847690Y-124384430D01*
X160011480Y-124316586D01*
X160098419Y-124299293D01*
X160185356Y-124282000D01*
X160362644Y-124282000D01*
X160449581Y-124299293D01*
G37*
G36*
X112406000Y-126082000D02*
G01*
X110606000Y-126082000D01*
X110606000Y-124282000D01*
X112406000Y-124282000D01*
X112406000Y-126082000D01*
G37*
G36*
X119010000Y-126082000D02*
G01*
X117210000Y-126082000D01*
X117210000Y-124282000D01*
X119010000Y-124282000D01*
X119010000Y-126082000D01*
G37*
G36*
X120825581Y-124299293D02*
G01*
X120912520Y-124316586D01*
X121076310Y-124384430D01*
X121076312Y-124384431D01*
X121104204Y-124403068D01*
X121223717Y-124482924D01*
X121349076Y-124608283D01*
X121447570Y-124755690D01*
X121515414Y-124919480D01*
X121515414Y-124919482D01*
X121550000Y-125093356D01*
X121550000Y-125270644D01*
X121532707Y-125357581D01*
X121515414Y-125444520D01*
X121447570Y-125608310D01*
X121349076Y-125755717D01*
X121223717Y-125881076D01*
X121150013Y-125930323D01*
X121076312Y-125979569D01*
X121076311Y-125979570D01*
X121076310Y-125979570D01*
X120912520Y-126047414D01*
X120825581Y-126064707D01*
X120738644Y-126082000D01*
X120561356Y-126082000D01*
X120474419Y-126064707D01*
X120387480Y-126047414D01*
X120223690Y-125979570D01*
X120223689Y-125979570D01*
X120223688Y-125979569D01*
X120149987Y-125930323D01*
X120076283Y-125881076D01*
X119950924Y-125755717D01*
X119852430Y-125608310D01*
X119784586Y-125444520D01*
X119767293Y-125357581D01*
X119750000Y-125270644D01*
X119750000Y-125093356D01*
X119784586Y-124919482D01*
X119784586Y-124919480D01*
X119852430Y-124755690D01*
X119950924Y-124608283D01*
X120076283Y-124482924D01*
X120195796Y-124403068D01*
X120223688Y-124384431D01*
X120223690Y-124384430D01*
X120387480Y-124316586D01*
X120474419Y-124299293D01*
X120561356Y-124282000D01*
X120738644Y-124282000D01*
X120825581Y-124299293D01*
G37*
G36*
X127429581Y-124299293D02*
G01*
X127516520Y-124316586D01*
X127680310Y-124384430D01*
X127680312Y-124384431D01*
X127708204Y-124403068D01*
X127827717Y-124482924D01*
X127953076Y-124608283D01*
X128051570Y-124755690D01*
X128119414Y-124919480D01*
X128119414Y-124919482D01*
X128154000Y-125093356D01*
X128154000Y-125270644D01*
X128136707Y-125357581D01*
X128119414Y-125444520D01*
X128051570Y-125608310D01*
X127953076Y-125755717D01*
X127827717Y-125881076D01*
X127754013Y-125930323D01*
X127680312Y-125979569D01*
X127680311Y-125979570D01*
X127680310Y-125979570D01*
X127516520Y-126047414D01*
X127429581Y-126064707D01*
X127342644Y-126082000D01*
X127165356Y-126082000D01*
X127078419Y-126064707D01*
X126991480Y-126047414D01*
X126827690Y-125979570D01*
X126827689Y-125979570D01*
X126827688Y-125979569D01*
X126753987Y-125930323D01*
X126680283Y-125881076D01*
X126554924Y-125755717D01*
X126456430Y-125608310D01*
X126388586Y-125444520D01*
X126371293Y-125357581D01*
X126354000Y-125270644D01*
X126354000Y-125093356D01*
X126388586Y-124919482D01*
X126388586Y-124919480D01*
X126456430Y-124755690D01*
X126554924Y-124608283D01*
X126680283Y-124482924D01*
X126799796Y-124403068D01*
X126827688Y-124384431D01*
X126827690Y-124384430D01*
X126991480Y-124316586D01*
X127078419Y-124299293D01*
X127165356Y-124282000D01*
X127342644Y-124282000D01*
X127429581Y-124299293D01*
G37*
G36*
X125614000Y-126082000D02*
G01*
X123814000Y-126082000D01*
X123814000Y-124282000D01*
X125614000Y-124282000D01*
X125614000Y-126082000D01*
G37*
G36*
X132218000Y-126082000D02*
G01*
X130418000Y-126082000D01*
X130418000Y-124282000D01*
X132218000Y-124282000D01*
X132218000Y-126082000D01*
G37*
G36*
X134033581Y-124299293D02*
G01*
X134120520Y-124316586D01*
X134284310Y-124384430D01*
X134284312Y-124384431D01*
X134312204Y-124403068D01*
X134431717Y-124482924D01*
X134557076Y-124608283D01*
X134655570Y-124755690D01*
X134723414Y-124919480D01*
X134723414Y-124919482D01*
X134758000Y-125093356D01*
X134758000Y-125270644D01*
X134740707Y-125357581D01*
X134723414Y-125444520D01*
X134655570Y-125608310D01*
X134557076Y-125755717D01*
X134431717Y-125881076D01*
X134358013Y-125930323D01*
X134284312Y-125979569D01*
X134284311Y-125979570D01*
X134284310Y-125979570D01*
X134120520Y-126047414D01*
X134033581Y-126064707D01*
X133946644Y-126082000D01*
X133769356Y-126082000D01*
X133682419Y-126064707D01*
X133595480Y-126047414D01*
X133431690Y-125979570D01*
X133431689Y-125979570D01*
X133431688Y-125979569D01*
X133357987Y-125930323D01*
X133284283Y-125881076D01*
X133158924Y-125755717D01*
X133060430Y-125608310D01*
X132992586Y-125444520D01*
X132975293Y-125357581D01*
X132958000Y-125270644D01*
X132958000Y-125093356D01*
X132992586Y-124919482D01*
X132992586Y-124919480D01*
X133060430Y-124755690D01*
X133158924Y-124608283D01*
X133284283Y-124482924D01*
X133403796Y-124403068D01*
X133431688Y-124384431D01*
X133431690Y-124384430D01*
X133595480Y-124316586D01*
X133682419Y-124299293D01*
X133769356Y-124282000D01*
X133946644Y-124282000D01*
X134033581Y-124299293D01*
G37*
G36*
X138822000Y-126082000D02*
G01*
X137022000Y-126082000D01*
X137022000Y-124282000D01*
X138822000Y-124282000D01*
X138822000Y-126082000D01*
G37*
G36*
X145426000Y-126082000D02*
G01*
X143626000Y-126082000D01*
X143626000Y-124282000D01*
X145426000Y-124282000D01*
X145426000Y-126082000D01*
G37*
G36*
X147241581Y-124299293D02*
G01*
X147328520Y-124316586D01*
X147492310Y-124384430D01*
X147492312Y-124384431D01*
X147520204Y-124403068D01*
X147639717Y-124482924D01*
X147765076Y-124608283D01*
X147863570Y-124755690D01*
X147931414Y-124919480D01*
X147931414Y-124919482D01*
X147966000Y-125093356D01*
X147966000Y-125270644D01*
X147948707Y-125357581D01*
X147931414Y-125444520D01*
X147863570Y-125608310D01*
X147765076Y-125755717D01*
X147639717Y-125881076D01*
X147566013Y-125930323D01*
X147492312Y-125979569D01*
X147492311Y-125979570D01*
X147492310Y-125979570D01*
X147328520Y-126047414D01*
X147241581Y-126064707D01*
X147154644Y-126082000D01*
X146977356Y-126082000D01*
X146890419Y-126064707D01*
X146803480Y-126047414D01*
X146639690Y-125979570D01*
X146639689Y-125979570D01*
X146639688Y-125979569D01*
X146565987Y-125930323D01*
X146492283Y-125881076D01*
X146366924Y-125755717D01*
X146268430Y-125608310D01*
X146200586Y-125444520D01*
X146183293Y-125357581D01*
X146166000Y-125270644D01*
X146166000Y-125093356D01*
X146200586Y-124919482D01*
X146200586Y-124919480D01*
X146268430Y-124755690D01*
X146366924Y-124608283D01*
X146492283Y-124482924D01*
X146611796Y-124403068D01*
X146639688Y-124384431D01*
X146639690Y-124384430D01*
X146803480Y-124316586D01*
X146890419Y-124299293D01*
X146977356Y-124282000D01*
X147154644Y-124282000D01*
X147241581Y-124299293D01*
G37*
G36*
X152030000Y-126082000D02*
G01*
X150230000Y-126082000D01*
X150230000Y-124282000D01*
X152030000Y-124282000D01*
X152030000Y-126082000D01*
G37*
G36*
X153845581Y-124299293D02*
G01*
X153932520Y-124316586D01*
X154096310Y-124384430D01*
X154096312Y-124384431D01*
X154124204Y-124403068D01*
X154243717Y-124482924D01*
X154369076Y-124608283D01*
X154467570Y-124755690D01*
X154535414Y-124919480D01*
X154535414Y-124919482D01*
X154570000Y-125093356D01*
X154570000Y-125270644D01*
X154552707Y-125357581D01*
X154535414Y-125444520D01*
X154467570Y-125608310D01*
X154369076Y-125755717D01*
X154243717Y-125881076D01*
X154170013Y-125930323D01*
X154096312Y-125979569D01*
X154096311Y-125979570D01*
X154096310Y-125979570D01*
X153932520Y-126047414D01*
X153845581Y-126064707D01*
X153758644Y-126082000D01*
X153581356Y-126082000D01*
X153494419Y-126064707D01*
X153407480Y-126047414D01*
X153243690Y-125979570D01*
X153243689Y-125979570D01*
X153243688Y-125979569D01*
X153169987Y-125930323D01*
X153096283Y-125881076D01*
X152970924Y-125755717D01*
X152872430Y-125608310D01*
X152804586Y-125444520D01*
X152787293Y-125357581D01*
X152770000Y-125270644D01*
X152770000Y-125093356D01*
X152804586Y-124919482D01*
X152804586Y-124919480D01*
X152872430Y-124755690D01*
X152970924Y-124608283D01*
X153096283Y-124482924D01*
X153215796Y-124403068D01*
X153243688Y-124384431D01*
X153243690Y-124384430D01*
X153407480Y-124316586D01*
X153494419Y-124299293D01*
X153581356Y-124282000D01*
X153758644Y-124282000D01*
X153845581Y-124299293D01*
G37*
G36*
X72782000Y-126082000D02*
G01*
X70982000Y-126082000D01*
X70982000Y-124282000D01*
X72782000Y-124282000D01*
X72782000Y-126082000D01*
G37*
G36*
X74597581Y-124299293D02*
G01*
X74684520Y-124316586D01*
X74848310Y-124384430D01*
X74848312Y-124384431D01*
X74876204Y-124403068D01*
X74995717Y-124482924D01*
X75121076Y-124608283D01*
X75219570Y-124755690D01*
X75287414Y-124919480D01*
X75287414Y-124919482D01*
X75322000Y-125093356D01*
X75322000Y-125270644D01*
X75304707Y-125357581D01*
X75287414Y-125444520D01*
X75219570Y-125608310D01*
X75121076Y-125755717D01*
X74995717Y-125881076D01*
X74922013Y-125930323D01*
X74848312Y-125979569D01*
X74848311Y-125979570D01*
X74848310Y-125979570D01*
X74684520Y-126047414D01*
X74597581Y-126064707D01*
X74510644Y-126082000D01*
X74333356Y-126082000D01*
X74246419Y-126064707D01*
X74159480Y-126047414D01*
X73995690Y-125979570D01*
X73995689Y-125979570D01*
X73995688Y-125979569D01*
X73921987Y-125930323D01*
X73848283Y-125881076D01*
X73722924Y-125755717D01*
X73624430Y-125608310D01*
X73556586Y-125444520D01*
X73539293Y-125357581D01*
X73522000Y-125270644D01*
X73522000Y-125093356D01*
X73556586Y-124919482D01*
X73556586Y-124919480D01*
X73624430Y-124755690D01*
X73722924Y-124608283D01*
X73848283Y-124482924D01*
X73967796Y-124403068D01*
X73995688Y-124384431D01*
X73995690Y-124384430D01*
X74159480Y-124316586D01*
X74246419Y-124299293D01*
X74333356Y-124282000D01*
X74510644Y-124282000D01*
X74597581Y-124299293D01*
G37*
G36*
X158634000Y-126082000D02*
G01*
X156834000Y-126082000D01*
X156834000Y-124282000D01*
X158634000Y-124282000D01*
X158634000Y-126082000D01*
G37*
G36*
X165238000Y-126082000D02*
G01*
X163438000Y-126082000D01*
X163438000Y-124282000D01*
X165238000Y-124282000D01*
X165238000Y-126082000D01*
G37*
G36*
X171842000Y-126082000D02*
G01*
X170042000Y-126082000D01*
X170042000Y-124282000D01*
X171842000Y-124282000D01*
X171842000Y-126082000D01*
G37*
G36*
X173657581Y-124299293D02*
G01*
X173744520Y-124316586D01*
X173908310Y-124384430D01*
X173908312Y-124384431D01*
X173936204Y-124403068D01*
X174055717Y-124482924D01*
X174181076Y-124608283D01*
X174279570Y-124755690D01*
X174347414Y-124919480D01*
X174347414Y-124919482D01*
X174382000Y-125093356D01*
X174382000Y-125270644D01*
X174364707Y-125357581D01*
X174347414Y-125444520D01*
X174279570Y-125608310D01*
X174181076Y-125755717D01*
X174055717Y-125881076D01*
X173982013Y-125930323D01*
X173908312Y-125979569D01*
X173908311Y-125979570D01*
X173908310Y-125979570D01*
X173744520Y-126047414D01*
X173657581Y-126064707D01*
X173570644Y-126082000D01*
X173393356Y-126082000D01*
X173306419Y-126064707D01*
X173219480Y-126047414D01*
X173055690Y-125979570D01*
X173055689Y-125979570D01*
X173055688Y-125979569D01*
X172981987Y-125930323D01*
X172908283Y-125881076D01*
X172782924Y-125755717D01*
X172684430Y-125608310D01*
X172616586Y-125444520D01*
X172599293Y-125357581D01*
X172582000Y-125270644D01*
X172582000Y-125093356D01*
X172616586Y-124919482D01*
X172616586Y-124919480D01*
X172684430Y-124755690D01*
X172782924Y-124608283D01*
X172908283Y-124482924D01*
X173027796Y-124403068D01*
X173055688Y-124384431D01*
X173055690Y-124384430D01*
X173219480Y-124316586D01*
X173306419Y-124299293D01*
X173393356Y-124282000D01*
X173570644Y-124282000D01*
X173657581Y-124299293D01*
G37*
G36*
X180261581Y-124299293D02*
G01*
X180348520Y-124316586D01*
X180512310Y-124384430D01*
X180512312Y-124384431D01*
X180540204Y-124403068D01*
X180659717Y-124482924D01*
X180785076Y-124608283D01*
X180883570Y-124755690D01*
X180951414Y-124919480D01*
X180951414Y-124919482D01*
X180986000Y-125093356D01*
X180986000Y-125270644D01*
X180968707Y-125357581D01*
X180951414Y-125444520D01*
X180883570Y-125608310D01*
X180785076Y-125755717D01*
X180659717Y-125881076D01*
X180586013Y-125930323D01*
X180512312Y-125979569D01*
X180512311Y-125979570D01*
X180512310Y-125979570D01*
X180348520Y-126047414D01*
X180261581Y-126064707D01*
X180174644Y-126082000D01*
X179997356Y-126082000D01*
X179910419Y-126064707D01*
X179823480Y-126047414D01*
X179659690Y-125979570D01*
X179659689Y-125979570D01*
X179659688Y-125979569D01*
X179585987Y-125930323D01*
X179512283Y-125881076D01*
X179386924Y-125755717D01*
X179288430Y-125608310D01*
X179220586Y-125444520D01*
X179203293Y-125357581D01*
X179186000Y-125270644D01*
X179186000Y-125093356D01*
X179220586Y-124919482D01*
X179220586Y-124919480D01*
X179288430Y-124755690D01*
X179386924Y-124608283D01*
X179512283Y-124482924D01*
X179631796Y-124403068D01*
X179659688Y-124384431D01*
X179659690Y-124384430D01*
X179823480Y-124316586D01*
X179910419Y-124299293D01*
X179997356Y-124282000D01*
X180174644Y-124282000D01*
X180261581Y-124299293D01*
G37*
G36*
X167053581Y-124299293D02*
G01*
X167140520Y-124316586D01*
X167304310Y-124384430D01*
X167304312Y-124384431D01*
X167332204Y-124403068D01*
X167451717Y-124482924D01*
X167577076Y-124608283D01*
X167675570Y-124755690D01*
X167743414Y-124919480D01*
X167743414Y-124919482D01*
X167778000Y-125093356D01*
X167778000Y-125270644D01*
X167760707Y-125357581D01*
X167743414Y-125444520D01*
X167675570Y-125608310D01*
X167577076Y-125755717D01*
X167451717Y-125881076D01*
X167378013Y-125930323D01*
X167304312Y-125979569D01*
X167304311Y-125979570D01*
X167304310Y-125979570D01*
X167140520Y-126047414D01*
X167053581Y-126064707D01*
X166966644Y-126082000D01*
X166789356Y-126082000D01*
X166702419Y-126064707D01*
X166615480Y-126047414D01*
X166451690Y-125979570D01*
X166451689Y-125979570D01*
X166451688Y-125979569D01*
X166377987Y-125930323D01*
X166304283Y-125881076D01*
X166178924Y-125755717D01*
X166080430Y-125608310D01*
X166012586Y-125444520D01*
X165995293Y-125357581D01*
X165978000Y-125270644D01*
X165978000Y-125093356D01*
X166012586Y-124919482D01*
X166012586Y-124919480D01*
X166080430Y-124755690D01*
X166178924Y-124608283D01*
X166304283Y-124482924D01*
X166423796Y-124403068D01*
X166451688Y-124384431D01*
X166451690Y-124384430D01*
X166615480Y-124316586D01*
X166702419Y-124299293D01*
X166789356Y-124282000D01*
X166966644Y-124282000D01*
X167053581Y-124299293D01*
G37*
G36*
X178446000Y-126082000D02*
G01*
X176646000Y-126082000D01*
X176646000Y-124282000D01*
X178446000Y-124282000D01*
X178446000Y-126082000D01*
G37*
G36*
X193469581Y-124299293D02*
G01*
X193556520Y-124316586D01*
X193720310Y-124384430D01*
X193720312Y-124384431D01*
X193748204Y-124403068D01*
X193867717Y-124482924D01*
X193993076Y-124608283D01*
X194091570Y-124755690D01*
X194159414Y-124919480D01*
X194159414Y-124919482D01*
X194194000Y-125093356D01*
X194194000Y-125270644D01*
X194176707Y-125357581D01*
X194159414Y-125444520D01*
X194091570Y-125608310D01*
X193993076Y-125755717D01*
X193867717Y-125881076D01*
X193794013Y-125930323D01*
X193720312Y-125979569D01*
X193720311Y-125979570D01*
X193720310Y-125979570D01*
X193556520Y-126047414D01*
X193469581Y-126064707D01*
X193382644Y-126082000D01*
X193205356Y-126082000D01*
X193118419Y-126064707D01*
X193031480Y-126047414D01*
X192867690Y-125979570D01*
X192867689Y-125979570D01*
X192867688Y-125979569D01*
X192793987Y-125930323D01*
X192720283Y-125881076D01*
X192594924Y-125755717D01*
X192496430Y-125608310D01*
X192428586Y-125444520D01*
X192411293Y-125357581D01*
X192394000Y-125270644D01*
X192394000Y-125093356D01*
X192428586Y-124919482D01*
X192428586Y-124919480D01*
X192496430Y-124755690D01*
X192594924Y-124608283D01*
X192720283Y-124482924D01*
X192839796Y-124403068D01*
X192867688Y-124384431D01*
X192867690Y-124384430D01*
X193031480Y-124316586D01*
X193118419Y-124299293D01*
X193205356Y-124282000D01*
X193382644Y-124282000D01*
X193469581Y-124299293D01*
G37*
G36*
X191654000Y-126082000D02*
G01*
X189854000Y-126082000D01*
X189854000Y-124282000D01*
X191654000Y-124282000D01*
X191654000Y-126082000D01*
G37*
G36*
X198258000Y-126082000D02*
G01*
X196458000Y-126082000D01*
X196458000Y-124282000D01*
X198258000Y-124282000D01*
X198258000Y-126082000D01*
G37*
G36*
X200073581Y-124299293D02*
G01*
X200160520Y-124316586D01*
X200324310Y-124384430D01*
X200324312Y-124384431D01*
X200352204Y-124403068D01*
X200471717Y-124482924D01*
X200597076Y-124608283D01*
X200695570Y-124755690D01*
X200763414Y-124919480D01*
X200763414Y-124919482D01*
X200798000Y-125093356D01*
X200798000Y-125270644D01*
X200780707Y-125357581D01*
X200763414Y-125444520D01*
X200695570Y-125608310D01*
X200597076Y-125755717D01*
X200471717Y-125881076D01*
X200398013Y-125930323D01*
X200324312Y-125979569D01*
X200324311Y-125979570D01*
X200324310Y-125979570D01*
X200160520Y-126047414D01*
X200073581Y-126064707D01*
X199986644Y-126082000D01*
X199809356Y-126082000D01*
X199722419Y-126064707D01*
X199635480Y-126047414D01*
X199471690Y-125979570D01*
X199471689Y-125979570D01*
X199471688Y-125979569D01*
X199397987Y-125930323D01*
X199324283Y-125881076D01*
X199198924Y-125755717D01*
X199100430Y-125608310D01*
X199032586Y-125444520D01*
X199015293Y-125357581D01*
X198998000Y-125270644D01*
X198998000Y-125093356D01*
X199032586Y-124919482D01*
X199032586Y-124919480D01*
X199100430Y-124755690D01*
X199198924Y-124608283D01*
X199324283Y-124482924D01*
X199443796Y-124403068D01*
X199471688Y-124384431D01*
X199471690Y-124384430D01*
X199635480Y-124316586D01*
X199722419Y-124299293D01*
X199809356Y-124282000D01*
X199986644Y-124282000D01*
X200073581Y-124299293D01*
G37*
G36*
X206677581Y-124299293D02*
G01*
X206764520Y-124316586D01*
X206928310Y-124384430D01*
X206928312Y-124384431D01*
X206956204Y-124403068D01*
X207075717Y-124482924D01*
X207201076Y-124608283D01*
X207299570Y-124755690D01*
X207367414Y-124919480D01*
X207367414Y-124919482D01*
X207402000Y-125093356D01*
X207402000Y-125270644D01*
X207384707Y-125357581D01*
X207367414Y-125444520D01*
X207299570Y-125608310D01*
X207201076Y-125755717D01*
X207075717Y-125881076D01*
X207002013Y-125930323D01*
X206928312Y-125979569D01*
X206928311Y-125979570D01*
X206928310Y-125979570D01*
X206764520Y-126047414D01*
X206677581Y-126064707D01*
X206590644Y-126082000D01*
X206413356Y-126082000D01*
X206326419Y-126064707D01*
X206239480Y-126047414D01*
X206075690Y-125979570D01*
X206075689Y-125979570D01*
X206075688Y-125979569D01*
X206001987Y-125930323D01*
X205928283Y-125881076D01*
X205802924Y-125755717D01*
X205704430Y-125608310D01*
X205636586Y-125444520D01*
X205619293Y-125357581D01*
X205602000Y-125270644D01*
X205602000Y-125093356D01*
X205636586Y-124919482D01*
X205636586Y-124919480D01*
X205704430Y-124755690D01*
X205802924Y-124608283D01*
X205928283Y-124482924D01*
X206047796Y-124403068D01*
X206075688Y-124384431D01*
X206075690Y-124384430D01*
X206239480Y-124316586D01*
X206326419Y-124299293D01*
X206413356Y-124282000D01*
X206590644Y-124282000D01*
X206677581Y-124299293D01*
G37*
G36*
X204862000Y-126082000D02*
G01*
X203062000Y-126082000D01*
X203062000Y-124282000D01*
X204862000Y-124282000D01*
X204862000Y-126082000D01*
G37*
G36*
X186865581Y-124299293D02*
G01*
X186952520Y-124316586D01*
X187116310Y-124384430D01*
X187116312Y-124384431D01*
X187144204Y-124403068D01*
X187263717Y-124482924D01*
X187389076Y-124608283D01*
X187487570Y-124755690D01*
X187555414Y-124919480D01*
X187555414Y-124919482D01*
X187590000Y-125093356D01*
X187590000Y-125270644D01*
X187572707Y-125357581D01*
X187555414Y-125444520D01*
X187487570Y-125608310D01*
X187389076Y-125755717D01*
X187263717Y-125881076D01*
X187190013Y-125930323D01*
X187116312Y-125979569D01*
X187116311Y-125979570D01*
X187116310Y-125979570D01*
X186952520Y-126047414D01*
X186865581Y-126064707D01*
X186778644Y-126082000D01*
X186601356Y-126082000D01*
X186514419Y-126064707D01*
X186427480Y-126047414D01*
X186263690Y-125979570D01*
X186263689Y-125979570D01*
X186263688Y-125979569D01*
X186189987Y-125930323D01*
X186116283Y-125881076D01*
X185990924Y-125755717D01*
X185892430Y-125608310D01*
X185824586Y-125444520D01*
X185807293Y-125357581D01*
X185790000Y-125270644D01*
X185790000Y-125093356D01*
X185824586Y-124919482D01*
X185824586Y-124919480D01*
X185892430Y-124755690D01*
X185990924Y-124608283D01*
X186116283Y-124482924D01*
X186235796Y-124403068D01*
X186263688Y-124384431D01*
X186263690Y-124384430D01*
X186427480Y-124316586D01*
X186514419Y-124299293D01*
X186601356Y-124282000D01*
X186778644Y-124282000D01*
X186865581Y-124299293D01*
G37*
G36*
X185050000Y-126082000D02*
G01*
X183250000Y-126082000D01*
X183250000Y-124282000D01*
X185050000Y-124282000D01*
X185050000Y-126082000D01*
G37*
G36*
X114221581Y-124299293D02*
G01*
X114308520Y-124316586D01*
X114472310Y-124384430D01*
X114472312Y-124384431D01*
X114500204Y-124403068D01*
X114619717Y-124482924D01*
X114745076Y-124608283D01*
X114843570Y-124755690D01*
X114911414Y-124919480D01*
X114911414Y-124919482D01*
X114946000Y-125093356D01*
X114946000Y-125270644D01*
X114928707Y-125357581D01*
X114911414Y-125444520D01*
X114843570Y-125608310D01*
X114745076Y-125755717D01*
X114619717Y-125881076D01*
X114546013Y-125930323D01*
X114472312Y-125979569D01*
X114472311Y-125979570D01*
X114472310Y-125979570D01*
X114308520Y-126047414D01*
X114221581Y-126064707D01*
X114134644Y-126082000D01*
X113957356Y-126082000D01*
X113870419Y-126064707D01*
X113783480Y-126047414D01*
X113619690Y-125979570D01*
X113619689Y-125979570D01*
X113619688Y-125979569D01*
X113545987Y-125930323D01*
X113472283Y-125881076D01*
X113346924Y-125755717D01*
X113248430Y-125608310D01*
X113180586Y-125444520D01*
X113163293Y-125357581D01*
X113146000Y-125270644D01*
X113146000Y-125093356D01*
X113180586Y-124919482D01*
X113180586Y-124919480D01*
X113248430Y-124755690D01*
X113346924Y-124608283D01*
X113472283Y-124482924D01*
X113591796Y-124403068D01*
X113619688Y-124384431D01*
X113619690Y-124384430D01*
X113783480Y-124316586D01*
X113870419Y-124299293D01*
X113957356Y-124282000D01*
X114134644Y-124282000D01*
X114221581Y-124299293D01*
G37*
G36*
X218070000Y-126082000D02*
G01*
X216270000Y-126082000D01*
X216270000Y-124282000D01*
X218070000Y-124282000D01*
X218070000Y-126082000D01*
G37*
G36*
X224674000Y-126082000D02*
G01*
X222874000Y-126082000D01*
X222874000Y-124282000D01*
X224674000Y-124282000D01*
X224674000Y-126082000D01*
G37*
G36*
X226489581Y-124299293D02*
G01*
X226576520Y-124316586D01*
X226740310Y-124384430D01*
X226740312Y-124384431D01*
X226768204Y-124403068D01*
X226887717Y-124482924D01*
X227013076Y-124608283D01*
X227111570Y-124755690D01*
X227179414Y-124919480D01*
X227179414Y-124919482D01*
X227214000Y-125093356D01*
X227214000Y-125270644D01*
X227196707Y-125357581D01*
X227179414Y-125444520D01*
X227111570Y-125608310D01*
X227013076Y-125755717D01*
X226887717Y-125881076D01*
X226814013Y-125930323D01*
X226740312Y-125979569D01*
X226740311Y-125979570D01*
X226740310Y-125979570D01*
X226576520Y-126047414D01*
X226489581Y-126064707D01*
X226402644Y-126082000D01*
X226225356Y-126082000D01*
X226138419Y-126064707D01*
X226051480Y-126047414D01*
X225887690Y-125979570D01*
X225887689Y-125979570D01*
X225887688Y-125979569D01*
X225813987Y-125930323D01*
X225740283Y-125881076D01*
X225614924Y-125755717D01*
X225516430Y-125608310D01*
X225448586Y-125444520D01*
X225431293Y-125357581D01*
X225414000Y-125270644D01*
X225414000Y-125093356D01*
X225448586Y-124919482D01*
X225448586Y-124919480D01*
X225516430Y-124755690D01*
X225614924Y-124608283D01*
X225740283Y-124482924D01*
X225859796Y-124403068D01*
X225887688Y-124384431D01*
X225887690Y-124384430D01*
X226051480Y-124316586D01*
X226138419Y-124299293D01*
X226225356Y-124282000D01*
X226402644Y-124282000D01*
X226489581Y-124299293D01*
G37*
G36*
X219885581Y-124299293D02*
G01*
X219972520Y-124316586D01*
X220136310Y-124384430D01*
X220136312Y-124384431D01*
X220164204Y-124403068D01*
X220283717Y-124482924D01*
X220409076Y-124608283D01*
X220507570Y-124755690D01*
X220575414Y-124919480D01*
X220575414Y-124919482D01*
X220610000Y-125093356D01*
X220610000Y-125270644D01*
X220592707Y-125357581D01*
X220575414Y-125444520D01*
X220507570Y-125608310D01*
X220409076Y-125755717D01*
X220283717Y-125881076D01*
X220210013Y-125930323D01*
X220136312Y-125979569D01*
X220136311Y-125979570D01*
X220136310Y-125979570D01*
X219972520Y-126047414D01*
X219885581Y-126064707D01*
X219798644Y-126082000D01*
X219621356Y-126082000D01*
X219534419Y-126064707D01*
X219447480Y-126047414D01*
X219283690Y-125979570D01*
X219283689Y-125979570D01*
X219283688Y-125979569D01*
X219209987Y-125930323D01*
X219136283Y-125881076D01*
X219010924Y-125755717D01*
X218912430Y-125608310D01*
X218844586Y-125444520D01*
X218827293Y-125357581D01*
X218810000Y-125270644D01*
X218810000Y-125093356D01*
X218844586Y-124919482D01*
X218844586Y-124919480D01*
X218912430Y-124755690D01*
X219010924Y-124608283D01*
X219136283Y-124482924D01*
X219255796Y-124403068D01*
X219283688Y-124384431D01*
X219283690Y-124384430D01*
X219447480Y-124316586D01*
X219534419Y-124299293D01*
X219621356Y-124282000D01*
X219798644Y-124282000D01*
X219885581Y-124299293D01*
G37*
G36*
X213281581Y-124299293D02*
G01*
X213368520Y-124316586D01*
X213532310Y-124384430D01*
X213532312Y-124384431D01*
X213560204Y-124403068D01*
X213679717Y-124482924D01*
X213805076Y-124608283D01*
X213903570Y-124755690D01*
X213971414Y-124919480D01*
X213971414Y-124919482D01*
X214006000Y-125093356D01*
X214006000Y-125270644D01*
X213988707Y-125357581D01*
X213971414Y-125444520D01*
X213903570Y-125608310D01*
X213805076Y-125755717D01*
X213679717Y-125881076D01*
X213606013Y-125930323D01*
X213532312Y-125979569D01*
X213532311Y-125979570D01*
X213532310Y-125979570D01*
X213368520Y-126047414D01*
X213281581Y-126064707D01*
X213194644Y-126082000D01*
X213017356Y-126082000D01*
X212930419Y-126064707D01*
X212843480Y-126047414D01*
X212679690Y-125979570D01*
X212679689Y-125979570D01*
X212679688Y-125979569D01*
X212605987Y-125930323D01*
X212532283Y-125881076D01*
X212406924Y-125755717D01*
X212308430Y-125608310D01*
X212240586Y-125444520D01*
X212223293Y-125357581D01*
X212206000Y-125270644D01*
X212206000Y-125093356D01*
X212240586Y-124919482D01*
X212240586Y-124919480D01*
X212308430Y-124755690D01*
X212406924Y-124608283D01*
X212532283Y-124482924D01*
X212651796Y-124403068D01*
X212679688Y-124384431D01*
X212679690Y-124384430D01*
X212843480Y-124316586D01*
X212930419Y-124299293D01*
X213017356Y-124282000D01*
X213194644Y-124282000D01*
X213281581Y-124299293D01*
G37*
G36*
X211466000Y-126082000D02*
G01*
X209666000Y-126082000D01*
X209666000Y-124282000D01*
X211466000Y-124282000D01*
X211466000Y-126082000D01*
G37*
G36*
X132718312Y-118652248D02*
G01*
X132821351Y-118672743D01*
X132966942Y-118733049D01*
X133097970Y-118820599D01*
X133209401Y-118932030D01*
X133296951Y-119063058D01*
X133357257Y-119208649D01*
X133388000Y-119363207D01*
X133388000Y-119520793D01*
X133357257Y-119675351D01*
X133296951Y-119820942D01*
X133209401Y-119951970D01*
X133097970Y-120063401D01*
X132966942Y-120150951D01*
X132821351Y-120211257D01*
X132718312Y-120231752D01*
X132666794Y-120242000D01*
X132509206Y-120242000D01*
X132457688Y-120231752D01*
X132354649Y-120211257D01*
X132209058Y-120150951D01*
X132078030Y-120063401D01*
X131966599Y-119951970D01*
X131879049Y-119820942D01*
X131818743Y-119675351D01*
X131788000Y-119520793D01*
X131788000Y-119363207D01*
X131818743Y-119208649D01*
X131879049Y-119063058D01*
X131966599Y-118932030D01*
X132078030Y-118820599D01*
X132209058Y-118733049D01*
X132354649Y-118672743D01*
X132457688Y-118652248D01*
X132509206Y-118642000D01*
X132666794Y-118642000D01*
X132718312Y-118652248D01*
G37*
G36*
X126114312Y-118652248D02*
G01*
X126217351Y-118672743D01*
X126362942Y-118733049D01*
X126493970Y-118820599D01*
X126605401Y-118932030D01*
X126692951Y-119063058D01*
X126753257Y-119208649D01*
X126784000Y-119363207D01*
X126784000Y-119520793D01*
X126753257Y-119675351D01*
X126692951Y-119820942D01*
X126605401Y-119951970D01*
X126493970Y-120063401D01*
X126362942Y-120150951D01*
X126217351Y-120211257D01*
X126114312Y-120231752D01*
X126062794Y-120242000D01*
X125905206Y-120242000D01*
X125853688Y-120231752D01*
X125750649Y-120211257D01*
X125605058Y-120150951D01*
X125474030Y-120063401D01*
X125362599Y-119951970D01*
X125275049Y-119820942D01*
X125214743Y-119675351D01*
X125184000Y-119520793D01*
X125184000Y-119363207D01*
X125214743Y-119208649D01*
X125275049Y-119063058D01*
X125362599Y-118932030D01*
X125474030Y-118820599D01*
X125605058Y-118733049D01*
X125750649Y-118672743D01*
X125853688Y-118652248D01*
X125905206Y-118642000D01*
X126062794Y-118642000D01*
X126114312Y-118652248D01*
G37*
G36*
X119510312Y-118652248D02*
G01*
X119613351Y-118672743D01*
X119758942Y-118733049D01*
X119889970Y-118820599D01*
X120001401Y-118932030D01*
X120088951Y-119063058D01*
X120149257Y-119208649D01*
X120180000Y-119363207D01*
X120180000Y-119520793D01*
X120149257Y-119675351D01*
X120088951Y-119820942D01*
X120001401Y-119951970D01*
X119889970Y-120063401D01*
X119758942Y-120150951D01*
X119613351Y-120211257D01*
X119510312Y-120231752D01*
X119458794Y-120242000D01*
X119301206Y-120242000D01*
X119249688Y-120231752D01*
X119146649Y-120211257D01*
X119001058Y-120150951D01*
X118870030Y-120063401D01*
X118758599Y-119951970D01*
X118671049Y-119820942D01*
X118610743Y-119675351D01*
X118580000Y-119520793D01*
X118580000Y-119363207D01*
X118610743Y-119208649D01*
X118671049Y-119063058D01*
X118758599Y-118932030D01*
X118870030Y-118820599D01*
X119001058Y-118733049D01*
X119146649Y-118672743D01*
X119249688Y-118652248D01*
X119301206Y-118642000D01*
X119458794Y-118642000D01*
X119510312Y-118652248D01*
G37*
G36*
X112906312Y-118652248D02*
G01*
X113009351Y-118672743D01*
X113154942Y-118733049D01*
X113285970Y-118820599D01*
X113397401Y-118932030D01*
X113484951Y-119063058D01*
X113545257Y-119208649D01*
X113576000Y-119363207D01*
X113576000Y-119520793D01*
X113545257Y-119675351D01*
X113484951Y-119820942D01*
X113397401Y-119951970D01*
X113285970Y-120063401D01*
X113154942Y-120150951D01*
X113009351Y-120211257D01*
X112906312Y-120231752D01*
X112854794Y-120242000D01*
X112697206Y-120242000D01*
X112645688Y-120231752D01*
X112542649Y-120211257D01*
X112397058Y-120150951D01*
X112266030Y-120063401D01*
X112154599Y-119951970D01*
X112067049Y-119820942D01*
X112006743Y-119675351D01*
X111976000Y-119520793D01*
X111976000Y-119363207D01*
X112006743Y-119208649D01*
X112067049Y-119063058D01*
X112154599Y-118932030D01*
X112266030Y-118820599D01*
X112397058Y-118733049D01*
X112542649Y-118672743D01*
X112645688Y-118652248D01*
X112697206Y-118642000D01*
X112854794Y-118642000D01*
X112906312Y-118652248D01*
G37*
G36*
X192027312Y-118652248D02*
G01*
X192130351Y-118672743D01*
X192275942Y-118733049D01*
X192406970Y-118820599D01*
X192518401Y-118932030D01*
X192605951Y-119063058D01*
X192666257Y-119208649D01*
X192697000Y-119363207D01*
X192697000Y-119520793D01*
X192666257Y-119675351D01*
X192605951Y-119820942D01*
X192518401Y-119951970D01*
X192406970Y-120063401D01*
X192275942Y-120150951D01*
X192130351Y-120211257D01*
X192027312Y-120231752D01*
X191975794Y-120242000D01*
X191818206Y-120242000D01*
X191766688Y-120231752D01*
X191663649Y-120211257D01*
X191518058Y-120150951D01*
X191387030Y-120063401D01*
X191275599Y-119951970D01*
X191188049Y-119820942D01*
X191127743Y-119675351D01*
X191097000Y-119520793D01*
X191097000Y-119363207D01*
X191127743Y-119208649D01*
X191188049Y-119063058D01*
X191275599Y-118932030D01*
X191387030Y-118820599D01*
X191518058Y-118733049D01*
X191663649Y-118672743D01*
X191766688Y-118652248D01*
X191818206Y-118642000D01*
X191975794Y-118642000D01*
X192027312Y-118652248D01*
G37*
G36*
X106302312Y-118652248D02*
G01*
X106405351Y-118672743D01*
X106550942Y-118733049D01*
X106681970Y-118820599D01*
X106793401Y-118932030D01*
X106880951Y-119063058D01*
X106941257Y-119208649D01*
X106972000Y-119363207D01*
X106972000Y-119520793D01*
X106941257Y-119675351D01*
X106880951Y-119820942D01*
X106793401Y-119951970D01*
X106681970Y-120063401D01*
X106550942Y-120150951D01*
X106405351Y-120211257D01*
X106302312Y-120231752D01*
X106250794Y-120242000D01*
X106093206Y-120242000D01*
X106041688Y-120231752D01*
X105938649Y-120211257D01*
X105793058Y-120150951D01*
X105662030Y-120063401D01*
X105550599Y-119951970D01*
X105463049Y-119820942D01*
X105402743Y-119675351D01*
X105372000Y-119520793D01*
X105372000Y-119363207D01*
X105402743Y-119208649D01*
X105463049Y-119063058D01*
X105550599Y-118932030D01*
X105662030Y-118820599D01*
X105793058Y-118733049D01*
X105938649Y-118672743D01*
X106041688Y-118652248D01*
X106093206Y-118642000D01*
X106250794Y-118642000D01*
X106302312Y-118652248D01*
G37*
G36*
X93348312Y-118652248D02*
G01*
X93451351Y-118672743D01*
X93596942Y-118733049D01*
X93727970Y-118820599D01*
X93839401Y-118932030D01*
X93926951Y-119063058D01*
X93987257Y-119208649D01*
X94018000Y-119363207D01*
X94018000Y-119520793D01*
X93987257Y-119675351D01*
X93926951Y-119820942D01*
X93839401Y-119951970D01*
X93727970Y-120063401D01*
X93596942Y-120150951D01*
X93451351Y-120211257D01*
X93348312Y-120231752D01*
X93296794Y-120242000D01*
X93139206Y-120242000D01*
X93087688Y-120231752D01*
X92984649Y-120211257D01*
X92839058Y-120150951D01*
X92708030Y-120063401D01*
X92596599Y-119951970D01*
X92509049Y-119820942D01*
X92448743Y-119675351D01*
X92418000Y-119520793D01*
X92418000Y-119363207D01*
X92448743Y-119208649D01*
X92509049Y-119063058D01*
X92596599Y-118932030D01*
X92708030Y-118820599D01*
X92839058Y-118733049D01*
X92984649Y-118672743D01*
X93087688Y-118652248D01*
X93139206Y-118642000D01*
X93296794Y-118642000D01*
X93348312Y-118652248D01*
G37*
G36*
X86617312Y-118652248D02*
G01*
X86720351Y-118672743D01*
X86865942Y-118733049D01*
X86996970Y-118820599D01*
X87108401Y-118932030D01*
X87195951Y-119063058D01*
X87256257Y-119208649D01*
X87287000Y-119363207D01*
X87287000Y-119520793D01*
X87256257Y-119675351D01*
X87195951Y-119820942D01*
X87108401Y-119951970D01*
X86996970Y-120063401D01*
X86865942Y-120150951D01*
X86720351Y-120211257D01*
X86617312Y-120231752D01*
X86565794Y-120242000D01*
X86408206Y-120242000D01*
X86356688Y-120231752D01*
X86253649Y-120211257D01*
X86108058Y-120150951D01*
X85977030Y-120063401D01*
X85865599Y-119951970D01*
X85778049Y-119820942D01*
X85717743Y-119675351D01*
X85687000Y-119520793D01*
X85687000Y-119363207D01*
X85717743Y-119208649D01*
X85778049Y-119063058D01*
X85865599Y-118932030D01*
X85977030Y-118820599D01*
X86108058Y-118733049D01*
X86253649Y-118672743D01*
X86356688Y-118652248D01*
X86408206Y-118642000D01*
X86565794Y-118642000D01*
X86617312Y-118652248D01*
G37*
G36*
X79886312Y-118652248D02*
G01*
X79989351Y-118672743D01*
X80134942Y-118733049D01*
X80265970Y-118820599D01*
X80377401Y-118932030D01*
X80464951Y-119063058D01*
X80525257Y-119208649D01*
X80556000Y-119363207D01*
X80556000Y-119520793D01*
X80525257Y-119675351D01*
X80464951Y-119820942D01*
X80377401Y-119951970D01*
X80265970Y-120063401D01*
X80134942Y-120150951D01*
X79989351Y-120211257D01*
X79886312Y-120231752D01*
X79834794Y-120242000D01*
X79677206Y-120242000D01*
X79625688Y-120231752D01*
X79522649Y-120211257D01*
X79377058Y-120150951D01*
X79246030Y-120063401D01*
X79134599Y-119951970D01*
X79047049Y-119820942D01*
X78986743Y-119675351D01*
X78956000Y-119520793D01*
X78956000Y-119363207D01*
X78986743Y-119208649D01*
X79047049Y-119063058D01*
X79134599Y-118932030D01*
X79246030Y-118820599D01*
X79377058Y-118733049D01*
X79522649Y-118672743D01*
X79625688Y-118652248D01*
X79677206Y-118642000D01*
X79834794Y-118642000D01*
X79886312Y-118652248D01*
G37*
G36*
X73409312Y-118652248D02*
G01*
X73512351Y-118672743D01*
X73657942Y-118733049D01*
X73788970Y-118820599D01*
X73900401Y-118932030D01*
X73987951Y-119063058D01*
X74048257Y-119208649D01*
X74079000Y-119363207D01*
X74079000Y-119520793D01*
X74048257Y-119675351D01*
X73987951Y-119820942D01*
X73900401Y-119951970D01*
X73788970Y-120063401D01*
X73657942Y-120150951D01*
X73512351Y-120211257D01*
X73409312Y-120231752D01*
X73357794Y-120242000D01*
X73200206Y-120242000D01*
X73148688Y-120231752D01*
X73045649Y-120211257D01*
X72900058Y-120150951D01*
X72769030Y-120063401D01*
X72657599Y-119951970D01*
X72570049Y-119820942D01*
X72509743Y-119675351D01*
X72479000Y-119520793D01*
X72479000Y-119363207D01*
X72509743Y-119208649D01*
X72570049Y-119063058D01*
X72657599Y-118932030D01*
X72769030Y-118820599D01*
X72900058Y-118733049D01*
X73045649Y-118672743D01*
X73148688Y-118652248D01*
X73200206Y-118642000D01*
X73357794Y-118642000D01*
X73409312Y-118652248D01*
G37*
G36*
X178946312Y-118652248D02*
G01*
X179049351Y-118672743D01*
X179194942Y-118733049D01*
X179325970Y-118820599D01*
X179437401Y-118932030D01*
X179524951Y-119063058D01*
X179585257Y-119208649D01*
X179616000Y-119363207D01*
X179616000Y-119520793D01*
X179585257Y-119675351D01*
X179524951Y-119820942D01*
X179437401Y-119951970D01*
X179325970Y-120063401D01*
X179194942Y-120150951D01*
X179049351Y-120211257D01*
X178946312Y-120231752D01*
X178894794Y-120242000D01*
X178737206Y-120242000D01*
X178685688Y-120231752D01*
X178582649Y-120211257D01*
X178437058Y-120150951D01*
X178306030Y-120063401D01*
X178194599Y-119951970D01*
X178107049Y-119820942D01*
X178046743Y-119675351D01*
X178016000Y-119520793D01*
X178016000Y-119363207D01*
X178046743Y-119208649D01*
X178107049Y-119063058D01*
X178194599Y-118932030D01*
X178306030Y-118820599D01*
X178437058Y-118733049D01*
X178582649Y-118672743D01*
X178685688Y-118652248D01*
X178737206Y-118642000D01*
X178894794Y-118642000D01*
X178946312Y-118652248D01*
G37*
G36*
X99698312Y-118652248D02*
G01*
X99801351Y-118672743D01*
X99946942Y-118733049D01*
X100077970Y-118820599D01*
X100189401Y-118932030D01*
X100276951Y-119063058D01*
X100337257Y-119208649D01*
X100368000Y-119363207D01*
X100368000Y-119520793D01*
X100337257Y-119675351D01*
X100276951Y-119820942D01*
X100189401Y-119951970D01*
X100077970Y-120063401D01*
X99946942Y-120150951D01*
X99801351Y-120211257D01*
X99698312Y-120231752D01*
X99646794Y-120242000D01*
X99489206Y-120242000D01*
X99437688Y-120231752D01*
X99334649Y-120211257D01*
X99189058Y-120150951D01*
X99058030Y-120063401D01*
X98946599Y-119951970D01*
X98859049Y-119820942D01*
X98798743Y-119675351D01*
X98768000Y-119520793D01*
X98768000Y-119363207D01*
X98798743Y-119208649D01*
X98859049Y-119063058D01*
X98946599Y-118932030D01*
X99058030Y-118820599D01*
X99189058Y-118733049D01*
X99334649Y-118672743D01*
X99437688Y-118652248D01*
X99489206Y-118642000D01*
X99646794Y-118642000D01*
X99698312Y-118652248D01*
G37*
G36*
X205362312Y-118652248D02*
G01*
X205465351Y-118672743D01*
X205610942Y-118733049D01*
X205741970Y-118820599D01*
X205853401Y-118932030D01*
X205940951Y-119063058D01*
X206001257Y-119208649D01*
X206032000Y-119363207D01*
X206032000Y-119520793D01*
X206001257Y-119675351D01*
X205940951Y-119820942D01*
X205853401Y-119951970D01*
X205741970Y-120063401D01*
X205610942Y-120150951D01*
X205465351Y-120211257D01*
X205362312Y-120231752D01*
X205310794Y-120242000D01*
X205153206Y-120242000D01*
X205101688Y-120231752D01*
X204998649Y-120211257D01*
X204853058Y-120150951D01*
X204722030Y-120063401D01*
X204610599Y-119951970D01*
X204523049Y-119820942D01*
X204462743Y-119675351D01*
X204432000Y-119520793D01*
X204432000Y-119363207D01*
X204462743Y-119208649D01*
X204523049Y-119063058D01*
X204610599Y-118932030D01*
X204722030Y-118820599D01*
X204853058Y-118733049D01*
X204998649Y-118672743D01*
X205101688Y-118652248D01*
X205153206Y-118642000D01*
X205310794Y-118642000D01*
X205362312Y-118652248D01*
G37*
G36*
X218570312Y-118652248D02*
G01*
X218673351Y-118672743D01*
X218818942Y-118733049D01*
X218949970Y-118820599D01*
X219061401Y-118932030D01*
X219148951Y-119063058D01*
X219209257Y-119208649D01*
X219240000Y-119363207D01*
X219240000Y-119520793D01*
X219209257Y-119675351D01*
X219148951Y-119820942D01*
X219061401Y-119951970D01*
X218949970Y-120063401D01*
X218818942Y-120150951D01*
X218673351Y-120211257D01*
X218570312Y-120231752D01*
X218518794Y-120242000D01*
X218361206Y-120242000D01*
X218309688Y-120231752D01*
X218206649Y-120211257D01*
X218061058Y-120150951D01*
X217930030Y-120063401D01*
X217818599Y-119951970D01*
X217731049Y-119820942D01*
X217670743Y-119675351D01*
X217640000Y-119520793D01*
X217640000Y-119363207D01*
X217670743Y-119208649D01*
X217731049Y-119063058D01*
X217818599Y-118932030D01*
X217930030Y-118820599D01*
X218061058Y-118733049D01*
X218206649Y-118672743D01*
X218309688Y-118652248D01*
X218361206Y-118642000D01*
X218518794Y-118642000D01*
X218570312Y-118652248D01*
G37*
G36*
X211966312Y-118652248D02*
G01*
X212069351Y-118672743D01*
X212214942Y-118733049D01*
X212345970Y-118820599D01*
X212457401Y-118932030D01*
X212544951Y-119063058D01*
X212605257Y-119208649D01*
X212636000Y-119363207D01*
X212636000Y-119520793D01*
X212605257Y-119675351D01*
X212544951Y-119820942D01*
X212457401Y-119951970D01*
X212345970Y-120063401D01*
X212214942Y-120150951D01*
X212069351Y-120211257D01*
X211966312Y-120231752D01*
X211914794Y-120242000D01*
X211757206Y-120242000D01*
X211705688Y-120231752D01*
X211602649Y-120211257D01*
X211457058Y-120150951D01*
X211326030Y-120063401D01*
X211214599Y-119951970D01*
X211127049Y-119820942D01*
X211066743Y-119675351D01*
X211036000Y-119520793D01*
X211036000Y-119363207D01*
X211066743Y-119208649D01*
X211127049Y-119063058D01*
X211214599Y-118932030D01*
X211326030Y-118820599D01*
X211457058Y-118733049D01*
X211602649Y-118672743D01*
X211705688Y-118652248D01*
X211757206Y-118642000D01*
X211914794Y-118642000D01*
X211966312Y-118652248D01*
G37*
G36*
X198758312Y-118652248D02*
G01*
X198861351Y-118672743D01*
X199006942Y-118733049D01*
X199137970Y-118820599D01*
X199249401Y-118932030D01*
X199336951Y-119063058D01*
X199397257Y-119208649D01*
X199428000Y-119363207D01*
X199428000Y-119520793D01*
X199397257Y-119675351D01*
X199336951Y-119820942D01*
X199249401Y-119951970D01*
X199137970Y-120063401D01*
X199006942Y-120150951D01*
X198861351Y-120211257D01*
X198758312Y-120231752D01*
X198706794Y-120242000D01*
X198549206Y-120242000D01*
X198497688Y-120231752D01*
X198394649Y-120211257D01*
X198249058Y-120150951D01*
X198118030Y-120063401D01*
X198006599Y-119951970D01*
X197919049Y-119820942D01*
X197858743Y-119675351D01*
X197828000Y-119520793D01*
X197828000Y-119363207D01*
X197858743Y-119208649D01*
X197919049Y-119063058D01*
X198006599Y-118932030D01*
X198118030Y-118820599D01*
X198249058Y-118733049D01*
X198394649Y-118672743D01*
X198497688Y-118652248D01*
X198549206Y-118642000D01*
X198706794Y-118642000D01*
X198758312Y-118652248D01*
G37*
G36*
X185550312Y-118652248D02*
G01*
X185653351Y-118672743D01*
X185798942Y-118733049D01*
X185929970Y-118820599D01*
X186041401Y-118932030D01*
X186128951Y-119063058D01*
X186189257Y-119208649D01*
X186220000Y-119363207D01*
X186220000Y-119520793D01*
X186189257Y-119675351D01*
X186128951Y-119820942D01*
X186041401Y-119951970D01*
X185929970Y-120063401D01*
X185798942Y-120150951D01*
X185653351Y-120211257D01*
X185550312Y-120231752D01*
X185498794Y-120242000D01*
X185341206Y-120242000D01*
X185289688Y-120231752D01*
X185186649Y-120211257D01*
X185041058Y-120150951D01*
X184910030Y-120063401D01*
X184798599Y-119951970D01*
X184711049Y-119820942D01*
X184650743Y-119675351D01*
X184620000Y-119520793D01*
X184620000Y-119363207D01*
X184650743Y-119208649D01*
X184711049Y-119063058D01*
X184798599Y-118932030D01*
X184910030Y-118820599D01*
X185041058Y-118733049D01*
X185186649Y-118672743D01*
X185289688Y-118652248D01*
X185341206Y-118642000D01*
X185498794Y-118642000D01*
X185550312Y-118652248D01*
G37*
G36*
X172342312Y-118652248D02*
G01*
X172445351Y-118672743D01*
X172590942Y-118733049D01*
X172721970Y-118820599D01*
X172833401Y-118932030D01*
X172920951Y-119063058D01*
X172981257Y-119208649D01*
X173012000Y-119363207D01*
X173012000Y-119520793D01*
X172981257Y-119675351D01*
X172920951Y-119820942D01*
X172833401Y-119951970D01*
X172721970Y-120063401D01*
X172590942Y-120150951D01*
X172445351Y-120211257D01*
X172342312Y-120231752D01*
X172290794Y-120242000D01*
X172133206Y-120242000D01*
X172081688Y-120231752D01*
X171978649Y-120211257D01*
X171833058Y-120150951D01*
X171702030Y-120063401D01*
X171590599Y-119951970D01*
X171503049Y-119820942D01*
X171442743Y-119675351D01*
X171412000Y-119520793D01*
X171412000Y-119363207D01*
X171442743Y-119208649D01*
X171503049Y-119063058D01*
X171590599Y-118932030D01*
X171702030Y-118820599D01*
X171833058Y-118733049D01*
X171978649Y-118672743D01*
X172081688Y-118652248D01*
X172133206Y-118642000D01*
X172290794Y-118642000D01*
X172342312Y-118652248D01*
G37*
G36*
X165738312Y-118652248D02*
G01*
X165841351Y-118672743D01*
X165986942Y-118733049D01*
X166117970Y-118820599D01*
X166229401Y-118932030D01*
X166316951Y-119063058D01*
X166377257Y-119208649D01*
X166408000Y-119363207D01*
X166408000Y-119520793D01*
X166377257Y-119675351D01*
X166316951Y-119820942D01*
X166229401Y-119951970D01*
X166117970Y-120063401D01*
X165986942Y-120150951D01*
X165841351Y-120211257D01*
X165738312Y-120231752D01*
X165686794Y-120242000D01*
X165529206Y-120242000D01*
X165477688Y-120231752D01*
X165374649Y-120211257D01*
X165229058Y-120150951D01*
X165098030Y-120063401D01*
X164986599Y-119951970D01*
X164899049Y-119820942D01*
X164838743Y-119675351D01*
X164808000Y-119520793D01*
X164808000Y-119363207D01*
X164838743Y-119208649D01*
X164899049Y-119063058D01*
X164986599Y-118932030D01*
X165098030Y-118820599D01*
X165229058Y-118733049D01*
X165374649Y-118672743D01*
X165477688Y-118652248D01*
X165529206Y-118642000D01*
X165686794Y-118642000D01*
X165738312Y-118652248D01*
G37*
G36*
X159134312Y-118652248D02*
G01*
X159237351Y-118672743D01*
X159382942Y-118733049D01*
X159513970Y-118820599D01*
X159625401Y-118932030D01*
X159712951Y-119063058D01*
X159773257Y-119208649D01*
X159804000Y-119363207D01*
X159804000Y-119520793D01*
X159773257Y-119675351D01*
X159712951Y-119820942D01*
X159625401Y-119951970D01*
X159513970Y-120063401D01*
X159382942Y-120150951D01*
X159237351Y-120211257D01*
X159134312Y-120231752D01*
X159082794Y-120242000D01*
X158925206Y-120242000D01*
X158873688Y-120231752D01*
X158770649Y-120211257D01*
X158625058Y-120150951D01*
X158494030Y-120063401D01*
X158382599Y-119951970D01*
X158295049Y-119820942D01*
X158234743Y-119675351D01*
X158204000Y-119520793D01*
X158204000Y-119363207D01*
X158234743Y-119208649D01*
X158295049Y-119063058D01*
X158382599Y-118932030D01*
X158494030Y-118820599D01*
X158625058Y-118733049D01*
X158770649Y-118672743D01*
X158873688Y-118652248D01*
X158925206Y-118642000D01*
X159082794Y-118642000D01*
X159134312Y-118652248D01*
G37*
G36*
X152530312Y-118652248D02*
G01*
X152633351Y-118672743D01*
X152778942Y-118733049D01*
X152909970Y-118820599D01*
X153021401Y-118932030D01*
X153108951Y-119063058D01*
X153169257Y-119208649D01*
X153200000Y-119363207D01*
X153200000Y-119520793D01*
X153169257Y-119675351D01*
X153108951Y-119820942D01*
X153021401Y-119951970D01*
X152909970Y-120063401D01*
X152778942Y-120150951D01*
X152633351Y-120211257D01*
X152530312Y-120231752D01*
X152478794Y-120242000D01*
X152321206Y-120242000D01*
X152269688Y-120231752D01*
X152166649Y-120211257D01*
X152021058Y-120150951D01*
X151890030Y-120063401D01*
X151778599Y-119951970D01*
X151691049Y-119820942D01*
X151630743Y-119675351D01*
X151600000Y-119520793D01*
X151600000Y-119363207D01*
X151630743Y-119208649D01*
X151691049Y-119063058D01*
X151778599Y-118932030D01*
X151890030Y-118820599D01*
X152021058Y-118733049D01*
X152166649Y-118672743D01*
X152269688Y-118652248D01*
X152321206Y-118642000D01*
X152478794Y-118642000D01*
X152530312Y-118652248D01*
G37*
G36*
X225174312Y-118652248D02*
G01*
X225277351Y-118672743D01*
X225422942Y-118733049D01*
X225553970Y-118820599D01*
X225665401Y-118932030D01*
X225752951Y-119063058D01*
X225813257Y-119208649D01*
X225844000Y-119363207D01*
X225844000Y-119520793D01*
X225813257Y-119675351D01*
X225752951Y-119820942D01*
X225665401Y-119951970D01*
X225553970Y-120063401D01*
X225422942Y-120150951D01*
X225277351Y-120211257D01*
X225174312Y-120231752D01*
X225122794Y-120242000D01*
X224965206Y-120242000D01*
X224913688Y-120231752D01*
X224810649Y-120211257D01*
X224665058Y-120150951D01*
X224534030Y-120063401D01*
X224422599Y-119951970D01*
X224335049Y-119820942D01*
X224274743Y-119675351D01*
X224244000Y-119520793D01*
X224244000Y-119363207D01*
X224274743Y-119208649D01*
X224335049Y-119063058D01*
X224422599Y-118932030D01*
X224534030Y-118820599D01*
X224665058Y-118733049D01*
X224810649Y-118672743D01*
X224913688Y-118652248D01*
X224965206Y-118642000D01*
X225122794Y-118642000D01*
X225174312Y-118652248D01*
G37*
G36*
X145926312Y-118652248D02*
G01*
X146029351Y-118672743D01*
X146174942Y-118733049D01*
X146305970Y-118820599D01*
X146417401Y-118932030D01*
X146504951Y-119063058D01*
X146565257Y-119208649D01*
X146596000Y-119363207D01*
X146596000Y-119520793D01*
X146565257Y-119675351D01*
X146504951Y-119820942D01*
X146417401Y-119951970D01*
X146305970Y-120063401D01*
X146174942Y-120150951D01*
X146029351Y-120211257D01*
X145926312Y-120231752D01*
X145874794Y-120242000D01*
X145717206Y-120242000D01*
X145665688Y-120231752D01*
X145562649Y-120211257D01*
X145417058Y-120150951D01*
X145286030Y-120063401D01*
X145174599Y-119951970D01*
X145087049Y-119820942D01*
X145026743Y-119675351D01*
X144996000Y-119520793D01*
X144996000Y-119363207D01*
X145026743Y-119208649D01*
X145087049Y-119063058D01*
X145174599Y-118932030D01*
X145286030Y-118820599D01*
X145417058Y-118733049D01*
X145562649Y-118672743D01*
X145665688Y-118652248D01*
X145717206Y-118642000D01*
X145874794Y-118642000D01*
X145926312Y-118652248D01*
G37*
G36*
X139322312Y-118652248D02*
G01*
X139425351Y-118672743D01*
X139570942Y-118733049D01*
X139701970Y-118820599D01*
X139813401Y-118932030D01*
X139900951Y-119063058D01*
X139961257Y-119208649D01*
X139992000Y-119363207D01*
X139992000Y-119520793D01*
X139961257Y-119675351D01*
X139900951Y-119820942D01*
X139813401Y-119951970D01*
X139701970Y-120063401D01*
X139570942Y-120150951D01*
X139425351Y-120211257D01*
X139322312Y-120231752D01*
X139270794Y-120242000D01*
X139113206Y-120242000D01*
X139061688Y-120231752D01*
X138958649Y-120211257D01*
X138813058Y-120150951D01*
X138682030Y-120063401D01*
X138570599Y-119951970D01*
X138483049Y-119820942D01*
X138422743Y-119675351D01*
X138392000Y-119520793D01*
X138392000Y-119363207D01*
X138422743Y-119208649D01*
X138483049Y-119063058D01*
X138570599Y-118932030D01*
X138682030Y-118820599D01*
X138813058Y-118733049D01*
X138958649Y-118672743D01*
X139061688Y-118652248D01*
X139113206Y-118642000D01*
X139270794Y-118642000D01*
X139322312Y-118652248D01*
G37*
G36*
X66593936Y-117864665D02*
G01*
X66748626Y-117928739D01*
X66818076Y-117975145D01*
X66887844Y-118021762D01*
X67006238Y-118140156D01*
X67052855Y-118209924D01*
X67099261Y-118279374D01*
X67163335Y-118434064D01*
X67196000Y-118598282D01*
X67196000Y-118765718D01*
X67163335Y-118929936D01*
X67099261Y-119084626D01*
X67052855Y-119154076D01*
X67006238Y-119223844D01*
X66887844Y-119342238D01*
X66818076Y-119388855D01*
X66748626Y-119435261D01*
X66593936Y-119499335D01*
X66429718Y-119532000D01*
X66262282Y-119532000D01*
X66098064Y-119499335D01*
X65943374Y-119435261D01*
X65873924Y-119388855D01*
X65804156Y-119342238D01*
X65685762Y-119223844D01*
X65639145Y-119154076D01*
X65592739Y-119084626D01*
X65528665Y-118929936D01*
X65496000Y-118765718D01*
X65496000Y-118598282D01*
X65528665Y-118434064D01*
X65592739Y-118279374D01*
X65639145Y-118209924D01*
X65685762Y-118140156D01*
X65804156Y-118021762D01*
X65873924Y-117975145D01*
X65943374Y-117928739D01*
X66098064Y-117864665D01*
X66262282Y-117832000D01*
X66429718Y-117832000D01*
X66593936Y-117864665D01*
G37*
G36*
X67196000Y-116992000D02*
G01*
X65496000Y-116992000D01*
X65496000Y-115292000D01*
X67196000Y-115292000D01*
X67196000Y-116992000D01*
G37*
G36*
X66666856Y-111224272D02*
G01*
X66867047Y-111307193D01*
X67047207Y-111427573D01*
X67200427Y-111580793D01*
X67320807Y-111760953D01*
X67403728Y-111961144D01*
X67446000Y-112173658D01*
X67446000Y-112390342D01*
X67403728Y-112602856D01*
X67320807Y-112803047D01*
X67200427Y-112983207D01*
X67047207Y-113136427D01*
X66867047Y-113256807D01*
X66666856Y-113339728D01*
X66454342Y-113382000D01*
X66237658Y-113382000D01*
X66025144Y-113339728D01*
X65824953Y-113256807D01*
X65644793Y-113136427D01*
X65491573Y-112983207D01*
X65371193Y-112803047D01*
X65288272Y-112602856D01*
X65246000Y-112390342D01*
X65246000Y-112173658D01*
X65288272Y-111961144D01*
X65371193Y-111760953D01*
X65491573Y-111580793D01*
X65644793Y-111427573D01*
X65824953Y-111307193D01*
X66025144Y-111224272D01*
X66237658Y-111182000D01*
X66454342Y-111182000D01*
X66666856Y-111224272D01*
G37*
G36*
X172342312Y-108492248D02*
G01*
X172445351Y-108512743D01*
X172590942Y-108573049D01*
X172721970Y-108660599D01*
X172833401Y-108772030D01*
X172920951Y-108903058D01*
X172981257Y-109048649D01*
X173012000Y-109203207D01*
X173012000Y-109360793D01*
X172981257Y-109515351D01*
X172920951Y-109660942D01*
X172833401Y-109791970D01*
X172721970Y-109903401D01*
X172590942Y-109990951D01*
X172445351Y-110051257D01*
X172342312Y-110071752D01*
X172290794Y-110082000D01*
X172133206Y-110082000D01*
X172081688Y-110071752D01*
X171978649Y-110051257D01*
X171833058Y-109990951D01*
X171702030Y-109903401D01*
X171590599Y-109791970D01*
X171503049Y-109660942D01*
X171442743Y-109515351D01*
X171412000Y-109360793D01*
X171412000Y-109203207D01*
X171442743Y-109048649D01*
X171503049Y-108903058D01*
X171590599Y-108772030D01*
X171702030Y-108660599D01*
X171833058Y-108573049D01*
X171978649Y-108512743D01*
X172081688Y-108492248D01*
X172133206Y-108482000D01*
X172290794Y-108482000D01*
X172342312Y-108492248D01*
G37*
G36*
X165738312Y-108492248D02*
G01*
X165841351Y-108512743D01*
X165986942Y-108573049D01*
X166117970Y-108660599D01*
X166229401Y-108772030D01*
X166316951Y-108903058D01*
X166377257Y-109048649D01*
X166408000Y-109203207D01*
X166408000Y-109360793D01*
X166377257Y-109515351D01*
X166316951Y-109660942D01*
X166229401Y-109791970D01*
X166117970Y-109903401D01*
X165986942Y-109990951D01*
X165841351Y-110051257D01*
X165738312Y-110071752D01*
X165686794Y-110082000D01*
X165529206Y-110082000D01*
X165477688Y-110071752D01*
X165374649Y-110051257D01*
X165229058Y-109990951D01*
X165098030Y-109903401D01*
X164986599Y-109791970D01*
X164899049Y-109660942D01*
X164838743Y-109515351D01*
X164808000Y-109360793D01*
X164808000Y-109203207D01*
X164838743Y-109048649D01*
X164899049Y-108903058D01*
X164986599Y-108772030D01*
X165098030Y-108660599D01*
X165229058Y-108573049D01*
X165374649Y-108512743D01*
X165477688Y-108492248D01*
X165529206Y-108482000D01*
X165686794Y-108482000D01*
X165738312Y-108492248D01*
G37*
G36*
X159134312Y-108492248D02*
G01*
X159237351Y-108512743D01*
X159382942Y-108573049D01*
X159513970Y-108660599D01*
X159625401Y-108772030D01*
X159712951Y-108903058D01*
X159773257Y-109048649D01*
X159804000Y-109203207D01*
X159804000Y-109360793D01*
X159773257Y-109515351D01*
X159712951Y-109660942D01*
X159625401Y-109791970D01*
X159513970Y-109903401D01*
X159382942Y-109990951D01*
X159237351Y-110051257D01*
X159134312Y-110071752D01*
X159082794Y-110082000D01*
X158925206Y-110082000D01*
X158873688Y-110071752D01*
X158770649Y-110051257D01*
X158625058Y-109990951D01*
X158494030Y-109903401D01*
X158382599Y-109791970D01*
X158295049Y-109660942D01*
X158234743Y-109515351D01*
X158204000Y-109360793D01*
X158204000Y-109203207D01*
X158234743Y-109048649D01*
X158295049Y-108903058D01*
X158382599Y-108772030D01*
X158494030Y-108660599D01*
X158625058Y-108573049D01*
X158770649Y-108512743D01*
X158873688Y-108492248D01*
X158925206Y-108482000D01*
X159082794Y-108482000D01*
X159134312Y-108492248D01*
G37*
G36*
X152530312Y-108492248D02*
G01*
X152633351Y-108512743D01*
X152778942Y-108573049D01*
X152909970Y-108660599D01*
X153021401Y-108772030D01*
X153108951Y-108903058D01*
X153169257Y-109048649D01*
X153200000Y-109203207D01*
X153200000Y-109360793D01*
X153169257Y-109515351D01*
X153108951Y-109660942D01*
X153021401Y-109791970D01*
X152909970Y-109903401D01*
X152778942Y-109990951D01*
X152633351Y-110051257D01*
X152530312Y-110071752D01*
X152478794Y-110082000D01*
X152321206Y-110082000D01*
X152269688Y-110071752D01*
X152166649Y-110051257D01*
X152021058Y-109990951D01*
X151890030Y-109903401D01*
X151778599Y-109791970D01*
X151691049Y-109660942D01*
X151630743Y-109515351D01*
X151600000Y-109360793D01*
X151600000Y-109203207D01*
X151630743Y-109048649D01*
X151691049Y-108903058D01*
X151778599Y-108772030D01*
X151890030Y-108660599D01*
X152021058Y-108573049D01*
X152166649Y-108512743D01*
X152269688Y-108492248D01*
X152321206Y-108482000D01*
X152478794Y-108482000D01*
X152530312Y-108492248D01*
G37*
G36*
X139322312Y-108492248D02*
G01*
X139425351Y-108512743D01*
X139570942Y-108573049D01*
X139701970Y-108660599D01*
X139813401Y-108772030D01*
X139900951Y-108903058D01*
X139961257Y-109048649D01*
X139992000Y-109203207D01*
X139992000Y-109360793D01*
X139961257Y-109515351D01*
X139900951Y-109660942D01*
X139813401Y-109791970D01*
X139701970Y-109903401D01*
X139570942Y-109990951D01*
X139425351Y-110051257D01*
X139322312Y-110071752D01*
X139270794Y-110082000D01*
X139113206Y-110082000D01*
X139061688Y-110071752D01*
X138958649Y-110051257D01*
X138813058Y-109990951D01*
X138682030Y-109903401D01*
X138570599Y-109791970D01*
X138483049Y-109660942D01*
X138422743Y-109515351D01*
X138392000Y-109360793D01*
X138392000Y-109203207D01*
X138422743Y-109048649D01*
X138483049Y-108903058D01*
X138570599Y-108772030D01*
X138682030Y-108660599D01*
X138813058Y-108573049D01*
X138958649Y-108512743D01*
X139061688Y-108492248D01*
X139113206Y-108482000D01*
X139270794Y-108482000D01*
X139322312Y-108492248D01*
G37*
G36*
X132718312Y-108492248D02*
G01*
X132821351Y-108512743D01*
X132966942Y-108573049D01*
X133097970Y-108660599D01*
X133209401Y-108772030D01*
X133296951Y-108903058D01*
X133357257Y-109048649D01*
X133388000Y-109203207D01*
X133388000Y-109360793D01*
X133357257Y-109515351D01*
X133296951Y-109660942D01*
X133209401Y-109791970D01*
X133097970Y-109903401D01*
X132966942Y-109990951D01*
X132821351Y-110051257D01*
X132718312Y-110071752D01*
X132666794Y-110082000D01*
X132509206Y-110082000D01*
X132457688Y-110071752D01*
X132354649Y-110051257D01*
X132209058Y-109990951D01*
X132078030Y-109903401D01*
X131966599Y-109791970D01*
X131879049Y-109660942D01*
X131818743Y-109515351D01*
X131788000Y-109360793D01*
X131788000Y-109203207D01*
X131818743Y-109048649D01*
X131879049Y-108903058D01*
X131966599Y-108772030D01*
X132078030Y-108660599D01*
X132209058Y-108573049D01*
X132354649Y-108512743D01*
X132457688Y-108492248D01*
X132509206Y-108482000D01*
X132666794Y-108482000D01*
X132718312Y-108492248D01*
G37*
G36*
X185550312Y-108492248D02*
G01*
X185653351Y-108512743D01*
X185798942Y-108573049D01*
X185929970Y-108660599D01*
X186041401Y-108772030D01*
X186128951Y-108903058D01*
X186189257Y-109048649D01*
X186220000Y-109203207D01*
X186220000Y-109360793D01*
X186189257Y-109515351D01*
X186128951Y-109660942D01*
X186041401Y-109791970D01*
X185929970Y-109903401D01*
X185798942Y-109990951D01*
X185653351Y-110051257D01*
X185550312Y-110071752D01*
X185498794Y-110082000D01*
X185341206Y-110082000D01*
X185289688Y-110071752D01*
X185186649Y-110051257D01*
X185041058Y-109990951D01*
X184910030Y-109903401D01*
X184798599Y-109791970D01*
X184711049Y-109660942D01*
X184650743Y-109515351D01*
X184620000Y-109360793D01*
X184620000Y-109203207D01*
X184650743Y-109048649D01*
X184711049Y-108903058D01*
X184798599Y-108772030D01*
X184910030Y-108660599D01*
X185041058Y-108573049D01*
X185186649Y-108512743D01*
X185289688Y-108492248D01*
X185341206Y-108482000D01*
X185498794Y-108482000D01*
X185550312Y-108492248D01*
G37*
G36*
X145926312Y-108492248D02*
G01*
X146029351Y-108512743D01*
X146174942Y-108573049D01*
X146305970Y-108660599D01*
X146417401Y-108772030D01*
X146504951Y-108903058D01*
X146565257Y-109048649D01*
X146596000Y-109203207D01*
X146596000Y-109360793D01*
X146565257Y-109515351D01*
X146504951Y-109660942D01*
X146417401Y-109791970D01*
X146305970Y-109903401D01*
X146174942Y-109990951D01*
X146029351Y-110051257D01*
X145926312Y-110071752D01*
X145874794Y-110082000D01*
X145717206Y-110082000D01*
X145665688Y-110071752D01*
X145562649Y-110051257D01*
X145417058Y-109990951D01*
X145286030Y-109903401D01*
X145174599Y-109791970D01*
X145087049Y-109660942D01*
X145026743Y-109515351D01*
X144996000Y-109360793D01*
X144996000Y-109203207D01*
X145026743Y-109048649D01*
X145087049Y-108903058D01*
X145174599Y-108772030D01*
X145286030Y-108660599D01*
X145417058Y-108573049D01*
X145562649Y-108512743D01*
X145665688Y-108492248D01*
X145717206Y-108482000D01*
X145874794Y-108482000D01*
X145926312Y-108492248D01*
G37*
G36*
X112906312Y-108492248D02*
G01*
X113009351Y-108512743D01*
X113154942Y-108573049D01*
X113285970Y-108660599D01*
X113397401Y-108772030D01*
X113484951Y-108903058D01*
X113545257Y-109048649D01*
X113576000Y-109203207D01*
X113576000Y-109360793D01*
X113545257Y-109515351D01*
X113484951Y-109660942D01*
X113397401Y-109791970D01*
X113285970Y-109903401D01*
X113154942Y-109990951D01*
X113009351Y-110051257D01*
X112906312Y-110071752D01*
X112854794Y-110082000D01*
X112697206Y-110082000D01*
X112645688Y-110071752D01*
X112542649Y-110051257D01*
X112397058Y-109990951D01*
X112266030Y-109903401D01*
X112154599Y-109791970D01*
X112067049Y-109660942D01*
X112006743Y-109515351D01*
X111976000Y-109360793D01*
X111976000Y-109203207D01*
X112006743Y-109048649D01*
X112067049Y-108903058D01*
X112154599Y-108772030D01*
X112266030Y-108660599D01*
X112397058Y-108573049D01*
X112542649Y-108512743D01*
X112645688Y-108492248D01*
X112697206Y-108482000D01*
X112854794Y-108482000D01*
X112906312Y-108492248D01*
G37*
G36*
X106302312Y-108492248D02*
G01*
X106405351Y-108512743D01*
X106550942Y-108573049D01*
X106681970Y-108660599D01*
X106793401Y-108772030D01*
X106880951Y-108903058D01*
X106941257Y-109048649D01*
X106972000Y-109203207D01*
X106972000Y-109360793D01*
X106941257Y-109515351D01*
X106880951Y-109660942D01*
X106793401Y-109791970D01*
X106681970Y-109903401D01*
X106550942Y-109990951D01*
X106405351Y-110051257D01*
X106302312Y-110071752D01*
X106250794Y-110082000D01*
X106093206Y-110082000D01*
X106041688Y-110071752D01*
X105938649Y-110051257D01*
X105793058Y-109990951D01*
X105662030Y-109903401D01*
X105550599Y-109791970D01*
X105463049Y-109660942D01*
X105402743Y-109515351D01*
X105372000Y-109360793D01*
X105372000Y-109203207D01*
X105402743Y-109048649D01*
X105463049Y-108903058D01*
X105550599Y-108772030D01*
X105662030Y-108660599D01*
X105793058Y-108573049D01*
X105938649Y-108512743D01*
X106041688Y-108492248D01*
X106093206Y-108482000D01*
X106250794Y-108482000D01*
X106302312Y-108492248D01*
G37*
G36*
X99698312Y-108492248D02*
G01*
X99801351Y-108512743D01*
X99946942Y-108573049D01*
X100077970Y-108660599D01*
X100189401Y-108772030D01*
X100276951Y-108903058D01*
X100337257Y-109048649D01*
X100368000Y-109203207D01*
X100368000Y-109360793D01*
X100337257Y-109515351D01*
X100276951Y-109660942D01*
X100189401Y-109791970D01*
X100077970Y-109903401D01*
X99946942Y-109990951D01*
X99801351Y-110051257D01*
X99698312Y-110071752D01*
X99646794Y-110082000D01*
X99489206Y-110082000D01*
X99437688Y-110071752D01*
X99334649Y-110051257D01*
X99189058Y-109990951D01*
X99058030Y-109903401D01*
X98946599Y-109791970D01*
X98859049Y-109660942D01*
X98798743Y-109515351D01*
X98768000Y-109360793D01*
X98768000Y-109203207D01*
X98798743Y-109048649D01*
X98859049Y-108903058D01*
X98946599Y-108772030D01*
X99058030Y-108660599D01*
X99189058Y-108573049D01*
X99334649Y-108512743D01*
X99437688Y-108492248D01*
X99489206Y-108482000D01*
X99646794Y-108482000D01*
X99698312Y-108492248D01*
G37*
G36*
X178946312Y-108492248D02*
G01*
X179049351Y-108512743D01*
X179194942Y-108573049D01*
X179325970Y-108660599D01*
X179437401Y-108772030D01*
X179524951Y-108903058D01*
X179585257Y-109048649D01*
X179616000Y-109203207D01*
X179616000Y-109360793D01*
X179585257Y-109515351D01*
X179524951Y-109660942D01*
X179437401Y-109791970D01*
X179325970Y-109903401D01*
X179194942Y-109990951D01*
X179049351Y-110051257D01*
X178946312Y-110071752D01*
X178894794Y-110082000D01*
X178737206Y-110082000D01*
X178685688Y-110071752D01*
X178582649Y-110051257D01*
X178437058Y-109990951D01*
X178306030Y-109903401D01*
X178194599Y-109791970D01*
X178107049Y-109660942D01*
X178046743Y-109515351D01*
X178016000Y-109360793D01*
X178016000Y-109203207D01*
X178046743Y-109048649D01*
X178107049Y-108903058D01*
X178194599Y-108772030D01*
X178306030Y-108660599D01*
X178437058Y-108573049D01*
X178582649Y-108512743D01*
X178685688Y-108492248D01*
X178737206Y-108482000D01*
X178894794Y-108482000D01*
X178946312Y-108492248D01*
G37*
G36*
X192027312Y-108492248D02*
G01*
X192130351Y-108512743D01*
X192275942Y-108573049D01*
X192406970Y-108660599D01*
X192518401Y-108772030D01*
X192605951Y-108903058D01*
X192666257Y-109048649D01*
X192697000Y-109203207D01*
X192697000Y-109360793D01*
X192666257Y-109515351D01*
X192605951Y-109660942D01*
X192518401Y-109791970D01*
X192406970Y-109903401D01*
X192275942Y-109990951D01*
X192130351Y-110051257D01*
X192027312Y-110071752D01*
X191975794Y-110082000D01*
X191818206Y-110082000D01*
X191766688Y-110071752D01*
X191663649Y-110051257D01*
X191518058Y-109990951D01*
X191387030Y-109903401D01*
X191275599Y-109791970D01*
X191188049Y-109660942D01*
X191127743Y-109515351D01*
X191097000Y-109360793D01*
X191097000Y-109203207D01*
X191127743Y-109048649D01*
X191188049Y-108903058D01*
X191275599Y-108772030D01*
X191387030Y-108660599D01*
X191518058Y-108573049D01*
X191663649Y-108512743D01*
X191766688Y-108492248D01*
X191818206Y-108482000D01*
X191975794Y-108482000D01*
X192027312Y-108492248D01*
G37*
G36*
X126114312Y-108492248D02*
G01*
X126217351Y-108512743D01*
X126362942Y-108573049D01*
X126493970Y-108660599D01*
X126605401Y-108772030D01*
X126692951Y-108903058D01*
X126753257Y-109048649D01*
X126784000Y-109203207D01*
X126784000Y-109360793D01*
X126753257Y-109515351D01*
X126692951Y-109660942D01*
X126605401Y-109791970D01*
X126493970Y-109903401D01*
X126362942Y-109990951D01*
X126217351Y-110051257D01*
X126114312Y-110071752D01*
X126062794Y-110082000D01*
X125905206Y-110082000D01*
X125853688Y-110071752D01*
X125750649Y-110051257D01*
X125605058Y-109990951D01*
X125474030Y-109903401D01*
X125362599Y-109791970D01*
X125275049Y-109660942D01*
X125214743Y-109515351D01*
X125184000Y-109360793D01*
X125184000Y-109203207D01*
X125214743Y-109048649D01*
X125275049Y-108903058D01*
X125362599Y-108772030D01*
X125474030Y-108660599D01*
X125605058Y-108573049D01*
X125750649Y-108512743D01*
X125853688Y-108492248D01*
X125905206Y-108482000D01*
X126062794Y-108482000D01*
X126114312Y-108492248D01*
G37*
G36*
X93348312Y-108492248D02*
G01*
X93451351Y-108512743D01*
X93596942Y-108573049D01*
X93727970Y-108660599D01*
X93839401Y-108772030D01*
X93926951Y-108903058D01*
X93987257Y-109048649D01*
X94018000Y-109203207D01*
X94018000Y-109360793D01*
X93987257Y-109515351D01*
X93926951Y-109660942D01*
X93839401Y-109791970D01*
X93727970Y-109903401D01*
X93596942Y-109990951D01*
X93451351Y-110051257D01*
X93348312Y-110071752D01*
X93296794Y-110082000D01*
X93139206Y-110082000D01*
X93087688Y-110071752D01*
X92984649Y-110051257D01*
X92839058Y-109990951D01*
X92708030Y-109903401D01*
X92596599Y-109791970D01*
X92509049Y-109660942D01*
X92448743Y-109515351D01*
X92418000Y-109360793D01*
X92418000Y-109203207D01*
X92448743Y-109048649D01*
X92509049Y-108903058D01*
X92596599Y-108772030D01*
X92708030Y-108660599D01*
X92839058Y-108573049D01*
X92984649Y-108512743D01*
X93087688Y-108492248D01*
X93139206Y-108482000D01*
X93296794Y-108482000D01*
X93348312Y-108492248D01*
G37*
G36*
X225174312Y-108492248D02*
G01*
X225277351Y-108512743D01*
X225422942Y-108573049D01*
X225553970Y-108660599D01*
X225665401Y-108772030D01*
X225752951Y-108903058D01*
X225813257Y-109048649D01*
X225844000Y-109203207D01*
X225844000Y-109360793D01*
X225813257Y-109515351D01*
X225752951Y-109660942D01*
X225665401Y-109791970D01*
X225553970Y-109903401D01*
X225422942Y-109990951D01*
X225277351Y-110051257D01*
X225174312Y-110071752D01*
X225122794Y-110082000D01*
X224965206Y-110082000D01*
X224913688Y-110071752D01*
X224810649Y-110051257D01*
X224665058Y-109990951D01*
X224534030Y-109903401D01*
X224422599Y-109791970D01*
X224335049Y-109660942D01*
X224274743Y-109515351D01*
X224244000Y-109360793D01*
X224244000Y-109203207D01*
X224274743Y-109048649D01*
X224335049Y-108903058D01*
X224422599Y-108772030D01*
X224534030Y-108660599D01*
X224665058Y-108573049D01*
X224810649Y-108512743D01*
X224913688Y-108492248D01*
X224965206Y-108482000D01*
X225122794Y-108482000D01*
X225174312Y-108492248D01*
G37*
G36*
X86617312Y-108492248D02*
G01*
X86720351Y-108512743D01*
X86865942Y-108573049D01*
X86996970Y-108660599D01*
X87108401Y-108772030D01*
X87195951Y-108903058D01*
X87256257Y-109048649D01*
X87287000Y-109203207D01*
X87287000Y-109360793D01*
X87256257Y-109515351D01*
X87195951Y-109660942D01*
X87108401Y-109791970D01*
X86996970Y-109903401D01*
X86865942Y-109990951D01*
X86720351Y-110051257D01*
X86617312Y-110071752D01*
X86565794Y-110082000D01*
X86408206Y-110082000D01*
X86356688Y-110071752D01*
X86253649Y-110051257D01*
X86108058Y-109990951D01*
X85977030Y-109903401D01*
X85865599Y-109791970D01*
X85778049Y-109660942D01*
X85717743Y-109515351D01*
X85687000Y-109360793D01*
X85687000Y-109203207D01*
X85717743Y-109048649D01*
X85778049Y-108903058D01*
X85865599Y-108772030D01*
X85977030Y-108660599D01*
X86108058Y-108573049D01*
X86253649Y-108512743D01*
X86356688Y-108492248D01*
X86408206Y-108482000D01*
X86565794Y-108482000D01*
X86617312Y-108492248D01*
G37*
G36*
X79886312Y-108492248D02*
G01*
X79989351Y-108512743D01*
X80134942Y-108573049D01*
X80265970Y-108660599D01*
X80377401Y-108772030D01*
X80464951Y-108903058D01*
X80525257Y-109048649D01*
X80556000Y-109203207D01*
X80556000Y-109360793D01*
X80525257Y-109515351D01*
X80464951Y-109660942D01*
X80377401Y-109791970D01*
X80265970Y-109903401D01*
X80134942Y-109990951D01*
X79989351Y-110051257D01*
X79886312Y-110071752D01*
X79834794Y-110082000D01*
X79677206Y-110082000D01*
X79625688Y-110071752D01*
X79522649Y-110051257D01*
X79377058Y-109990951D01*
X79246030Y-109903401D01*
X79134599Y-109791970D01*
X79047049Y-109660942D01*
X78986743Y-109515351D01*
X78956000Y-109360793D01*
X78956000Y-109203207D01*
X78986743Y-109048649D01*
X79047049Y-108903058D01*
X79134599Y-108772030D01*
X79246030Y-108660599D01*
X79377058Y-108573049D01*
X79522649Y-108512743D01*
X79625688Y-108492248D01*
X79677206Y-108482000D01*
X79834794Y-108482000D01*
X79886312Y-108492248D01*
G37*
G36*
X218570312Y-108492248D02*
G01*
X218673351Y-108512743D01*
X218818942Y-108573049D01*
X218949970Y-108660599D01*
X219061401Y-108772030D01*
X219148951Y-108903058D01*
X219209257Y-109048649D01*
X219240000Y-109203207D01*
X219240000Y-109360793D01*
X219209257Y-109515351D01*
X219148951Y-109660942D01*
X219061401Y-109791970D01*
X218949970Y-109903401D01*
X218818942Y-109990951D01*
X218673351Y-110051257D01*
X218570312Y-110071752D01*
X218518794Y-110082000D01*
X218361206Y-110082000D01*
X218309688Y-110071752D01*
X218206649Y-110051257D01*
X218061058Y-109990951D01*
X217930030Y-109903401D01*
X217818599Y-109791970D01*
X217731049Y-109660942D01*
X217670743Y-109515351D01*
X217640000Y-109360793D01*
X217640000Y-109203207D01*
X217670743Y-109048649D01*
X217731049Y-108903058D01*
X217818599Y-108772030D01*
X217930030Y-108660599D01*
X218061058Y-108573049D01*
X218206649Y-108512743D01*
X218309688Y-108492248D01*
X218361206Y-108482000D01*
X218518794Y-108482000D01*
X218570312Y-108492248D01*
G37*
G36*
X211966312Y-108492248D02*
G01*
X212069351Y-108512743D01*
X212214942Y-108573049D01*
X212345970Y-108660599D01*
X212457401Y-108772030D01*
X212544951Y-108903058D01*
X212605257Y-109048649D01*
X212636000Y-109203207D01*
X212636000Y-109360793D01*
X212605257Y-109515351D01*
X212544951Y-109660942D01*
X212457401Y-109791970D01*
X212345970Y-109903401D01*
X212214942Y-109990951D01*
X212069351Y-110051257D01*
X211966312Y-110071752D01*
X211914794Y-110082000D01*
X211757206Y-110082000D01*
X211705688Y-110071752D01*
X211602649Y-110051257D01*
X211457058Y-109990951D01*
X211326030Y-109903401D01*
X211214599Y-109791970D01*
X211127049Y-109660942D01*
X211066743Y-109515351D01*
X211036000Y-109360793D01*
X211036000Y-109203207D01*
X211066743Y-109048649D01*
X211127049Y-108903058D01*
X211214599Y-108772030D01*
X211326030Y-108660599D01*
X211457058Y-108573049D01*
X211602649Y-108512743D01*
X211705688Y-108492248D01*
X211757206Y-108482000D01*
X211914794Y-108482000D01*
X211966312Y-108492248D01*
G37*
G36*
X73409312Y-108492248D02*
G01*
X73512351Y-108512743D01*
X73657942Y-108573049D01*
X73788970Y-108660599D01*
X73900401Y-108772030D01*
X73987951Y-108903058D01*
X74048257Y-109048649D01*
X74079000Y-109203207D01*
X74079000Y-109360793D01*
X74048257Y-109515351D01*
X73987951Y-109660942D01*
X73900401Y-109791970D01*
X73788970Y-109903401D01*
X73657942Y-109990951D01*
X73512351Y-110051257D01*
X73409312Y-110071752D01*
X73357794Y-110082000D01*
X73200206Y-110082000D01*
X73148688Y-110071752D01*
X73045649Y-110051257D01*
X72900058Y-109990951D01*
X72769030Y-109903401D01*
X72657599Y-109791970D01*
X72570049Y-109660942D01*
X72509743Y-109515351D01*
X72479000Y-109360793D01*
X72479000Y-109203207D01*
X72509743Y-109048649D01*
X72570049Y-108903058D01*
X72657599Y-108772030D01*
X72769030Y-108660599D01*
X72900058Y-108573049D01*
X73045649Y-108512743D01*
X73148688Y-108492248D01*
X73200206Y-108482000D01*
X73357794Y-108482000D01*
X73409312Y-108492248D01*
G37*
G36*
X205362312Y-108492248D02*
G01*
X205465351Y-108512743D01*
X205610942Y-108573049D01*
X205741970Y-108660599D01*
X205853401Y-108772030D01*
X205940951Y-108903058D01*
X206001257Y-109048649D01*
X206032000Y-109203207D01*
X206032000Y-109360793D01*
X206001257Y-109515351D01*
X205940951Y-109660942D01*
X205853401Y-109791970D01*
X205741970Y-109903401D01*
X205610942Y-109990951D01*
X205465351Y-110051257D01*
X205362312Y-110071752D01*
X205310794Y-110082000D01*
X205153206Y-110082000D01*
X205101688Y-110071752D01*
X204998649Y-110051257D01*
X204853058Y-109990951D01*
X204722030Y-109903401D01*
X204610599Y-109791970D01*
X204523049Y-109660942D01*
X204462743Y-109515351D01*
X204432000Y-109360793D01*
X204432000Y-109203207D01*
X204462743Y-109048649D01*
X204523049Y-108903058D01*
X204610599Y-108772030D01*
X204722030Y-108660599D01*
X204853058Y-108573049D01*
X204998649Y-108512743D01*
X205101688Y-108492248D01*
X205153206Y-108482000D01*
X205310794Y-108482000D01*
X205362312Y-108492248D01*
G37*
G36*
X198758312Y-108492248D02*
G01*
X198861351Y-108512743D01*
X199006942Y-108573049D01*
X199137970Y-108660599D01*
X199249401Y-108772030D01*
X199336951Y-108903058D01*
X199397257Y-109048649D01*
X199428000Y-109203207D01*
X199428000Y-109360793D01*
X199397257Y-109515351D01*
X199336951Y-109660942D01*
X199249401Y-109791970D01*
X199137970Y-109903401D01*
X199006942Y-109990951D01*
X198861351Y-110051257D01*
X198758312Y-110071752D01*
X198706794Y-110082000D01*
X198549206Y-110082000D01*
X198497688Y-110071752D01*
X198394649Y-110051257D01*
X198249058Y-109990951D01*
X198118030Y-109903401D01*
X198006599Y-109791970D01*
X197919049Y-109660942D01*
X197858743Y-109515351D01*
X197828000Y-109360793D01*
X197828000Y-109203207D01*
X197858743Y-109048649D01*
X197919049Y-108903058D01*
X198006599Y-108772030D01*
X198118030Y-108660599D01*
X198249058Y-108573049D01*
X198394649Y-108512743D01*
X198497688Y-108492248D01*
X198549206Y-108482000D01*
X198706794Y-108482000D01*
X198758312Y-108492248D01*
G37*
G36*
X119510312Y-108492248D02*
G01*
X119613351Y-108512743D01*
X119758942Y-108573049D01*
X119889970Y-108660599D01*
X120001401Y-108772030D01*
X120088951Y-108903058D01*
X120149257Y-109048649D01*
X120180000Y-109203207D01*
X120180000Y-109360793D01*
X120149257Y-109515351D01*
X120088951Y-109660942D01*
X120001401Y-109791970D01*
X119889970Y-109903401D01*
X119758942Y-109990951D01*
X119613351Y-110051257D01*
X119510312Y-110071752D01*
X119458794Y-110082000D01*
X119301206Y-110082000D01*
X119249688Y-110071752D01*
X119146649Y-110051257D01*
X119001058Y-109990951D01*
X118870030Y-109903401D01*
X118758599Y-109791970D01*
X118671049Y-109660942D01*
X118610743Y-109515351D01*
X118580000Y-109360793D01*
X118580000Y-109203207D01*
X118610743Y-109048649D01*
X118671049Y-108903058D01*
X118758599Y-108772030D01*
X118870030Y-108660599D01*
X119001058Y-108573049D01*
X119146649Y-108512743D01*
X119249688Y-108492248D01*
X119301206Y-108482000D01*
X119458794Y-108482000D01*
X119510312Y-108492248D01*
G37*
G36*
X149609312Y-102969248D02*
G01*
X149712351Y-102989743D01*
X149857942Y-103050049D01*
X149988970Y-103137599D01*
X150100401Y-103249030D01*
X150187951Y-103380058D01*
X150248257Y-103525649D01*
X150279000Y-103680207D01*
X150279000Y-103837793D01*
X150248257Y-103992351D01*
X150187951Y-104137942D01*
X150100401Y-104268970D01*
X149988970Y-104380401D01*
X149857942Y-104467951D01*
X149712351Y-104528257D01*
X149609312Y-104548752D01*
X149557794Y-104559000D01*
X149400206Y-104559000D01*
X149348688Y-104548752D01*
X149245649Y-104528257D01*
X149100058Y-104467951D01*
X148969030Y-104380401D01*
X148857599Y-104268970D01*
X148770049Y-104137942D01*
X148709743Y-103992351D01*
X148679000Y-103837793D01*
X148679000Y-103680207D01*
X148709743Y-103525649D01*
X148770049Y-103380058D01*
X148857599Y-103249030D01*
X148969030Y-103137599D01*
X149100058Y-103050049D01*
X149245649Y-102989743D01*
X149348688Y-102969248D01*
X149400206Y-102959000D01*
X149557794Y-102959000D01*
X149609312Y-102969248D01*
G37*
G36*
X147069312Y-102969248D02*
G01*
X147172351Y-102989743D01*
X147317942Y-103050049D01*
X147448970Y-103137599D01*
X147560401Y-103249030D01*
X147647951Y-103380058D01*
X147708257Y-103525649D01*
X147739000Y-103680207D01*
X147739000Y-103837793D01*
X147708257Y-103992351D01*
X147647951Y-104137942D01*
X147560401Y-104268970D01*
X147448970Y-104380401D01*
X147317942Y-104467951D01*
X147172351Y-104528257D01*
X147069312Y-104548752D01*
X147017794Y-104559000D01*
X146860206Y-104559000D01*
X146808688Y-104548752D01*
X146705649Y-104528257D01*
X146560058Y-104467951D01*
X146429030Y-104380401D01*
X146317599Y-104268970D01*
X146230049Y-104137942D01*
X146169743Y-103992351D01*
X146139000Y-103837793D01*
X146139000Y-103680207D01*
X146169743Y-103525649D01*
X146230049Y-103380058D01*
X146317599Y-103249030D01*
X146429030Y-103137599D01*
X146560058Y-103050049D01*
X146705649Y-102989743D01*
X146808688Y-102969248D01*
X146860206Y-102959000D01*
X147017794Y-102959000D01*
X147069312Y-102969248D01*
G37*
G36*
X142659000Y-104559000D02*
G01*
X141059000Y-104559000D01*
X141059000Y-102959000D01*
X142659000Y-102959000D01*
X142659000Y-104559000D01*
G37*
G36*
X107572312Y-102969248D02*
G01*
X107675351Y-102989743D01*
X107820942Y-103050049D01*
X107951970Y-103137599D01*
X108063401Y-103249030D01*
X108150951Y-103380058D01*
X108211257Y-103525649D01*
X108242000Y-103680207D01*
X108242000Y-103837793D01*
X108211257Y-103992351D01*
X108150951Y-104137942D01*
X108063401Y-104268970D01*
X107951970Y-104380401D01*
X107820942Y-104467951D01*
X107675351Y-104528257D01*
X107572312Y-104548752D01*
X107520794Y-104559000D01*
X107363206Y-104559000D01*
X107311688Y-104548752D01*
X107208649Y-104528257D01*
X107063058Y-104467951D01*
X106932030Y-104380401D01*
X106820599Y-104268970D01*
X106733049Y-104137942D01*
X106672743Y-103992351D01*
X106642000Y-103837793D01*
X106642000Y-103680207D01*
X106672743Y-103525649D01*
X106733049Y-103380058D01*
X106820599Y-103249030D01*
X106932030Y-103137599D01*
X107063058Y-103050049D01*
X107208649Y-102989743D01*
X107311688Y-102969248D01*
X107363206Y-102959000D01*
X107520794Y-102959000D01*
X107572312Y-102969248D01*
G37*
G36*
X105032312Y-102969248D02*
G01*
X105135351Y-102989743D01*
X105280942Y-103050049D01*
X105411970Y-103137599D01*
X105523401Y-103249030D01*
X105610951Y-103380058D01*
X105671257Y-103525649D01*
X105702000Y-103680207D01*
X105702000Y-103837793D01*
X105671257Y-103992351D01*
X105610951Y-104137942D01*
X105523401Y-104268970D01*
X105411970Y-104380401D01*
X105280942Y-104467951D01*
X105135351Y-104528257D01*
X105032312Y-104548752D01*
X104980794Y-104559000D01*
X104823206Y-104559000D01*
X104771688Y-104548752D01*
X104668649Y-104528257D01*
X104523058Y-104467951D01*
X104392030Y-104380401D01*
X104280599Y-104268970D01*
X104193049Y-104137942D01*
X104132743Y-103992351D01*
X104102000Y-103837793D01*
X104102000Y-103680207D01*
X104132743Y-103525649D01*
X104193049Y-103380058D01*
X104280599Y-103249030D01*
X104392030Y-103137599D01*
X104523058Y-103050049D01*
X104668649Y-102989743D01*
X104771688Y-102969248D01*
X104823206Y-102959000D01*
X104980794Y-102959000D01*
X105032312Y-102969248D01*
G37*
G36*
X102492312Y-102969248D02*
G01*
X102595351Y-102989743D01*
X102740942Y-103050049D01*
X102871970Y-103137599D01*
X102983401Y-103249030D01*
X103070951Y-103380058D01*
X103131257Y-103525649D01*
X103162000Y-103680207D01*
X103162000Y-103837793D01*
X103131257Y-103992351D01*
X103070951Y-104137942D01*
X102983401Y-104268970D01*
X102871970Y-104380401D01*
X102740942Y-104467951D01*
X102595351Y-104528257D01*
X102492312Y-104548752D01*
X102440794Y-104559000D01*
X102283206Y-104559000D01*
X102231688Y-104548752D01*
X102128649Y-104528257D01*
X101983058Y-104467951D01*
X101852030Y-104380401D01*
X101740599Y-104268970D01*
X101653049Y-104137942D01*
X101592743Y-103992351D01*
X101562000Y-103837793D01*
X101562000Y-103680207D01*
X101592743Y-103525649D01*
X101653049Y-103380058D01*
X101740599Y-103249030D01*
X101852030Y-103137599D01*
X101983058Y-103050049D01*
X102128649Y-102989743D01*
X102231688Y-102969248D01*
X102283206Y-102959000D01*
X102440794Y-102959000D01*
X102492312Y-102969248D01*
G37*
G36*
X99952312Y-102969248D02*
G01*
X100055351Y-102989743D01*
X100200942Y-103050049D01*
X100331970Y-103137599D01*
X100443401Y-103249030D01*
X100530951Y-103380058D01*
X100591257Y-103525649D01*
X100622000Y-103680207D01*
X100622000Y-103837793D01*
X100591257Y-103992351D01*
X100530951Y-104137942D01*
X100443401Y-104268970D01*
X100331970Y-104380401D01*
X100200942Y-104467951D01*
X100055351Y-104528257D01*
X99952312Y-104548752D01*
X99900794Y-104559000D01*
X99743206Y-104559000D01*
X99691688Y-104548752D01*
X99588649Y-104528257D01*
X99443058Y-104467951D01*
X99312030Y-104380401D01*
X99200599Y-104268970D01*
X99113049Y-104137942D01*
X99052743Y-103992351D01*
X99022000Y-103837793D01*
X99022000Y-103680207D01*
X99052743Y-103525649D01*
X99113049Y-103380058D01*
X99200599Y-103249030D01*
X99312030Y-103137599D01*
X99443058Y-103050049D01*
X99588649Y-102989743D01*
X99691688Y-102969248D01*
X99743206Y-102959000D01*
X99900794Y-102959000D01*
X99952312Y-102969248D01*
G37*
G36*
X90462000Y-104559000D02*
G01*
X88862000Y-104559000D01*
X88862000Y-102959000D01*
X90462000Y-102959000D01*
X90462000Y-104559000D01*
G37*
G36*
X92332312Y-102969248D02*
G01*
X92435351Y-102989743D01*
X92580942Y-103050049D01*
X92711970Y-103137599D01*
X92823401Y-103249030D01*
X92910951Y-103380058D01*
X92971257Y-103525649D01*
X93002000Y-103680207D01*
X93002000Y-103837793D01*
X92971257Y-103992351D01*
X92910951Y-104137942D01*
X92823401Y-104268970D01*
X92711970Y-104380401D01*
X92580942Y-104467951D01*
X92435351Y-104528257D01*
X92332312Y-104548752D01*
X92280794Y-104559000D01*
X92123206Y-104559000D01*
X92071688Y-104548752D01*
X91968649Y-104528257D01*
X91823058Y-104467951D01*
X91692030Y-104380401D01*
X91580599Y-104268970D01*
X91493049Y-104137942D01*
X91432743Y-103992351D01*
X91402000Y-103837793D01*
X91402000Y-103680207D01*
X91432743Y-103525649D01*
X91493049Y-103380058D01*
X91580599Y-103249030D01*
X91692030Y-103137599D01*
X91823058Y-103050049D01*
X91968649Y-102989743D01*
X92071688Y-102969248D01*
X92123206Y-102959000D01*
X92280794Y-102959000D01*
X92332312Y-102969248D01*
G37*
G36*
X94872312Y-102969248D02*
G01*
X94975351Y-102989743D01*
X95120942Y-103050049D01*
X95251970Y-103137599D01*
X95363401Y-103249030D01*
X95450951Y-103380058D01*
X95511257Y-103525649D01*
X95542000Y-103680207D01*
X95542000Y-103837793D01*
X95511257Y-103992351D01*
X95450951Y-104137942D01*
X95363401Y-104268970D01*
X95251970Y-104380401D01*
X95120942Y-104467951D01*
X94975351Y-104528257D01*
X94872312Y-104548752D01*
X94820794Y-104559000D01*
X94663206Y-104559000D01*
X94611688Y-104548752D01*
X94508649Y-104528257D01*
X94363058Y-104467951D01*
X94232030Y-104380401D01*
X94120599Y-104268970D01*
X94033049Y-104137942D01*
X93972743Y-103992351D01*
X93942000Y-103837793D01*
X93942000Y-103680207D01*
X93972743Y-103525649D01*
X94033049Y-103380058D01*
X94120599Y-103249030D01*
X94232030Y-103137599D01*
X94363058Y-103050049D01*
X94508649Y-102989743D01*
X94611688Y-102969248D01*
X94663206Y-102959000D01*
X94820794Y-102959000D01*
X94872312Y-102969248D01*
G37*
G36*
X97412312Y-102969248D02*
G01*
X97515351Y-102989743D01*
X97660942Y-103050049D01*
X97791970Y-103137599D01*
X97903401Y-103249030D01*
X97990951Y-103380058D01*
X98051257Y-103525649D01*
X98082000Y-103680207D01*
X98082000Y-103837793D01*
X98051257Y-103992351D01*
X97990951Y-104137942D01*
X97903401Y-104268970D01*
X97791970Y-104380401D01*
X97660942Y-104467951D01*
X97515351Y-104528257D01*
X97412312Y-104548752D01*
X97360794Y-104559000D01*
X97203206Y-104559000D01*
X97151688Y-104548752D01*
X97048649Y-104528257D01*
X96903058Y-104467951D01*
X96772030Y-104380401D01*
X96660599Y-104268970D01*
X96573049Y-104137942D01*
X96512743Y-103992351D01*
X96482000Y-103837793D01*
X96482000Y-103680207D01*
X96512743Y-103525649D01*
X96573049Y-103380058D01*
X96660599Y-103249030D01*
X96772030Y-103137599D01*
X96903058Y-103050049D01*
X97048649Y-102989743D01*
X97151688Y-102969248D01*
X97203206Y-102959000D01*
X97360794Y-102959000D01*
X97412312Y-102969248D01*
G37*
G36*
X144529312Y-102969248D02*
G01*
X144632351Y-102989743D01*
X144777942Y-103050049D01*
X144908970Y-103137599D01*
X145020401Y-103249030D01*
X145107951Y-103380058D01*
X145168257Y-103525649D01*
X145199000Y-103680207D01*
X145199000Y-103837793D01*
X145168257Y-103992351D01*
X145107951Y-104137942D01*
X145020401Y-104268970D01*
X144908970Y-104380401D01*
X144777942Y-104467951D01*
X144632351Y-104528257D01*
X144529312Y-104548752D01*
X144477794Y-104559000D01*
X144320206Y-104559000D01*
X144268688Y-104548752D01*
X144165649Y-104528257D01*
X144020058Y-104467951D01*
X143889030Y-104380401D01*
X143777599Y-104268970D01*
X143690049Y-104137942D01*
X143629743Y-103992351D01*
X143599000Y-103837793D01*
X143599000Y-103680207D01*
X143629743Y-103525649D01*
X143690049Y-103380058D01*
X143777599Y-103249030D01*
X143889030Y-103137599D01*
X144020058Y-103050049D01*
X144165649Y-102989743D01*
X144268688Y-102969248D01*
X144320206Y-102959000D01*
X144477794Y-102959000D01*
X144529312Y-102969248D01*
G37*
G36*
X154689312Y-102969248D02*
G01*
X154792351Y-102989743D01*
X154937942Y-103050049D01*
X155068970Y-103137599D01*
X155180401Y-103249030D01*
X155267951Y-103380058D01*
X155328257Y-103525649D01*
X155359000Y-103680207D01*
X155359000Y-103837793D01*
X155328257Y-103992351D01*
X155267951Y-104137942D01*
X155180401Y-104268970D01*
X155068970Y-104380401D01*
X154937942Y-104467951D01*
X154792351Y-104528257D01*
X154689312Y-104548752D01*
X154637794Y-104559000D01*
X154480206Y-104559000D01*
X154428688Y-104548752D01*
X154325649Y-104528257D01*
X154180058Y-104467951D01*
X154049030Y-104380401D01*
X153937599Y-104268970D01*
X153850049Y-104137942D01*
X153789743Y-103992351D01*
X153759000Y-103837793D01*
X153759000Y-103680207D01*
X153789743Y-103525649D01*
X153850049Y-103380058D01*
X153937599Y-103249030D01*
X154049030Y-103137599D01*
X154180058Y-103050049D01*
X154325649Y-102989743D01*
X154428688Y-102969248D01*
X154480206Y-102959000D01*
X154637794Y-102959000D01*
X154689312Y-102969248D01*
G37*
G36*
X197361312Y-102969248D02*
G01*
X197464351Y-102989743D01*
X197609942Y-103050049D01*
X197740970Y-103137599D01*
X197852401Y-103249030D01*
X197939951Y-103380058D01*
X198000257Y-103525649D01*
X198031000Y-103680207D01*
X198031000Y-103837793D01*
X198000257Y-103992351D01*
X197939951Y-104137942D01*
X197852401Y-104268970D01*
X197740970Y-104380401D01*
X197609942Y-104467951D01*
X197464351Y-104528257D01*
X197361312Y-104548752D01*
X197309794Y-104559000D01*
X197152206Y-104559000D01*
X197100688Y-104548752D01*
X196997649Y-104528257D01*
X196852058Y-104467951D01*
X196721030Y-104380401D01*
X196609599Y-104268970D01*
X196522049Y-104137942D01*
X196461743Y-103992351D01*
X196431000Y-103837793D01*
X196431000Y-103680207D01*
X196461743Y-103525649D01*
X196522049Y-103380058D01*
X196609599Y-103249030D01*
X196721030Y-103137599D01*
X196852058Y-103050049D01*
X196997649Y-102989743D01*
X197100688Y-102969248D01*
X197152206Y-102959000D01*
X197309794Y-102959000D01*
X197361312Y-102969248D01*
G37*
G36*
X157229312Y-102969248D02*
G01*
X157332351Y-102989743D01*
X157477942Y-103050049D01*
X157608970Y-103137599D01*
X157720401Y-103249030D01*
X157807951Y-103380058D01*
X157868257Y-103525649D01*
X157899000Y-103680207D01*
X157899000Y-103837793D01*
X157868257Y-103992351D01*
X157807951Y-104137942D01*
X157720401Y-104268970D01*
X157608970Y-104380401D01*
X157477942Y-104467951D01*
X157332351Y-104528257D01*
X157229312Y-104548752D01*
X157177794Y-104559000D01*
X157020206Y-104559000D01*
X156968688Y-104548752D01*
X156865649Y-104528257D01*
X156720058Y-104467951D01*
X156589030Y-104380401D01*
X156477599Y-104268970D01*
X156390049Y-104137942D01*
X156329743Y-103992351D01*
X156299000Y-103837793D01*
X156299000Y-103680207D01*
X156329743Y-103525649D01*
X156390049Y-103380058D01*
X156477599Y-103249030D01*
X156589030Y-103137599D01*
X156720058Y-103050049D01*
X156865649Y-102989743D01*
X156968688Y-102969248D01*
X157020206Y-102959000D01*
X157177794Y-102959000D01*
X157229312Y-102969248D01*
G37*
G36*
X207521312Y-102969248D02*
G01*
X207624351Y-102989743D01*
X207769942Y-103050049D01*
X207900970Y-103137599D01*
X208012401Y-103249030D01*
X208099951Y-103380058D01*
X208160257Y-103525649D01*
X208191000Y-103680207D01*
X208191000Y-103837793D01*
X208160257Y-103992351D01*
X208099951Y-104137942D01*
X208012401Y-104268970D01*
X207900970Y-104380401D01*
X207769942Y-104467951D01*
X207624351Y-104528257D01*
X207521312Y-104548752D01*
X207469794Y-104559000D01*
X207312206Y-104559000D01*
X207260688Y-104548752D01*
X207157649Y-104528257D01*
X207012058Y-104467951D01*
X206881030Y-104380401D01*
X206769599Y-104268970D01*
X206682049Y-104137942D01*
X206621743Y-103992351D01*
X206591000Y-103837793D01*
X206591000Y-103680207D01*
X206621743Y-103525649D01*
X206682049Y-103380058D01*
X206769599Y-103249030D01*
X206881030Y-103137599D01*
X207012058Y-103050049D01*
X207157649Y-102989743D01*
X207260688Y-102969248D01*
X207312206Y-102959000D01*
X207469794Y-102959000D01*
X207521312Y-102969248D01*
G37*
G36*
X204981312Y-102969248D02*
G01*
X205084351Y-102989743D01*
X205229942Y-103050049D01*
X205360970Y-103137599D01*
X205472401Y-103249030D01*
X205559951Y-103380058D01*
X205620257Y-103525649D01*
X205651000Y-103680207D01*
X205651000Y-103837793D01*
X205620257Y-103992351D01*
X205559951Y-104137942D01*
X205472401Y-104268970D01*
X205360970Y-104380401D01*
X205229942Y-104467951D01*
X205084351Y-104528257D01*
X204981312Y-104548752D01*
X204929794Y-104559000D01*
X204772206Y-104559000D01*
X204720688Y-104548752D01*
X204617649Y-104528257D01*
X204472058Y-104467951D01*
X204341030Y-104380401D01*
X204229599Y-104268970D01*
X204142049Y-104137942D01*
X204081743Y-103992351D01*
X204051000Y-103837793D01*
X204051000Y-103680207D01*
X204081743Y-103525649D01*
X204142049Y-103380058D01*
X204229599Y-103249030D01*
X204341030Y-103137599D01*
X204472058Y-103050049D01*
X204617649Y-102989743D01*
X204720688Y-102969248D01*
X204772206Y-102959000D01*
X204929794Y-102959000D01*
X204981312Y-102969248D01*
G37*
G36*
X202441312Y-102969248D02*
G01*
X202544351Y-102989743D01*
X202689942Y-103050049D01*
X202820970Y-103137599D01*
X202932401Y-103249030D01*
X203019951Y-103380058D01*
X203080257Y-103525649D01*
X203111000Y-103680207D01*
X203111000Y-103837793D01*
X203080257Y-103992351D01*
X203019951Y-104137942D01*
X202932401Y-104268970D01*
X202820970Y-104380401D01*
X202689942Y-104467951D01*
X202544351Y-104528257D01*
X202441312Y-104548752D01*
X202389794Y-104559000D01*
X202232206Y-104559000D01*
X202180688Y-104548752D01*
X202077649Y-104528257D01*
X201932058Y-104467951D01*
X201801030Y-104380401D01*
X201689599Y-104268970D01*
X201602049Y-104137942D01*
X201541743Y-103992351D01*
X201511000Y-103837793D01*
X201511000Y-103680207D01*
X201541743Y-103525649D01*
X201602049Y-103380058D01*
X201689599Y-103249030D01*
X201801030Y-103137599D01*
X201932058Y-103050049D01*
X202077649Y-102989743D01*
X202180688Y-102969248D01*
X202232206Y-102959000D01*
X202389794Y-102959000D01*
X202441312Y-102969248D01*
G37*
G36*
X159769312Y-102969248D02*
G01*
X159872351Y-102989743D01*
X160017942Y-103050049D01*
X160148970Y-103137599D01*
X160260401Y-103249030D01*
X160347951Y-103380058D01*
X160408257Y-103525649D01*
X160439000Y-103680207D01*
X160439000Y-103837793D01*
X160408257Y-103992351D01*
X160347951Y-104137942D01*
X160260401Y-104268970D01*
X160148970Y-104380401D01*
X160017942Y-104467951D01*
X159872351Y-104528257D01*
X159769312Y-104548752D01*
X159717794Y-104559000D01*
X159560206Y-104559000D01*
X159508688Y-104548752D01*
X159405649Y-104528257D01*
X159260058Y-104467951D01*
X159129030Y-104380401D01*
X159017599Y-104268970D01*
X158930049Y-104137942D01*
X158869743Y-103992351D01*
X158839000Y-103837793D01*
X158839000Y-103680207D01*
X158869743Y-103525649D01*
X158930049Y-103380058D01*
X159017599Y-103249030D01*
X159129030Y-103137599D01*
X159260058Y-103050049D01*
X159405649Y-102989743D01*
X159508688Y-102969248D01*
X159560206Y-102959000D01*
X159717794Y-102959000D01*
X159769312Y-102969248D01*
G37*
G36*
X210061312Y-102969248D02*
G01*
X210164351Y-102989743D01*
X210309942Y-103050049D01*
X210440970Y-103137599D01*
X210552401Y-103249030D01*
X210639951Y-103380058D01*
X210700257Y-103525649D01*
X210731000Y-103680207D01*
X210731000Y-103837793D01*
X210700257Y-103992351D01*
X210639951Y-104137942D01*
X210552401Y-104268970D01*
X210440970Y-104380401D01*
X210309942Y-104467951D01*
X210164351Y-104528257D01*
X210061312Y-104548752D01*
X210009794Y-104559000D01*
X209852206Y-104559000D01*
X209800688Y-104548752D01*
X209697649Y-104528257D01*
X209552058Y-104467951D01*
X209421030Y-104380401D01*
X209309599Y-104268970D01*
X209222049Y-104137942D01*
X209161743Y-103992351D01*
X209131000Y-103837793D01*
X209131000Y-103680207D01*
X209161743Y-103525649D01*
X209222049Y-103380058D01*
X209309599Y-103249030D01*
X209421030Y-103137599D01*
X209552058Y-103050049D01*
X209697649Y-102989743D01*
X209800688Y-102969248D01*
X209852206Y-102959000D01*
X210009794Y-102959000D01*
X210061312Y-102969248D01*
G37*
G36*
X195491000Y-104559000D02*
G01*
X193891000Y-104559000D01*
X193891000Y-102959000D01*
X195491000Y-102959000D01*
X195491000Y-104559000D01*
G37*
G36*
X199901312Y-102969248D02*
G01*
X200004351Y-102989743D01*
X200149942Y-103050049D01*
X200280970Y-103137599D01*
X200392401Y-103249030D01*
X200479951Y-103380058D01*
X200540257Y-103525649D01*
X200571000Y-103680207D01*
X200571000Y-103837793D01*
X200540257Y-103992351D01*
X200479951Y-104137942D01*
X200392401Y-104268970D01*
X200280970Y-104380401D01*
X200149942Y-104467951D01*
X200004351Y-104528257D01*
X199901312Y-104548752D01*
X199849794Y-104559000D01*
X199692206Y-104559000D01*
X199640688Y-104548752D01*
X199537649Y-104528257D01*
X199392058Y-104467951D01*
X199261030Y-104380401D01*
X199149599Y-104268970D01*
X199062049Y-104137942D01*
X199001743Y-103992351D01*
X198971000Y-103837793D01*
X198971000Y-103680207D01*
X199001743Y-103525649D01*
X199062049Y-103380058D01*
X199149599Y-103249030D01*
X199261030Y-103137599D01*
X199392058Y-103050049D01*
X199537649Y-102989743D01*
X199640688Y-102969248D01*
X199692206Y-102959000D01*
X199849794Y-102959000D01*
X199901312Y-102969248D01*
G37*
G36*
X152149312Y-102969248D02*
G01*
X152252351Y-102989743D01*
X152397942Y-103050049D01*
X152528970Y-103137599D01*
X152640401Y-103249030D01*
X152727951Y-103380058D01*
X152788257Y-103525649D01*
X152819000Y-103680207D01*
X152819000Y-103837793D01*
X152788257Y-103992351D01*
X152727951Y-104137942D01*
X152640401Y-104268970D01*
X152528970Y-104380401D01*
X152397942Y-104467951D01*
X152252351Y-104528257D01*
X152149312Y-104548752D01*
X152097794Y-104559000D01*
X151940206Y-104559000D01*
X151888688Y-104548752D01*
X151785649Y-104528257D01*
X151640058Y-104467951D01*
X151509030Y-104380401D01*
X151397599Y-104268970D01*
X151310049Y-104137942D01*
X151249743Y-103992351D01*
X151219000Y-103837793D01*
X151219000Y-103680207D01*
X151249743Y-103525649D01*
X151310049Y-103380058D01*
X151397599Y-103249030D01*
X151509030Y-103137599D01*
X151640058Y-103050049D01*
X151785649Y-102989743D01*
X151888688Y-102969248D01*
X151940206Y-102959000D01*
X152097794Y-102959000D01*
X152149312Y-102969248D01*
G37*
G36*
X212601312Y-102969248D02*
G01*
X212704351Y-102989743D01*
X212849942Y-103050049D01*
X212980970Y-103137599D01*
X213092401Y-103249030D01*
X213179951Y-103380058D01*
X213240257Y-103525649D01*
X213271000Y-103680207D01*
X213271000Y-103837793D01*
X213240257Y-103992351D01*
X213179951Y-104137942D01*
X213092401Y-104268970D01*
X212980970Y-104380401D01*
X212849942Y-104467951D01*
X212704351Y-104528257D01*
X212601312Y-104548752D01*
X212549794Y-104559000D01*
X212392206Y-104559000D01*
X212340688Y-104548752D01*
X212237649Y-104528257D01*
X212092058Y-104467951D01*
X211961030Y-104380401D01*
X211849599Y-104268970D01*
X211762049Y-104137942D01*
X211701743Y-103992351D01*
X211671000Y-103837793D01*
X211671000Y-103680207D01*
X211701743Y-103525649D01*
X211762049Y-103380058D01*
X211849599Y-103249030D01*
X211961030Y-103137599D01*
X212092058Y-103050049D01*
X212237649Y-102989743D01*
X212340688Y-102969248D01*
X212392206Y-102959000D01*
X212549794Y-102959000D01*
X212601312Y-102969248D01*
G37*
G36*
X67446000Y-103222000D02*
G01*
X65246000Y-103222000D01*
X65246000Y-101022000D01*
X67446000Y-101022000D01*
X67446000Y-103222000D01*
G37*
G36*
X67576312Y-96592248D02*
G01*
X67679351Y-96612743D01*
X67824942Y-96673049D01*
X67955970Y-96760599D01*
X68067401Y-96872030D01*
X68154951Y-97003058D01*
X68215257Y-97148649D01*
X68246000Y-97303207D01*
X68246000Y-97460793D01*
X68215257Y-97615351D01*
X68154951Y-97760942D01*
X68067401Y-97891970D01*
X67955970Y-98003401D01*
X67824942Y-98090951D01*
X67679351Y-98151257D01*
X67576312Y-98171752D01*
X67524794Y-98182000D01*
X67367206Y-98182000D01*
X67315688Y-98171752D01*
X67212649Y-98151257D01*
X67067058Y-98090951D01*
X66936030Y-98003401D01*
X66824599Y-97891970D01*
X66737049Y-97760942D01*
X66676743Y-97615351D01*
X66646000Y-97460793D01*
X66646000Y-97303207D01*
X66676743Y-97148649D01*
X66737049Y-97003058D01*
X66824599Y-96872030D01*
X66936030Y-96760599D01*
X67067058Y-96673049D01*
X67212649Y-96612743D01*
X67315688Y-96592248D01*
X67367206Y-96582000D01*
X67524794Y-96582000D01*
X67576312Y-96592248D01*
G37*
G36*
X65746000Y-98182000D02*
G01*
X64146000Y-98182000D01*
X64146000Y-96582000D01*
X65746000Y-96582000D01*
X65746000Y-98182000D01*
G37*
G36*
X135085592Y-96154428D02*
G01*
X135188631Y-96174923D01*
X135334222Y-96235229D01*
X135465250Y-96322779D01*
X135576681Y-96434210D01*
X135664231Y-96565238D01*
X135724537Y-96710829D01*
X135755280Y-96865387D01*
X135755280Y-97022973D01*
X135724537Y-97177531D01*
X135664231Y-97323122D01*
X135576681Y-97454150D01*
X135465250Y-97565581D01*
X135334222Y-97653131D01*
X135188631Y-97713437D01*
X135085592Y-97733932D01*
X135034074Y-97744180D01*
X134876486Y-97744180D01*
X134824968Y-97733932D01*
X134721929Y-97713437D01*
X134576338Y-97653131D01*
X134445310Y-97565581D01*
X134333879Y-97454150D01*
X134246329Y-97323122D01*
X134186023Y-97177531D01*
X134155280Y-97022973D01*
X134155280Y-96865387D01*
X134186023Y-96710829D01*
X134246329Y-96565238D01*
X134333879Y-96434210D01*
X134445310Y-96322779D01*
X134576338Y-96235229D01*
X134721929Y-96174923D01*
X134824968Y-96154428D01*
X134876486Y-96144180D01*
X135034074Y-96144180D01*
X135085592Y-96154428D01*
G37*
G36*
X212601312Y-95349248D02*
G01*
X212704351Y-95369743D01*
X212849942Y-95430049D01*
X212980970Y-95517599D01*
X213092401Y-95629030D01*
X213179951Y-95760058D01*
X213240257Y-95905649D01*
X213271000Y-96060207D01*
X213271000Y-96217793D01*
X213240257Y-96372351D01*
X213179951Y-96517942D01*
X213092401Y-96648970D01*
X212980970Y-96760401D01*
X212849942Y-96847951D01*
X212704351Y-96908257D01*
X212601312Y-96928752D01*
X212549794Y-96939000D01*
X212392206Y-96939000D01*
X212340688Y-96928752D01*
X212237649Y-96908257D01*
X212092058Y-96847951D01*
X211961030Y-96760401D01*
X211849599Y-96648970D01*
X211762049Y-96517942D01*
X211701743Y-96372351D01*
X211671000Y-96217793D01*
X211671000Y-96060207D01*
X211701743Y-95905649D01*
X211762049Y-95760058D01*
X211849599Y-95629030D01*
X211961030Y-95517599D01*
X212092058Y-95430049D01*
X212237649Y-95369743D01*
X212340688Y-95349248D01*
X212392206Y-95339000D01*
X212549794Y-95339000D01*
X212601312Y-95349248D01*
G37*
G36*
X210061312Y-95349248D02*
G01*
X210164351Y-95369743D01*
X210309942Y-95430049D01*
X210440970Y-95517599D01*
X210552401Y-95629030D01*
X210639951Y-95760058D01*
X210700257Y-95905649D01*
X210731000Y-96060207D01*
X210731000Y-96217793D01*
X210700257Y-96372351D01*
X210639951Y-96517942D01*
X210552401Y-96648970D01*
X210440970Y-96760401D01*
X210309942Y-96847951D01*
X210164351Y-96908257D01*
X210061312Y-96928752D01*
X210009794Y-96939000D01*
X209852206Y-96939000D01*
X209800688Y-96928752D01*
X209697649Y-96908257D01*
X209552058Y-96847951D01*
X209421030Y-96760401D01*
X209309599Y-96648970D01*
X209222049Y-96517942D01*
X209161743Y-96372351D01*
X209131000Y-96217793D01*
X209131000Y-96060207D01*
X209161743Y-95905649D01*
X209222049Y-95760058D01*
X209309599Y-95629030D01*
X209421030Y-95517599D01*
X209552058Y-95430049D01*
X209697649Y-95369743D01*
X209800688Y-95349248D01*
X209852206Y-95339000D01*
X210009794Y-95339000D01*
X210061312Y-95349248D01*
G37*
G36*
X207521312Y-95349248D02*
G01*
X207624351Y-95369743D01*
X207769942Y-95430049D01*
X207900970Y-95517599D01*
X208012401Y-95629030D01*
X208099951Y-95760058D01*
X208160257Y-95905649D01*
X208191000Y-96060207D01*
X208191000Y-96217793D01*
X208160257Y-96372351D01*
X208099951Y-96517942D01*
X208012401Y-96648970D01*
X207900970Y-96760401D01*
X207769942Y-96847951D01*
X207624351Y-96908257D01*
X207521312Y-96928752D01*
X207469794Y-96939000D01*
X207312206Y-96939000D01*
X207260688Y-96928752D01*
X207157649Y-96908257D01*
X207012058Y-96847951D01*
X206881030Y-96760401D01*
X206769599Y-96648970D01*
X206682049Y-96517942D01*
X206621743Y-96372351D01*
X206591000Y-96217793D01*
X206591000Y-96060207D01*
X206621743Y-95905649D01*
X206682049Y-95760058D01*
X206769599Y-95629030D01*
X206881030Y-95517599D01*
X207012058Y-95430049D01*
X207157649Y-95369743D01*
X207260688Y-95349248D01*
X207312206Y-95339000D01*
X207469794Y-95339000D01*
X207521312Y-95349248D01*
G37*
G36*
X204981312Y-95349248D02*
G01*
X205084351Y-95369743D01*
X205229942Y-95430049D01*
X205360970Y-95517599D01*
X205472401Y-95629030D01*
X205559951Y-95760058D01*
X205620257Y-95905649D01*
X205651000Y-96060207D01*
X205651000Y-96217793D01*
X205620257Y-96372351D01*
X205559951Y-96517942D01*
X205472401Y-96648970D01*
X205360970Y-96760401D01*
X205229942Y-96847951D01*
X205084351Y-96908257D01*
X204981312Y-96928752D01*
X204929794Y-96939000D01*
X204772206Y-96939000D01*
X204720688Y-96928752D01*
X204617649Y-96908257D01*
X204472058Y-96847951D01*
X204341030Y-96760401D01*
X204229599Y-96648970D01*
X204142049Y-96517942D01*
X204081743Y-96372351D01*
X204051000Y-96217793D01*
X204051000Y-96060207D01*
X204081743Y-95905649D01*
X204142049Y-95760058D01*
X204229599Y-95629030D01*
X204341030Y-95517599D01*
X204472058Y-95430049D01*
X204617649Y-95369743D01*
X204720688Y-95349248D01*
X204772206Y-95339000D01*
X204929794Y-95339000D01*
X204981312Y-95349248D01*
G37*
G36*
X152149312Y-95349248D02*
G01*
X152252351Y-95369743D01*
X152397942Y-95430049D01*
X152528970Y-95517599D01*
X152640401Y-95629030D01*
X152727951Y-95760058D01*
X152788257Y-95905649D01*
X152819000Y-96060207D01*
X152819000Y-96217793D01*
X152788257Y-96372351D01*
X152727951Y-96517942D01*
X152640401Y-96648970D01*
X152528970Y-96760401D01*
X152397942Y-96847951D01*
X152252351Y-96908257D01*
X152149312Y-96928752D01*
X152097794Y-96939000D01*
X151940206Y-96939000D01*
X151888688Y-96928752D01*
X151785649Y-96908257D01*
X151640058Y-96847951D01*
X151509030Y-96760401D01*
X151397599Y-96648970D01*
X151310049Y-96517942D01*
X151249743Y-96372351D01*
X151219000Y-96217793D01*
X151219000Y-96060207D01*
X151249743Y-95905649D01*
X151310049Y-95760058D01*
X151397599Y-95629030D01*
X151509030Y-95517599D01*
X151640058Y-95430049D01*
X151785649Y-95369743D01*
X151888688Y-95349248D01*
X151940206Y-95339000D01*
X152097794Y-95339000D01*
X152149312Y-95349248D01*
G37*
G36*
X202441312Y-95349248D02*
G01*
X202544351Y-95369743D01*
X202689942Y-95430049D01*
X202820970Y-95517599D01*
X202932401Y-95629030D01*
X203019951Y-95760058D01*
X203080257Y-95905649D01*
X203111000Y-96060207D01*
X203111000Y-96217793D01*
X203080257Y-96372351D01*
X203019951Y-96517942D01*
X202932401Y-96648970D01*
X202820970Y-96760401D01*
X202689942Y-96847951D01*
X202544351Y-96908257D01*
X202441312Y-96928752D01*
X202389794Y-96939000D01*
X202232206Y-96939000D01*
X202180688Y-96928752D01*
X202077649Y-96908257D01*
X201932058Y-96847951D01*
X201801030Y-96760401D01*
X201689599Y-96648970D01*
X201602049Y-96517942D01*
X201541743Y-96372351D01*
X201511000Y-96217793D01*
X201511000Y-96060207D01*
X201541743Y-95905649D01*
X201602049Y-95760058D01*
X201689599Y-95629030D01*
X201801030Y-95517599D01*
X201932058Y-95430049D01*
X202077649Y-95369743D01*
X202180688Y-95349248D01*
X202232206Y-95339000D01*
X202389794Y-95339000D01*
X202441312Y-95349248D01*
G37*
G36*
X147069312Y-95349248D02*
G01*
X147172351Y-95369743D01*
X147317942Y-95430049D01*
X147448970Y-95517599D01*
X147560401Y-95629030D01*
X147647951Y-95760058D01*
X147708257Y-95905649D01*
X147739000Y-96060207D01*
X147739000Y-96217793D01*
X147708257Y-96372351D01*
X147647951Y-96517942D01*
X147560401Y-96648970D01*
X147448970Y-96760401D01*
X147317942Y-96847951D01*
X147172351Y-96908257D01*
X147069312Y-96928752D01*
X147017794Y-96939000D01*
X146860206Y-96939000D01*
X146808688Y-96928752D01*
X146705649Y-96908257D01*
X146560058Y-96847951D01*
X146429030Y-96760401D01*
X146317599Y-96648970D01*
X146230049Y-96517942D01*
X146169743Y-96372351D01*
X146139000Y-96217793D01*
X146139000Y-96060207D01*
X146169743Y-95905649D01*
X146230049Y-95760058D01*
X146317599Y-95629030D01*
X146429030Y-95517599D01*
X146560058Y-95430049D01*
X146705649Y-95369743D01*
X146808688Y-95349248D01*
X146860206Y-95339000D01*
X147017794Y-95339000D01*
X147069312Y-95349248D01*
G37*
G36*
X144529312Y-95349248D02*
G01*
X144632351Y-95369743D01*
X144777942Y-95430049D01*
X144908970Y-95517599D01*
X145020401Y-95629030D01*
X145107951Y-95760058D01*
X145168257Y-95905649D01*
X145199000Y-96060207D01*
X145199000Y-96217793D01*
X145168257Y-96372351D01*
X145107951Y-96517942D01*
X145020401Y-96648970D01*
X144908970Y-96760401D01*
X144777942Y-96847951D01*
X144632351Y-96908257D01*
X144529312Y-96928752D01*
X144477794Y-96939000D01*
X144320206Y-96939000D01*
X144268688Y-96928752D01*
X144165649Y-96908257D01*
X144020058Y-96847951D01*
X143889030Y-96760401D01*
X143777599Y-96648970D01*
X143690049Y-96517942D01*
X143629743Y-96372351D01*
X143599000Y-96217793D01*
X143599000Y-96060207D01*
X143629743Y-95905649D01*
X143690049Y-95760058D01*
X143777599Y-95629030D01*
X143889030Y-95517599D01*
X144020058Y-95430049D01*
X144165649Y-95369743D01*
X144268688Y-95349248D01*
X144320206Y-95339000D01*
X144477794Y-95339000D01*
X144529312Y-95349248D01*
G37*
G36*
X141989312Y-95349248D02*
G01*
X142092351Y-95369743D01*
X142237942Y-95430049D01*
X142368970Y-95517599D01*
X142480401Y-95629030D01*
X142567951Y-95760058D01*
X142628257Y-95905649D01*
X142659000Y-96060207D01*
X142659000Y-96217793D01*
X142628257Y-96372351D01*
X142567951Y-96517942D01*
X142480401Y-96648970D01*
X142368970Y-96760401D01*
X142237942Y-96847951D01*
X142092351Y-96908257D01*
X141989312Y-96928752D01*
X141937794Y-96939000D01*
X141780206Y-96939000D01*
X141728688Y-96928752D01*
X141625649Y-96908257D01*
X141480058Y-96847951D01*
X141349030Y-96760401D01*
X141237599Y-96648970D01*
X141150049Y-96517942D01*
X141089743Y-96372351D01*
X141059000Y-96217793D01*
X141059000Y-96060207D01*
X141089743Y-95905649D01*
X141150049Y-95760058D01*
X141237599Y-95629030D01*
X141349030Y-95517599D01*
X141480058Y-95430049D01*
X141625649Y-95369743D01*
X141728688Y-95349248D01*
X141780206Y-95339000D01*
X141937794Y-95339000D01*
X141989312Y-95349248D01*
G37*
G36*
X107572312Y-95349248D02*
G01*
X107675351Y-95369743D01*
X107820942Y-95430049D01*
X107951970Y-95517599D01*
X108063401Y-95629030D01*
X108150951Y-95760058D01*
X108211257Y-95905649D01*
X108242000Y-96060207D01*
X108242000Y-96217793D01*
X108211257Y-96372351D01*
X108150951Y-96517942D01*
X108063401Y-96648970D01*
X107951970Y-96760401D01*
X107820942Y-96847951D01*
X107675351Y-96908257D01*
X107572312Y-96928752D01*
X107520794Y-96939000D01*
X107363206Y-96939000D01*
X107311688Y-96928752D01*
X107208649Y-96908257D01*
X107063058Y-96847951D01*
X106932030Y-96760401D01*
X106820599Y-96648970D01*
X106733049Y-96517942D01*
X106672743Y-96372351D01*
X106642000Y-96217793D01*
X106642000Y-96060207D01*
X106672743Y-95905649D01*
X106733049Y-95760058D01*
X106820599Y-95629030D01*
X106932030Y-95517599D01*
X107063058Y-95430049D01*
X107208649Y-95369743D01*
X107311688Y-95349248D01*
X107363206Y-95339000D01*
X107520794Y-95339000D01*
X107572312Y-95349248D01*
G37*
G36*
X105032312Y-95349248D02*
G01*
X105135351Y-95369743D01*
X105280942Y-95430049D01*
X105411970Y-95517599D01*
X105523401Y-95629030D01*
X105610951Y-95760058D01*
X105671257Y-95905649D01*
X105702000Y-96060207D01*
X105702000Y-96217793D01*
X105671257Y-96372351D01*
X105610951Y-96517942D01*
X105523401Y-96648970D01*
X105411970Y-96760401D01*
X105280942Y-96847951D01*
X105135351Y-96908257D01*
X105032312Y-96928752D01*
X104980794Y-96939000D01*
X104823206Y-96939000D01*
X104771688Y-96928752D01*
X104668649Y-96908257D01*
X104523058Y-96847951D01*
X104392030Y-96760401D01*
X104280599Y-96648970D01*
X104193049Y-96517942D01*
X104132743Y-96372351D01*
X104102000Y-96217793D01*
X104102000Y-96060207D01*
X104132743Y-95905649D01*
X104193049Y-95760058D01*
X104280599Y-95629030D01*
X104392030Y-95517599D01*
X104523058Y-95430049D01*
X104668649Y-95369743D01*
X104771688Y-95349248D01*
X104823206Y-95339000D01*
X104980794Y-95339000D01*
X105032312Y-95349248D01*
G37*
G36*
X102492312Y-95349248D02*
G01*
X102595351Y-95369743D01*
X102740942Y-95430049D01*
X102871970Y-95517599D01*
X102983401Y-95629030D01*
X103070951Y-95760058D01*
X103131257Y-95905649D01*
X103162000Y-96060207D01*
X103162000Y-96217793D01*
X103131257Y-96372351D01*
X103070951Y-96517942D01*
X102983401Y-96648970D01*
X102871970Y-96760401D01*
X102740942Y-96847951D01*
X102595351Y-96908257D01*
X102492312Y-96928752D01*
X102440794Y-96939000D01*
X102283206Y-96939000D01*
X102231688Y-96928752D01*
X102128649Y-96908257D01*
X101983058Y-96847951D01*
X101852030Y-96760401D01*
X101740599Y-96648970D01*
X101653049Y-96517942D01*
X101592743Y-96372351D01*
X101562000Y-96217793D01*
X101562000Y-96060207D01*
X101592743Y-95905649D01*
X101653049Y-95760058D01*
X101740599Y-95629030D01*
X101852030Y-95517599D01*
X101983058Y-95430049D01*
X102128649Y-95369743D01*
X102231688Y-95349248D01*
X102283206Y-95339000D01*
X102440794Y-95339000D01*
X102492312Y-95349248D01*
G37*
G36*
X154689312Y-95349248D02*
G01*
X154792351Y-95369743D01*
X154937942Y-95430049D01*
X155068970Y-95517599D01*
X155180401Y-95629030D01*
X155267951Y-95760058D01*
X155328257Y-95905649D01*
X155359000Y-96060207D01*
X155359000Y-96217793D01*
X155328257Y-96372351D01*
X155267951Y-96517942D01*
X155180401Y-96648970D01*
X155068970Y-96760401D01*
X154937942Y-96847951D01*
X154792351Y-96908257D01*
X154689312Y-96928752D01*
X154637794Y-96939000D01*
X154480206Y-96939000D01*
X154428688Y-96928752D01*
X154325649Y-96908257D01*
X154180058Y-96847951D01*
X154049030Y-96760401D01*
X153937599Y-96648970D01*
X153850049Y-96517942D01*
X153789743Y-96372351D01*
X153759000Y-96217793D01*
X153759000Y-96060207D01*
X153789743Y-95905649D01*
X153850049Y-95760058D01*
X153937599Y-95629030D01*
X154049030Y-95517599D01*
X154180058Y-95430049D01*
X154325649Y-95369743D01*
X154428688Y-95349248D01*
X154480206Y-95339000D01*
X154637794Y-95339000D01*
X154689312Y-95349248D01*
G37*
G36*
X157229312Y-95349248D02*
G01*
X157332351Y-95369743D01*
X157477942Y-95430049D01*
X157608970Y-95517599D01*
X157720401Y-95629030D01*
X157807951Y-95760058D01*
X157868257Y-95905649D01*
X157899000Y-96060207D01*
X157899000Y-96217793D01*
X157868257Y-96372351D01*
X157807951Y-96517942D01*
X157720401Y-96648970D01*
X157608970Y-96760401D01*
X157477942Y-96847951D01*
X157332351Y-96908257D01*
X157229312Y-96928752D01*
X157177794Y-96939000D01*
X157020206Y-96939000D01*
X156968688Y-96928752D01*
X156865649Y-96908257D01*
X156720058Y-96847951D01*
X156589030Y-96760401D01*
X156477599Y-96648970D01*
X156390049Y-96517942D01*
X156329743Y-96372351D01*
X156299000Y-96217793D01*
X156299000Y-96060207D01*
X156329743Y-95905649D01*
X156390049Y-95760058D01*
X156477599Y-95629030D01*
X156589030Y-95517599D01*
X156720058Y-95430049D01*
X156865649Y-95369743D01*
X156968688Y-95349248D01*
X157020206Y-95339000D01*
X157177794Y-95339000D01*
X157229312Y-95349248D01*
G37*
G36*
X159769312Y-95349248D02*
G01*
X159872351Y-95369743D01*
X160017942Y-95430049D01*
X160148970Y-95517599D01*
X160260401Y-95629030D01*
X160347951Y-95760058D01*
X160408257Y-95905649D01*
X160439000Y-96060207D01*
X160439000Y-96217793D01*
X160408257Y-96372351D01*
X160347951Y-96517942D01*
X160260401Y-96648970D01*
X160148970Y-96760401D01*
X160017942Y-96847951D01*
X159872351Y-96908257D01*
X159769312Y-96928752D01*
X159717794Y-96939000D01*
X159560206Y-96939000D01*
X159508688Y-96928752D01*
X159405649Y-96908257D01*
X159260058Y-96847951D01*
X159129030Y-96760401D01*
X159017599Y-96648970D01*
X158930049Y-96517942D01*
X158869743Y-96372351D01*
X158839000Y-96217793D01*
X158839000Y-96060207D01*
X158869743Y-95905649D01*
X158930049Y-95760058D01*
X159017599Y-95629030D01*
X159129030Y-95517599D01*
X159260058Y-95430049D01*
X159405649Y-95369743D01*
X159508688Y-95349248D01*
X159560206Y-95339000D01*
X159717794Y-95339000D01*
X159769312Y-95349248D01*
G37*
G36*
X99952312Y-95349248D02*
G01*
X100055351Y-95369743D01*
X100200942Y-95430049D01*
X100331970Y-95517599D01*
X100443401Y-95629030D01*
X100530951Y-95760058D01*
X100591257Y-95905649D01*
X100622000Y-96060207D01*
X100622000Y-96217793D01*
X100591257Y-96372351D01*
X100530951Y-96517942D01*
X100443401Y-96648970D01*
X100331970Y-96760401D01*
X100200942Y-96847951D01*
X100055351Y-96908257D01*
X99952312Y-96928752D01*
X99900794Y-96939000D01*
X99743206Y-96939000D01*
X99691688Y-96928752D01*
X99588649Y-96908257D01*
X99443058Y-96847951D01*
X99312030Y-96760401D01*
X99200599Y-96648970D01*
X99113049Y-96517942D01*
X99052743Y-96372351D01*
X99022000Y-96217793D01*
X99022000Y-96060207D01*
X99052743Y-95905649D01*
X99113049Y-95760058D01*
X99200599Y-95629030D01*
X99312030Y-95517599D01*
X99443058Y-95430049D01*
X99588649Y-95369743D01*
X99691688Y-95349248D01*
X99743206Y-95339000D01*
X99900794Y-95339000D01*
X99952312Y-95349248D01*
G37*
G36*
X194821312Y-95349248D02*
G01*
X194924351Y-95369743D01*
X195069942Y-95430049D01*
X195200970Y-95517599D01*
X195312401Y-95629030D01*
X195399951Y-95760058D01*
X195460257Y-95905649D01*
X195491000Y-96060207D01*
X195491000Y-96217793D01*
X195460257Y-96372351D01*
X195399951Y-96517942D01*
X195312401Y-96648970D01*
X195200970Y-96760401D01*
X195069942Y-96847951D01*
X194924351Y-96908257D01*
X194821312Y-96928752D01*
X194769794Y-96939000D01*
X194612206Y-96939000D01*
X194560688Y-96928752D01*
X194457649Y-96908257D01*
X194312058Y-96847951D01*
X194181030Y-96760401D01*
X194069599Y-96648970D01*
X193982049Y-96517942D01*
X193921743Y-96372351D01*
X193891000Y-96217793D01*
X193891000Y-96060207D01*
X193921743Y-95905649D01*
X193982049Y-95760058D01*
X194069599Y-95629030D01*
X194181030Y-95517599D01*
X194312058Y-95430049D01*
X194457649Y-95369743D01*
X194560688Y-95349248D01*
X194612206Y-95339000D01*
X194769794Y-95339000D01*
X194821312Y-95349248D01*
G37*
G36*
X94872312Y-95349248D02*
G01*
X94975351Y-95369743D01*
X95120942Y-95430049D01*
X95251970Y-95517599D01*
X95363401Y-95629030D01*
X95450951Y-95760058D01*
X95511257Y-95905649D01*
X95542000Y-96060207D01*
X95542000Y-96217793D01*
X95511257Y-96372351D01*
X95450951Y-96517942D01*
X95363401Y-96648970D01*
X95251970Y-96760401D01*
X95120942Y-96847951D01*
X94975351Y-96908257D01*
X94872312Y-96928752D01*
X94820794Y-96939000D01*
X94663206Y-96939000D01*
X94611688Y-96928752D01*
X94508649Y-96908257D01*
X94363058Y-96847951D01*
X94232030Y-96760401D01*
X94120599Y-96648970D01*
X94033049Y-96517942D01*
X93972743Y-96372351D01*
X93942000Y-96217793D01*
X93942000Y-96060207D01*
X93972743Y-95905649D01*
X94033049Y-95760058D01*
X94120599Y-95629030D01*
X94232030Y-95517599D01*
X94363058Y-95430049D01*
X94508649Y-95369743D01*
X94611688Y-95349248D01*
X94663206Y-95339000D01*
X94820794Y-95339000D01*
X94872312Y-95349248D01*
G37*
G36*
X197361312Y-95349248D02*
G01*
X197464351Y-95369743D01*
X197609942Y-95430049D01*
X197740970Y-95517599D01*
X197852401Y-95629030D01*
X197939951Y-95760058D01*
X198000257Y-95905649D01*
X198031000Y-96060207D01*
X198031000Y-96217793D01*
X198000257Y-96372351D01*
X197939951Y-96517942D01*
X197852401Y-96648970D01*
X197740970Y-96760401D01*
X197609942Y-96847951D01*
X197464351Y-96908257D01*
X197361312Y-96928752D01*
X197309794Y-96939000D01*
X197152206Y-96939000D01*
X197100688Y-96928752D01*
X196997649Y-96908257D01*
X196852058Y-96847951D01*
X196721030Y-96760401D01*
X196609599Y-96648970D01*
X196522049Y-96517942D01*
X196461743Y-96372351D01*
X196431000Y-96217793D01*
X196431000Y-96060207D01*
X196461743Y-95905649D01*
X196522049Y-95760058D01*
X196609599Y-95629030D01*
X196721030Y-95517599D01*
X196852058Y-95430049D01*
X196997649Y-95369743D01*
X197100688Y-95349248D01*
X197152206Y-95339000D01*
X197309794Y-95339000D01*
X197361312Y-95349248D01*
G37*
G36*
X92332312Y-95349248D02*
G01*
X92435351Y-95369743D01*
X92580942Y-95430049D01*
X92711970Y-95517599D01*
X92823401Y-95629030D01*
X92910951Y-95760058D01*
X92971257Y-95905649D01*
X93002000Y-96060207D01*
X93002000Y-96217793D01*
X92971257Y-96372351D01*
X92910951Y-96517942D01*
X92823401Y-96648970D01*
X92711970Y-96760401D01*
X92580942Y-96847951D01*
X92435351Y-96908257D01*
X92332312Y-96928752D01*
X92280794Y-96939000D01*
X92123206Y-96939000D01*
X92071688Y-96928752D01*
X91968649Y-96908257D01*
X91823058Y-96847951D01*
X91692030Y-96760401D01*
X91580599Y-96648970D01*
X91493049Y-96517942D01*
X91432743Y-96372351D01*
X91402000Y-96217793D01*
X91402000Y-96060207D01*
X91432743Y-95905649D01*
X91493049Y-95760058D01*
X91580599Y-95629030D01*
X91692030Y-95517599D01*
X91823058Y-95430049D01*
X91968649Y-95369743D01*
X92071688Y-95349248D01*
X92123206Y-95339000D01*
X92280794Y-95339000D01*
X92332312Y-95349248D01*
G37*
G36*
X149609312Y-95349248D02*
G01*
X149712351Y-95369743D01*
X149857942Y-95430049D01*
X149988970Y-95517599D01*
X150100401Y-95629030D01*
X150187951Y-95760058D01*
X150248257Y-95905649D01*
X150279000Y-96060207D01*
X150279000Y-96217793D01*
X150248257Y-96372351D01*
X150187951Y-96517942D01*
X150100401Y-96648970D01*
X149988970Y-96760401D01*
X149857942Y-96847951D01*
X149712351Y-96908257D01*
X149609312Y-96928752D01*
X149557794Y-96939000D01*
X149400206Y-96939000D01*
X149348688Y-96928752D01*
X149245649Y-96908257D01*
X149100058Y-96847951D01*
X148969030Y-96760401D01*
X148857599Y-96648970D01*
X148770049Y-96517942D01*
X148709743Y-96372351D01*
X148679000Y-96217793D01*
X148679000Y-96060207D01*
X148709743Y-95905649D01*
X148770049Y-95760058D01*
X148857599Y-95629030D01*
X148969030Y-95517599D01*
X149100058Y-95430049D01*
X149245649Y-95369743D01*
X149348688Y-95349248D01*
X149400206Y-95339000D01*
X149557794Y-95339000D01*
X149609312Y-95349248D01*
G37*
G36*
X199901312Y-95349248D02*
G01*
X200004351Y-95369743D01*
X200149942Y-95430049D01*
X200280970Y-95517599D01*
X200392401Y-95629030D01*
X200479951Y-95760058D01*
X200540257Y-95905649D01*
X200571000Y-96060207D01*
X200571000Y-96217793D01*
X200540257Y-96372351D01*
X200479951Y-96517942D01*
X200392401Y-96648970D01*
X200280970Y-96760401D01*
X200149942Y-96847951D01*
X200004351Y-96908257D01*
X199901312Y-96928752D01*
X199849794Y-96939000D01*
X199692206Y-96939000D01*
X199640688Y-96928752D01*
X199537649Y-96908257D01*
X199392058Y-96847951D01*
X199261030Y-96760401D01*
X199149599Y-96648970D01*
X199062049Y-96517942D01*
X199001743Y-96372351D01*
X198971000Y-96217793D01*
X198971000Y-96060207D01*
X199001743Y-95905649D01*
X199062049Y-95760058D01*
X199149599Y-95629030D01*
X199261030Y-95517599D01*
X199392058Y-95430049D01*
X199537649Y-95369743D01*
X199640688Y-95349248D01*
X199692206Y-95339000D01*
X199849794Y-95339000D01*
X199901312Y-95349248D01*
G37*
G36*
X97412312Y-95349248D02*
G01*
X97515351Y-95369743D01*
X97660942Y-95430049D01*
X97791970Y-95517599D01*
X97903401Y-95629030D01*
X97990951Y-95760058D01*
X98051257Y-95905649D01*
X98082000Y-96060207D01*
X98082000Y-96217793D01*
X98051257Y-96372351D01*
X97990951Y-96517942D01*
X97903401Y-96648970D01*
X97791970Y-96760401D01*
X97660942Y-96847951D01*
X97515351Y-96908257D01*
X97412312Y-96928752D01*
X97360794Y-96939000D01*
X97203206Y-96939000D01*
X97151688Y-96928752D01*
X97048649Y-96908257D01*
X96903058Y-96847951D01*
X96772030Y-96760401D01*
X96660599Y-96648970D01*
X96573049Y-96517942D01*
X96512743Y-96372351D01*
X96482000Y-96217793D01*
X96482000Y-96060207D01*
X96512743Y-95905649D01*
X96573049Y-95760058D01*
X96660599Y-95629030D01*
X96772030Y-95517599D01*
X96903058Y-95430049D01*
X97048649Y-95369743D01*
X97151688Y-95349248D01*
X97203206Y-95339000D01*
X97360794Y-95339000D01*
X97412312Y-95349248D01*
G37*
G36*
X89792312Y-95349248D02*
G01*
X89895351Y-95369743D01*
X90040942Y-95430049D01*
X90171970Y-95517599D01*
X90283401Y-95629030D01*
X90370951Y-95760058D01*
X90431257Y-95905649D01*
X90462000Y-96060207D01*
X90462000Y-96217793D01*
X90431257Y-96372351D01*
X90370951Y-96517942D01*
X90283401Y-96648970D01*
X90171970Y-96760401D01*
X90040942Y-96847951D01*
X89895351Y-96908257D01*
X89792312Y-96928752D01*
X89740794Y-96939000D01*
X89583206Y-96939000D01*
X89531688Y-96928752D01*
X89428649Y-96908257D01*
X89283058Y-96847951D01*
X89152030Y-96760401D01*
X89040599Y-96648970D01*
X88953049Y-96517942D01*
X88892743Y-96372351D01*
X88862000Y-96217793D01*
X88862000Y-96060207D01*
X88892743Y-95905649D01*
X88953049Y-95760058D01*
X89040599Y-95629030D01*
X89152030Y-95517599D01*
X89283058Y-95430049D01*
X89428649Y-95369743D01*
X89531688Y-95349248D01*
X89583206Y-95339000D01*
X89740794Y-95339000D01*
X89792312Y-95349248D01*
G37*
G36*
X70912724Y-89295782D02*
G01*
X71092265Y-89350246D01*
X71257742Y-89438694D01*
X71402778Y-89557722D01*
X71521809Y-89702762D01*
X71610253Y-89868230D01*
X71664718Y-90047775D01*
X71678500Y-90187706D01*
X71678500Y-90376293D01*
X71664718Y-90516224D01*
X71610254Y-90695765D01*
X71521806Y-90861242D01*
X71402778Y-91006278D01*
X71257738Y-91125309D01*
X71092270Y-91213753D01*
X70912725Y-91268218D01*
X70726000Y-91286609D01*
X70539276Y-91268218D01*
X70359735Y-91213754D01*
X70194258Y-91125306D01*
X70049222Y-91006278D01*
X69930191Y-90861238D01*
X69841747Y-90695770D01*
X69787282Y-90516225D01*
X69773500Y-90376294D01*
X69773500Y-90187707D01*
X69787282Y-90047776D01*
X69841746Y-89868235D01*
X69930194Y-89702758D01*
X70049222Y-89557722D01*
X70194262Y-89438691D01*
X70359730Y-89350247D01*
X70539275Y-89295782D01*
X70726000Y-89277391D01*
X70912724Y-89295782D01*
G37*
G36*
X68372724Y-89295782D02*
G01*
X68552265Y-89350246D01*
X68717742Y-89438694D01*
X68862778Y-89557722D01*
X68981809Y-89702762D01*
X69070253Y-89868230D01*
X69124718Y-90047775D01*
X69138500Y-90187706D01*
X69138500Y-90376293D01*
X69124718Y-90516224D01*
X69070254Y-90695765D01*
X68981806Y-90861242D01*
X68862778Y-91006278D01*
X68717738Y-91125309D01*
X68552270Y-91213753D01*
X68372725Y-91268218D01*
X68186000Y-91286609D01*
X67999276Y-91268218D01*
X67819735Y-91213754D01*
X67654258Y-91125306D01*
X67509222Y-91006278D01*
X67390191Y-90861238D01*
X67301747Y-90695770D01*
X67247282Y-90516225D01*
X67233500Y-90376294D01*
X67233500Y-90187707D01*
X67247282Y-90047776D01*
X67301746Y-89868235D01*
X67390194Y-89702758D01*
X67509222Y-89557722D01*
X67654262Y-89438691D01*
X67819730Y-89350247D01*
X67999275Y-89295782D01*
X68186000Y-89277391D01*
X68372724Y-89295782D01*
G37*
G36*
X66598500Y-91282000D02*
G01*
X64693500Y-91282000D01*
X64693500Y-89282000D01*
X66598500Y-89282000D01*
X66598500Y-91282000D01*
G37*
G36*
X79896000Y-90482000D02*
G01*
X78096000Y-90482000D01*
X78096000Y-88682000D01*
X79896000Y-88682000D01*
X79896000Y-90482000D01*
G37*
G36*
X81711581Y-88699293D02*
G01*
X81798520Y-88716586D01*
X81962310Y-88784430D01*
X81962312Y-88784431D01*
X82036013Y-88833677D01*
X82109717Y-88882924D01*
X82235076Y-89008283D01*
X82333570Y-89155690D01*
X82401414Y-89319480D01*
X82436000Y-89493358D01*
X82436000Y-89670642D01*
X82401414Y-89844520D01*
X82333570Y-90008310D01*
X82333569Y-90008312D01*
X82284323Y-90082014D01*
X82235076Y-90155717D01*
X82109717Y-90281076D01*
X82036014Y-90330323D01*
X81962312Y-90379569D01*
X81962311Y-90379570D01*
X81962310Y-90379570D01*
X81798520Y-90447414D01*
X81711581Y-90464707D01*
X81624644Y-90482000D01*
X81447356Y-90482000D01*
X81360419Y-90464707D01*
X81273480Y-90447414D01*
X81109690Y-90379570D01*
X81109689Y-90379570D01*
X81109688Y-90379569D01*
X81035986Y-90330323D01*
X80962283Y-90281076D01*
X80836924Y-90155717D01*
X80787677Y-90082014D01*
X80738431Y-90008312D01*
X80738430Y-90008310D01*
X80670586Y-89844520D01*
X80636000Y-89670642D01*
X80636000Y-89493358D01*
X80670586Y-89319480D01*
X80738430Y-89155690D01*
X80836924Y-89008283D01*
X80962283Y-88882924D01*
X81035986Y-88833677D01*
X81109688Y-88784431D01*
X81109690Y-88784430D01*
X81273480Y-88716586D01*
X81360419Y-88699293D01*
X81447356Y-88682000D01*
X81624644Y-88682000D01*
X81711581Y-88699293D01*
G37*
G36*
X135085592Y-85994428D02*
G01*
X135188631Y-86014923D01*
X135334222Y-86075229D01*
X135465250Y-86162779D01*
X135576681Y-86274210D01*
X135664231Y-86405238D01*
X135724537Y-86550829D01*
X135755280Y-86705387D01*
X135755280Y-86862973D01*
X135724537Y-87017531D01*
X135664231Y-87163122D01*
X135576681Y-87294150D01*
X135465250Y-87405581D01*
X135334222Y-87493131D01*
X135188631Y-87553437D01*
X135085592Y-87573932D01*
X135034074Y-87584180D01*
X134876486Y-87584180D01*
X134824968Y-87573932D01*
X134721929Y-87553437D01*
X134576338Y-87493131D01*
X134445310Y-87405581D01*
X134333879Y-87294150D01*
X134246329Y-87163122D01*
X134186023Y-87017531D01*
X134155280Y-86862973D01*
X134155280Y-86705387D01*
X134186023Y-86550829D01*
X134246329Y-86405238D01*
X134333879Y-86274210D01*
X134445310Y-86162779D01*
X134576338Y-86075229D01*
X134721929Y-86014923D01*
X134824968Y-85994428D01*
X134876486Y-85984180D01*
X135034074Y-85984180D01*
X135085592Y-85994428D01*
G37*
G36*
X178551312Y-83567248D02*
G01*
X178654351Y-83587743D01*
X178799942Y-83648049D01*
X178930970Y-83735599D01*
X179042401Y-83847030D01*
X179129951Y-83978058D01*
X179190257Y-84123649D01*
X179221000Y-84278207D01*
X179221000Y-84435793D01*
X179190257Y-84590351D01*
X179129951Y-84735942D01*
X179042401Y-84866970D01*
X178930970Y-84978401D01*
X178799942Y-85065951D01*
X178654351Y-85126257D01*
X178551312Y-85146752D01*
X178499794Y-85157000D01*
X178342206Y-85157000D01*
X178290688Y-85146752D01*
X178187649Y-85126257D01*
X178042058Y-85065951D01*
X177911030Y-84978401D01*
X177799599Y-84866970D01*
X177712049Y-84735942D01*
X177651743Y-84590351D01*
X177621000Y-84435793D01*
X177621000Y-84278207D01*
X177651743Y-84123649D01*
X177712049Y-83978058D01*
X177799599Y-83847030D01*
X177911030Y-83735599D01*
X178042058Y-83648049D01*
X178187649Y-83587743D01*
X178290688Y-83567248D01*
X178342206Y-83557000D01*
X178499794Y-83557000D01*
X178551312Y-83567248D01*
G37*
G36*
X147833852Y-82293648D02*
G01*
X147936891Y-82314143D01*
X148082482Y-82374449D01*
X148213510Y-82461999D01*
X148324941Y-82573430D01*
X148412491Y-82704458D01*
X148472797Y-82850049D01*
X148503540Y-83004607D01*
X148503540Y-83162193D01*
X148472797Y-83316751D01*
X148412491Y-83462342D01*
X148324941Y-83593370D01*
X148213510Y-83704801D01*
X148082482Y-83792351D01*
X147936891Y-83852657D01*
X147833852Y-83873152D01*
X147782334Y-83883400D01*
X147624746Y-83883400D01*
X147573228Y-83873152D01*
X147470189Y-83852657D01*
X147324598Y-83792351D01*
X147193570Y-83704801D01*
X147082139Y-83593370D01*
X146994589Y-83462342D01*
X146934283Y-83316751D01*
X146903540Y-83162193D01*
X146903540Y-83004607D01*
X146934283Y-82850049D01*
X146994589Y-82704458D01*
X147082139Y-82573430D01*
X147193570Y-82461999D01*
X147324598Y-82374449D01*
X147470189Y-82314143D01*
X147573228Y-82293648D01*
X147624746Y-82283400D01*
X147782334Y-82283400D01*
X147833852Y-82293648D01*
G37*
G36*
X135803540Y-83883400D02*
G01*
X134203540Y-83883400D01*
X134203540Y-82283400D01*
X135803540Y-82283400D01*
X135803540Y-83883400D01*
G37*
G36*
X157993852Y-82293648D02*
G01*
X158096891Y-82314143D01*
X158242482Y-82374449D01*
X158373510Y-82461999D01*
X158484941Y-82573430D01*
X158572491Y-82704458D01*
X158632797Y-82850049D01*
X158663540Y-83004607D01*
X158663540Y-83162193D01*
X158632797Y-83316751D01*
X158572491Y-83462342D01*
X158484941Y-83593370D01*
X158373510Y-83704801D01*
X158242482Y-83792351D01*
X158096891Y-83852657D01*
X157993852Y-83873152D01*
X157942334Y-83883400D01*
X157784746Y-83883400D01*
X157733228Y-83873152D01*
X157630189Y-83852657D01*
X157484598Y-83792351D01*
X157353570Y-83704801D01*
X157242139Y-83593370D01*
X157154589Y-83462342D01*
X157094283Y-83316751D01*
X157063540Y-83162193D01*
X157063540Y-83004607D01*
X157094283Y-82850049D01*
X157154589Y-82704458D01*
X157242139Y-82573430D01*
X157353570Y-82461999D01*
X157484598Y-82374449D01*
X157630189Y-82314143D01*
X157733228Y-82293648D01*
X157784746Y-82283400D01*
X157942334Y-82283400D01*
X157993852Y-82293648D01*
G37*
G36*
X150373852Y-82293648D02*
G01*
X150476891Y-82314143D01*
X150622482Y-82374449D01*
X150753510Y-82461999D01*
X150864941Y-82573430D01*
X150952491Y-82704458D01*
X151012797Y-82850049D01*
X151043540Y-83004607D01*
X151043540Y-83162193D01*
X151012797Y-83316751D01*
X150952491Y-83462342D01*
X150864941Y-83593370D01*
X150753510Y-83704801D01*
X150622482Y-83792351D01*
X150476891Y-83852657D01*
X150373852Y-83873152D01*
X150322334Y-83883400D01*
X150164746Y-83883400D01*
X150113228Y-83873152D01*
X150010189Y-83852657D01*
X149864598Y-83792351D01*
X149733570Y-83704801D01*
X149622139Y-83593370D01*
X149534589Y-83462342D01*
X149474283Y-83316751D01*
X149443540Y-83162193D01*
X149443540Y-83004607D01*
X149474283Y-82850049D01*
X149534589Y-82704458D01*
X149622139Y-82573430D01*
X149733570Y-82461999D01*
X149864598Y-82374449D01*
X150010189Y-82314143D01*
X150113228Y-82293648D01*
X150164746Y-82283400D01*
X150322334Y-82283400D01*
X150373852Y-82293648D01*
G37*
G36*
X168153852Y-82293648D02*
G01*
X168256891Y-82314143D01*
X168402482Y-82374449D01*
X168533510Y-82461999D01*
X168644941Y-82573430D01*
X168732491Y-82704458D01*
X168792797Y-82850049D01*
X168823540Y-83004607D01*
X168823540Y-83162193D01*
X168792797Y-83316751D01*
X168732491Y-83462342D01*
X168644941Y-83593370D01*
X168533510Y-83704801D01*
X168402482Y-83792351D01*
X168256891Y-83852657D01*
X168153852Y-83873152D01*
X168102334Y-83883400D01*
X167944746Y-83883400D01*
X167893228Y-83873152D01*
X167790189Y-83852657D01*
X167644598Y-83792351D01*
X167513570Y-83704801D01*
X167402139Y-83593370D01*
X167314589Y-83462342D01*
X167254283Y-83316751D01*
X167223540Y-83162193D01*
X167223540Y-83004607D01*
X167254283Y-82850049D01*
X167314589Y-82704458D01*
X167402139Y-82573430D01*
X167513570Y-82461999D01*
X167644598Y-82374449D01*
X167790189Y-82314143D01*
X167893228Y-82293648D01*
X167944746Y-82283400D01*
X168102334Y-82283400D01*
X168153852Y-82293648D01*
G37*
G36*
X145293852Y-82293648D02*
G01*
X145396891Y-82314143D01*
X145542482Y-82374449D01*
X145673510Y-82461999D01*
X145784941Y-82573430D01*
X145872491Y-82704458D01*
X145932797Y-82850049D01*
X145963540Y-83004607D01*
X145963540Y-83162193D01*
X145932797Y-83316751D01*
X145872491Y-83462342D01*
X145784941Y-83593370D01*
X145673510Y-83704801D01*
X145542482Y-83792351D01*
X145396891Y-83852657D01*
X145293852Y-83873152D01*
X145242334Y-83883400D01*
X145084746Y-83883400D01*
X145033228Y-83873152D01*
X144930189Y-83852657D01*
X144784598Y-83792351D01*
X144653570Y-83704801D01*
X144542139Y-83593370D01*
X144454589Y-83462342D01*
X144394283Y-83316751D01*
X144363540Y-83162193D01*
X144363540Y-83004607D01*
X144394283Y-82850049D01*
X144454589Y-82704458D01*
X144542139Y-82573430D01*
X144653570Y-82461999D01*
X144784598Y-82374449D01*
X144930189Y-82314143D01*
X145033228Y-82293648D01*
X145084746Y-82283400D01*
X145242334Y-82283400D01*
X145293852Y-82293648D01*
G37*
G36*
X165613852Y-82293648D02*
G01*
X165716891Y-82314143D01*
X165862482Y-82374449D01*
X165993510Y-82461999D01*
X166104941Y-82573430D01*
X166192491Y-82704458D01*
X166252797Y-82850049D01*
X166283540Y-83004607D01*
X166283540Y-83162193D01*
X166252797Y-83316751D01*
X166192491Y-83462342D01*
X166104941Y-83593370D01*
X165993510Y-83704801D01*
X165862482Y-83792351D01*
X165716891Y-83852657D01*
X165613852Y-83873152D01*
X165562334Y-83883400D01*
X165404746Y-83883400D01*
X165353228Y-83873152D01*
X165250189Y-83852657D01*
X165104598Y-83792351D01*
X164973570Y-83704801D01*
X164862139Y-83593370D01*
X164774589Y-83462342D01*
X164714283Y-83316751D01*
X164683540Y-83162193D01*
X164683540Y-83004607D01*
X164714283Y-82850049D01*
X164774589Y-82704458D01*
X164862139Y-82573430D01*
X164973570Y-82461999D01*
X165104598Y-82374449D01*
X165250189Y-82314143D01*
X165353228Y-82293648D01*
X165404746Y-82283400D01*
X165562334Y-82283400D01*
X165613852Y-82293648D01*
G37*
G36*
X163073852Y-82293648D02*
G01*
X163176891Y-82314143D01*
X163322482Y-82374449D01*
X163453510Y-82461999D01*
X163564941Y-82573430D01*
X163652491Y-82704458D01*
X163712797Y-82850049D01*
X163743540Y-83004607D01*
X163743540Y-83162193D01*
X163712797Y-83316751D01*
X163652491Y-83462342D01*
X163564941Y-83593370D01*
X163453510Y-83704801D01*
X163322482Y-83792351D01*
X163176891Y-83852657D01*
X163073852Y-83873152D01*
X163022334Y-83883400D01*
X162864746Y-83883400D01*
X162813228Y-83873152D01*
X162710189Y-83852657D01*
X162564598Y-83792351D01*
X162433570Y-83704801D01*
X162322139Y-83593370D01*
X162234589Y-83462342D01*
X162174283Y-83316751D01*
X162143540Y-83162193D01*
X162143540Y-83004607D01*
X162174283Y-82850049D01*
X162234589Y-82704458D01*
X162322139Y-82573430D01*
X162433570Y-82461999D01*
X162564598Y-82374449D01*
X162710189Y-82314143D01*
X162813228Y-82293648D01*
X162864746Y-82283400D01*
X163022334Y-82283400D01*
X163073852Y-82293648D01*
G37*
G36*
X140213852Y-82293648D02*
G01*
X140316891Y-82314143D01*
X140462482Y-82374449D01*
X140593510Y-82461999D01*
X140704941Y-82573430D01*
X140792491Y-82704458D01*
X140852797Y-82850049D01*
X140883540Y-83004607D01*
X140883540Y-83162193D01*
X140852797Y-83316751D01*
X140792491Y-83462342D01*
X140704941Y-83593370D01*
X140593510Y-83704801D01*
X140462482Y-83792351D01*
X140316891Y-83852657D01*
X140213852Y-83873152D01*
X140162334Y-83883400D01*
X140004746Y-83883400D01*
X139953228Y-83873152D01*
X139850189Y-83852657D01*
X139704598Y-83792351D01*
X139573570Y-83704801D01*
X139462139Y-83593370D01*
X139374589Y-83462342D01*
X139314283Y-83316751D01*
X139283540Y-83162193D01*
X139283540Y-83004607D01*
X139314283Y-82850049D01*
X139374589Y-82704458D01*
X139462139Y-82573430D01*
X139573570Y-82461999D01*
X139704598Y-82374449D01*
X139850189Y-82314143D01*
X139953228Y-82293648D01*
X140004746Y-82283400D01*
X140162334Y-82283400D01*
X140213852Y-82293648D01*
G37*
G36*
X160533852Y-82293648D02*
G01*
X160636891Y-82314143D01*
X160782482Y-82374449D01*
X160913510Y-82461999D01*
X161024941Y-82573430D01*
X161112491Y-82704458D01*
X161172797Y-82850049D01*
X161203540Y-83004607D01*
X161203540Y-83162193D01*
X161172797Y-83316751D01*
X161112491Y-83462342D01*
X161024941Y-83593370D01*
X160913510Y-83704801D01*
X160782482Y-83792351D01*
X160636891Y-83852657D01*
X160533852Y-83873152D01*
X160482334Y-83883400D01*
X160324746Y-83883400D01*
X160273228Y-83873152D01*
X160170189Y-83852657D01*
X160024598Y-83792351D01*
X159893570Y-83704801D01*
X159782139Y-83593370D01*
X159694589Y-83462342D01*
X159634283Y-83316751D01*
X159603540Y-83162193D01*
X159603540Y-83004607D01*
X159634283Y-82850049D01*
X159694589Y-82704458D01*
X159782139Y-82573430D01*
X159893570Y-82461999D01*
X160024598Y-82374449D01*
X160170189Y-82314143D01*
X160273228Y-82293648D01*
X160324746Y-82283400D01*
X160482334Y-82283400D01*
X160533852Y-82293648D01*
G37*
G36*
X137673852Y-82293648D02*
G01*
X137776891Y-82314143D01*
X137922482Y-82374449D01*
X138053510Y-82461999D01*
X138164941Y-82573430D01*
X138252491Y-82704458D01*
X138312797Y-82850049D01*
X138343540Y-83004607D01*
X138343540Y-83162193D01*
X138312797Y-83316751D01*
X138252491Y-83462342D01*
X138164941Y-83593370D01*
X138053510Y-83704801D01*
X137922482Y-83792351D01*
X137776891Y-83852657D01*
X137673852Y-83873152D01*
X137622334Y-83883400D01*
X137464746Y-83883400D01*
X137413228Y-83873152D01*
X137310189Y-83852657D01*
X137164598Y-83792351D01*
X137033570Y-83704801D01*
X136922139Y-83593370D01*
X136834589Y-83462342D01*
X136774283Y-83316751D01*
X136743540Y-83162193D01*
X136743540Y-83004607D01*
X136774283Y-82850049D01*
X136834589Y-82704458D01*
X136922139Y-82573430D01*
X137033570Y-82461999D01*
X137164598Y-82374449D01*
X137310189Y-82314143D01*
X137413228Y-82293648D01*
X137464746Y-82283400D01*
X137622334Y-82283400D01*
X137673852Y-82293648D01*
G37*
G36*
X155453852Y-82293648D02*
G01*
X155556891Y-82314143D01*
X155702482Y-82374449D01*
X155833510Y-82461999D01*
X155944941Y-82573430D01*
X156032491Y-82704458D01*
X156092797Y-82850049D01*
X156123540Y-83004607D01*
X156123540Y-83162193D01*
X156092797Y-83316751D01*
X156032491Y-83462342D01*
X155944941Y-83593370D01*
X155833510Y-83704801D01*
X155702482Y-83792351D01*
X155556891Y-83852657D01*
X155453852Y-83873152D01*
X155402334Y-83883400D01*
X155244746Y-83883400D01*
X155193228Y-83873152D01*
X155090189Y-83852657D01*
X154944598Y-83792351D01*
X154813570Y-83704801D01*
X154702139Y-83593370D01*
X154614589Y-83462342D01*
X154554283Y-83316751D01*
X154523540Y-83162193D01*
X154523540Y-83004607D01*
X154554283Y-82850049D01*
X154614589Y-82704458D01*
X154702139Y-82573430D01*
X154813570Y-82461999D01*
X154944598Y-82374449D01*
X155090189Y-82314143D01*
X155193228Y-82293648D01*
X155244746Y-82283400D01*
X155402334Y-82283400D01*
X155453852Y-82293648D01*
G37*
G36*
X152913852Y-82293648D02*
G01*
X153016891Y-82314143D01*
X153162482Y-82374449D01*
X153293510Y-82461999D01*
X153404941Y-82573430D01*
X153492491Y-82704458D01*
X153552797Y-82850049D01*
X153583540Y-83004607D01*
X153583540Y-83162193D01*
X153552797Y-83316751D01*
X153492491Y-83462342D01*
X153404941Y-83593370D01*
X153293510Y-83704801D01*
X153162482Y-83792351D01*
X153016891Y-83852657D01*
X152913852Y-83873152D01*
X152862334Y-83883400D01*
X152704746Y-83883400D01*
X152653228Y-83873152D01*
X152550189Y-83852657D01*
X152404598Y-83792351D01*
X152273570Y-83704801D01*
X152162139Y-83593370D01*
X152074589Y-83462342D01*
X152014283Y-83316751D01*
X151983540Y-83162193D01*
X151983540Y-83004607D01*
X152014283Y-82850049D01*
X152074589Y-82704458D01*
X152162139Y-82573430D01*
X152273570Y-82461999D01*
X152404598Y-82374449D01*
X152550189Y-82314143D01*
X152653228Y-82293648D01*
X152704746Y-82283400D01*
X152862334Y-82283400D01*
X152913852Y-82293648D01*
G37*
G36*
X142753852Y-82293648D02*
G01*
X142856891Y-82314143D01*
X143002482Y-82374449D01*
X143133510Y-82461999D01*
X143244941Y-82573430D01*
X143332491Y-82704458D01*
X143392797Y-82850049D01*
X143423540Y-83004607D01*
X143423540Y-83162193D01*
X143392797Y-83316751D01*
X143332491Y-83462342D01*
X143244941Y-83593370D01*
X143133510Y-83704801D01*
X143002482Y-83792351D01*
X142856891Y-83852657D01*
X142753852Y-83873152D01*
X142702334Y-83883400D01*
X142544746Y-83883400D01*
X142493228Y-83873152D01*
X142390189Y-83852657D01*
X142244598Y-83792351D01*
X142113570Y-83704801D01*
X142002139Y-83593370D01*
X141914589Y-83462342D01*
X141854283Y-83316751D01*
X141823540Y-83162193D01*
X141823540Y-83004607D01*
X141854283Y-82850049D01*
X141914589Y-82704458D01*
X142002139Y-82573430D01*
X142113570Y-82461999D01*
X142244598Y-82374449D01*
X142390189Y-82314143D01*
X142493228Y-82293648D01*
X142544746Y-82283400D01*
X142702334Y-82283400D01*
X142753852Y-82293648D01*
G37*
G36*
X85471412Y-81139308D02*
G01*
X85574451Y-81159803D01*
X85720042Y-81220109D01*
X85851070Y-81307659D01*
X85962501Y-81419090D01*
X86050051Y-81550118D01*
X86110357Y-81695709D01*
X86141100Y-81850267D01*
X86141100Y-82007853D01*
X86110357Y-82162411D01*
X86050051Y-82308002D01*
X85962501Y-82439030D01*
X85851070Y-82550461D01*
X85720042Y-82638011D01*
X85574451Y-82698317D01*
X85471412Y-82718812D01*
X85419894Y-82729060D01*
X85262306Y-82729060D01*
X85210788Y-82718812D01*
X85107749Y-82698317D01*
X84962158Y-82638011D01*
X84831130Y-82550461D01*
X84719699Y-82439030D01*
X84632149Y-82308002D01*
X84571843Y-82162411D01*
X84541100Y-82007853D01*
X84541100Y-81850267D01*
X84571843Y-81695709D01*
X84632149Y-81550118D01*
X84719699Y-81419090D01*
X84831130Y-81307659D01*
X84962158Y-81220109D01*
X85107749Y-81159803D01*
X85210788Y-81139308D01*
X85262306Y-81129060D01*
X85419894Y-81129060D01*
X85471412Y-81139308D01*
G37*
G36*
X75311412Y-81139308D02*
G01*
X75414451Y-81159803D01*
X75560042Y-81220109D01*
X75691070Y-81307659D01*
X75802501Y-81419090D01*
X75890051Y-81550118D01*
X75950357Y-81695709D01*
X75981100Y-81850267D01*
X75981100Y-82007853D01*
X75950357Y-82162411D01*
X75890051Y-82308002D01*
X75802501Y-82439030D01*
X75691070Y-82550461D01*
X75560042Y-82638011D01*
X75414451Y-82698317D01*
X75311412Y-82718812D01*
X75259894Y-82729060D01*
X75102306Y-82729060D01*
X75050788Y-82718812D01*
X74947749Y-82698317D01*
X74802158Y-82638011D01*
X74671130Y-82550461D01*
X74559699Y-82439030D01*
X74472149Y-82308002D01*
X74411843Y-82162411D01*
X74381100Y-82007853D01*
X74381100Y-81850267D01*
X74411843Y-81695709D01*
X74472149Y-81550118D01*
X74559699Y-81419090D01*
X74671130Y-81307659D01*
X74802158Y-81220109D01*
X74947749Y-81159803D01*
X75050788Y-81139308D01*
X75102306Y-81129060D01*
X75259894Y-81129060D01*
X75311412Y-81139308D01*
G37*
G36*
X178551312Y-81067248D02*
G01*
X178654351Y-81087743D01*
X178799942Y-81148049D01*
X178930970Y-81235599D01*
X179042401Y-81347030D01*
X179129951Y-81478058D01*
X179190257Y-81623649D01*
X179221000Y-81778207D01*
X179221000Y-81935793D01*
X179190257Y-82090351D01*
X179129951Y-82235942D01*
X179042401Y-82366970D01*
X178930970Y-82478401D01*
X178799942Y-82565951D01*
X178654351Y-82626257D01*
X178551312Y-82646752D01*
X178499794Y-82657000D01*
X178342206Y-82657000D01*
X178290688Y-82646752D01*
X178187649Y-82626257D01*
X178042058Y-82565951D01*
X177911030Y-82478401D01*
X177799599Y-82366970D01*
X177712049Y-82235942D01*
X177651743Y-82090351D01*
X177621000Y-81935793D01*
X177621000Y-81778207D01*
X177651743Y-81623649D01*
X177712049Y-81478058D01*
X177799599Y-81347030D01*
X177911030Y-81235599D01*
X178042058Y-81148049D01*
X178187649Y-81087743D01*
X178290688Y-81067248D01*
X178342206Y-81057000D01*
X178499794Y-81057000D01*
X178551312Y-81067248D01*
G37*
G36*
X68176312Y-81042248D02*
G01*
X68279351Y-81062743D01*
X68424942Y-81123049D01*
X68555970Y-81210599D01*
X68667401Y-81322030D01*
X68754951Y-81453058D01*
X68815257Y-81598649D01*
X68846000Y-81753207D01*
X68846000Y-81910793D01*
X68815257Y-82065351D01*
X68754951Y-82210942D01*
X68667401Y-82341970D01*
X68555970Y-82453401D01*
X68424942Y-82540951D01*
X68279351Y-82601257D01*
X68176312Y-82621752D01*
X68124794Y-82632000D01*
X67967206Y-82632000D01*
X67915688Y-82621752D01*
X67812649Y-82601257D01*
X67667058Y-82540951D01*
X67536030Y-82453401D01*
X67424599Y-82341970D01*
X67337049Y-82210942D01*
X67276743Y-82065351D01*
X67246000Y-81910793D01*
X67246000Y-81753207D01*
X67276743Y-81598649D01*
X67337049Y-81453058D01*
X67424599Y-81322030D01*
X67536030Y-81210599D01*
X67667058Y-81123049D01*
X67812649Y-81062743D01*
X67915688Y-81042248D01*
X67967206Y-81032000D01*
X68124794Y-81032000D01*
X68176312Y-81042248D01*
G37*
G36*
X71346000Y-82632000D02*
G01*
X69746000Y-82632000D01*
X69746000Y-81032000D01*
X71346000Y-81032000D01*
X71346000Y-82632000D01*
G37*
G36*
X173039767Y-81140822D02*
G01*
X173130761Y-81178513D01*
X173176259Y-81197359D01*
X173257965Y-81251954D01*
X173299097Y-81279437D01*
X173403563Y-81383903D01*
X173403564Y-81383905D01*
X173485641Y-81506741D01*
X173485641Y-81506742D01*
X173542178Y-81643233D01*
X173571000Y-81788131D01*
X173571000Y-81935869D01*
X173542178Y-82080767D01*
X173508360Y-82162409D01*
X173485641Y-82217259D01*
X173441447Y-82283400D01*
X173403563Y-82340097D01*
X173299097Y-82444563D01*
X173273002Y-82461999D01*
X173176259Y-82526641D01*
X173141711Y-82540951D01*
X173039767Y-82583178D01*
X172894869Y-82612000D01*
X172747131Y-82612000D01*
X172602233Y-82583178D01*
X172500289Y-82540951D01*
X172465741Y-82526641D01*
X172368998Y-82461999D01*
X172342903Y-82444563D01*
X172238437Y-82340097D01*
X172200553Y-82283400D01*
X172156359Y-82217259D01*
X172133640Y-82162409D01*
X172099822Y-82080767D01*
X172071000Y-81935869D01*
X172071000Y-81788131D01*
X172099822Y-81643233D01*
X172156359Y-81506742D01*
X172156359Y-81506741D01*
X172238436Y-81383905D01*
X172238437Y-81383903D01*
X172342903Y-81279437D01*
X172384035Y-81251954D01*
X172465741Y-81197359D01*
X172511239Y-81178513D01*
X172602233Y-81140822D01*
X172747131Y-81112000D01*
X172894869Y-81112000D01*
X173039767Y-81140822D01*
G37*
G36*
X178576312Y-76217248D02*
G01*
X178679351Y-76237743D01*
X178824942Y-76298049D01*
X178955970Y-76385599D01*
X179067401Y-76497030D01*
X179154951Y-76628058D01*
X179215257Y-76773649D01*
X179225208Y-76823676D01*
X179246000Y-76928206D01*
X179246000Y-77085794D01*
X179241782Y-77107000D01*
X179215257Y-77240351D01*
X179154951Y-77385942D01*
X179067401Y-77516970D01*
X178955970Y-77628401D01*
X178824942Y-77715951D01*
X178679351Y-77776257D01*
X178576312Y-77796752D01*
X178524794Y-77807000D01*
X178367206Y-77807000D01*
X178315688Y-77796752D01*
X178212649Y-77776257D01*
X178067058Y-77715951D01*
X177936030Y-77628401D01*
X177824599Y-77516970D01*
X177737049Y-77385942D01*
X177676743Y-77240351D01*
X177650218Y-77107000D01*
X177646000Y-77085794D01*
X177646000Y-76928206D01*
X177666792Y-76823676D01*
X177676743Y-76773649D01*
X177737049Y-76628058D01*
X177824599Y-76497030D01*
X177936030Y-76385599D01*
X178067058Y-76298049D01*
X178212649Y-76237743D01*
X178315688Y-76217248D01*
X178367206Y-76207000D01*
X178524794Y-76207000D01*
X178576312Y-76217248D01*
G37*
G36*
X173039767Y-76260822D02*
G01*
X173129640Y-76298049D01*
X173176259Y-76317359D01*
X173183761Y-76322372D01*
X173299097Y-76399437D01*
X173403563Y-76503903D01*
X173431046Y-76545035D01*
X173485641Y-76626741D01*
X173502566Y-76667603D01*
X173542178Y-76763233D01*
X173571000Y-76908131D01*
X173571000Y-77055869D01*
X173542178Y-77200767D01*
X173510087Y-77278240D01*
X173485641Y-77337259D01*
X173453112Y-77385942D01*
X173403563Y-77460097D01*
X173299097Y-77564563D01*
X173257965Y-77592046D01*
X173176259Y-77646641D01*
X173130761Y-77665487D01*
X173039767Y-77703178D01*
X172894869Y-77732000D01*
X172747131Y-77732000D01*
X172602233Y-77703178D01*
X172511239Y-77665487D01*
X172465741Y-77646641D01*
X172384035Y-77592046D01*
X172342903Y-77564563D01*
X172238437Y-77460097D01*
X172188888Y-77385942D01*
X172156359Y-77337259D01*
X172131913Y-77278240D01*
X172099822Y-77200767D01*
X172071000Y-77055869D01*
X172071000Y-76908131D01*
X172099822Y-76763233D01*
X172139434Y-76667603D01*
X172156359Y-76626741D01*
X172210954Y-76545035D01*
X172238437Y-76503903D01*
X172342903Y-76399437D01*
X172458239Y-76322372D01*
X172465741Y-76317359D01*
X172512360Y-76298049D01*
X172602233Y-76260822D01*
X172747131Y-76232000D01*
X172894869Y-76232000D01*
X173039767Y-76260822D01*
G37*
G36*
X232633561Y-72085760D02*
G01*
X233124930Y-72289291D01*
X233124932Y-72289292D01*
X233210250Y-72346300D01*
X233567150Y-72584773D01*
X233943227Y-72960850D01*
X233997201Y-73041628D01*
X234110180Y-73210712D01*
X234238709Y-73403070D01*
X234442240Y-73894439D01*
X234546000Y-74416073D01*
X234546000Y-74947927D01*
X234442240Y-75469561D01*
X234253832Y-75924420D01*
X234238708Y-75960932D01*
X234097443Y-76172350D01*
X233943227Y-76403150D01*
X233567150Y-76779227D01*
X233346040Y-76926968D01*
X233124932Y-77074708D01*
X233124931Y-77074709D01*
X233124930Y-77074709D01*
X232633561Y-77278240D01*
X232111927Y-77382000D01*
X231580073Y-77382000D01*
X231058439Y-77278240D01*
X230567070Y-77074709D01*
X230567069Y-77074709D01*
X230567068Y-77074708D01*
X230345960Y-76926968D01*
X230124850Y-76779227D01*
X229748773Y-76403150D01*
X229594557Y-76172350D01*
X229453292Y-75960932D01*
X229438168Y-75924420D01*
X229249760Y-75469561D01*
X229146000Y-74947927D01*
X229146000Y-74416073D01*
X229249760Y-73894439D01*
X229453291Y-73403070D01*
X229581821Y-73210712D01*
X229694799Y-73041628D01*
X229748773Y-72960850D01*
X230124850Y-72584773D01*
X230481750Y-72346300D01*
X230567068Y-72289292D01*
X230567070Y-72289291D01*
X231058439Y-72085760D01*
X231580073Y-71982000D01*
X232111927Y-71982000D01*
X232633561Y-72085760D01*
G37*
G36*
X67208561Y-72085760D02*
G01*
X67699930Y-72289291D01*
X67699932Y-72289292D01*
X67785250Y-72346300D01*
X68142150Y-72584773D01*
X68518227Y-72960850D01*
X68572201Y-73041628D01*
X68685180Y-73210712D01*
X68813709Y-73403070D01*
X69017240Y-73894439D01*
X69121000Y-74416073D01*
X69121000Y-74947927D01*
X69017240Y-75469561D01*
X68828832Y-75924420D01*
X68813708Y-75960932D01*
X68672443Y-76172350D01*
X68518227Y-76403150D01*
X68142150Y-76779227D01*
X67921040Y-76926968D01*
X67699932Y-77074708D01*
X67699931Y-77074709D01*
X67699930Y-77074709D01*
X67208561Y-77278240D01*
X66686927Y-77382000D01*
X66155073Y-77382000D01*
X65633439Y-77278240D01*
X65142070Y-77074709D01*
X65142069Y-77074709D01*
X65142068Y-77074708D01*
X64920960Y-76926968D01*
X64699850Y-76779227D01*
X64323773Y-76403150D01*
X64169557Y-76172350D01*
X64028292Y-75960932D01*
X64013168Y-75924420D01*
X63824760Y-75469561D01*
X63721000Y-74947927D01*
X63721000Y-74416073D01*
X63824760Y-73894439D01*
X64028291Y-73403070D01*
X64156821Y-73210712D01*
X64269799Y-73041628D01*
X64323773Y-72960850D01*
X64699850Y-72584773D01*
X65056750Y-72346300D01*
X65142068Y-72289292D01*
X65142070Y-72289291D01*
X65633439Y-72085760D01*
X66155073Y-71982000D01*
X66686927Y-71982000D01*
X67208561Y-72085760D01*
G37*
G36*
X163073852Y-74673648D02*
G01*
X163176891Y-74694143D01*
X163322482Y-74754449D01*
X163453510Y-74841999D01*
X163564941Y-74953430D01*
X163652491Y-75084458D01*
X163712797Y-75230049D01*
X163743540Y-75384607D01*
X163743540Y-75542193D01*
X163712797Y-75696751D01*
X163652491Y-75842342D01*
X163564941Y-75973370D01*
X163453510Y-76084801D01*
X163322482Y-76172351D01*
X163176891Y-76232657D01*
X163073852Y-76253152D01*
X163022334Y-76263400D01*
X162864746Y-76263400D01*
X162813228Y-76253152D01*
X162710189Y-76232657D01*
X162564598Y-76172351D01*
X162433570Y-76084801D01*
X162322139Y-75973370D01*
X162234589Y-75842342D01*
X162174283Y-75696751D01*
X162143540Y-75542193D01*
X162143540Y-75384607D01*
X162174283Y-75230049D01*
X162234589Y-75084458D01*
X162322139Y-74953430D01*
X162433570Y-74841999D01*
X162564598Y-74754449D01*
X162710189Y-74694143D01*
X162813228Y-74673648D01*
X162864746Y-74663400D01*
X163022334Y-74663400D01*
X163073852Y-74673648D01*
G37*
G36*
X168153852Y-74673648D02*
G01*
X168256891Y-74694143D01*
X168402482Y-74754449D01*
X168533510Y-74841999D01*
X168644941Y-74953430D01*
X168732491Y-75084458D01*
X168792797Y-75230049D01*
X168823540Y-75384607D01*
X168823540Y-75542193D01*
X168792797Y-75696751D01*
X168732491Y-75842342D01*
X168644941Y-75973370D01*
X168533510Y-76084801D01*
X168402482Y-76172351D01*
X168256891Y-76232657D01*
X168153852Y-76253152D01*
X168102334Y-76263400D01*
X167944746Y-76263400D01*
X167893228Y-76253152D01*
X167790189Y-76232657D01*
X167644598Y-76172351D01*
X167513570Y-76084801D01*
X167402139Y-75973370D01*
X167314589Y-75842342D01*
X167254283Y-75696751D01*
X167223540Y-75542193D01*
X167223540Y-75384607D01*
X167254283Y-75230049D01*
X167314589Y-75084458D01*
X167402139Y-74953430D01*
X167513570Y-74841999D01*
X167644598Y-74754449D01*
X167790189Y-74694143D01*
X167893228Y-74673648D01*
X167944746Y-74663400D01*
X168102334Y-74663400D01*
X168153852Y-74673648D01*
G37*
G36*
X165613852Y-74673648D02*
G01*
X165716891Y-74694143D01*
X165862482Y-74754449D01*
X165993510Y-74841999D01*
X166104941Y-74953430D01*
X166192491Y-75084458D01*
X166252797Y-75230049D01*
X166283540Y-75384607D01*
X166283540Y-75542193D01*
X166252797Y-75696751D01*
X166192491Y-75842342D01*
X166104941Y-75973370D01*
X165993510Y-76084801D01*
X165862482Y-76172351D01*
X165716891Y-76232657D01*
X165613852Y-76253152D01*
X165562334Y-76263400D01*
X165404746Y-76263400D01*
X165353228Y-76253152D01*
X165250189Y-76232657D01*
X165104598Y-76172351D01*
X164973570Y-76084801D01*
X164862139Y-75973370D01*
X164774589Y-75842342D01*
X164714283Y-75696751D01*
X164683540Y-75542193D01*
X164683540Y-75384607D01*
X164714283Y-75230049D01*
X164774589Y-75084458D01*
X164862139Y-74953430D01*
X164973570Y-74841999D01*
X165104598Y-74754449D01*
X165250189Y-74694143D01*
X165353228Y-74673648D01*
X165404746Y-74663400D01*
X165562334Y-74663400D01*
X165613852Y-74673648D01*
G37*
G36*
X160533852Y-74673648D02*
G01*
X160636891Y-74694143D01*
X160782482Y-74754449D01*
X160913510Y-74841999D01*
X161024941Y-74953430D01*
X161112491Y-75084458D01*
X161172797Y-75230049D01*
X161203540Y-75384607D01*
X161203540Y-75542193D01*
X161172797Y-75696751D01*
X161112491Y-75842342D01*
X161024941Y-75973370D01*
X160913510Y-76084801D01*
X160782482Y-76172351D01*
X160636891Y-76232657D01*
X160533852Y-76253152D01*
X160482334Y-76263400D01*
X160324746Y-76263400D01*
X160273228Y-76253152D01*
X160170189Y-76232657D01*
X160024598Y-76172351D01*
X159893570Y-76084801D01*
X159782139Y-75973370D01*
X159694589Y-75842342D01*
X159634283Y-75696751D01*
X159603540Y-75542193D01*
X159603540Y-75384607D01*
X159634283Y-75230049D01*
X159694589Y-75084458D01*
X159782139Y-74953430D01*
X159893570Y-74841999D01*
X160024598Y-74754449D01*
X160170189Y-74694143D01*
X160273228Y-74673648D01*
X160324746Y-74663400D01*
X160482334Y-74663400D01*
X160533852Y-74673648D01*
G37*
G36*
X157993852Y-74673648D02*
G01*
X158096891Y-74694143D01*
X158242482Y-74754449D01*
X158373510Y-74841999D01*
X158484941Y-74953430D01*
X158572491Y-75084458D01*
X158632797Y-75230049D01*
X158663540Y-75384607D01*
X158663540Y-75542193D01*
X158632797Y-75696751D01*
X158572491Y-75842342D01*
X158484941Y-75973370D01*
X158373510Y-76084801D01*
X158242482Y-76172351D01*
X158096891Y-76232657D01*
X157993852Y-76253152D01*
X157942334Y-76263400D01*
X157784746Y-76263400D01*
X157733228Y-76253152D01*
X157630189Y-76232657D01*
X157484598Y-76172351D01*
X157353570Y-76084801D01*
X157242139Y-75973370D01*
X157154589Y-75842342D01*
X157094283Y-75696751D01*
X157063540Y-75542193D01*
X157063540Y-75384607D01*
X157094283Y-75230049D01*
X157154589Y-75084458D01*
X157242139Y-74953430D01*
X157353570Y-74841999D01*
X157484598Y-74754449D01*
X157630189Y-74694143D01*
X157733228Y-74673648D01*
X157784746Y-74663400D01*
X157942334Y-74663400D01*
X157993852Y-74673648D01*
G37*
G36*
X155453852Y-74673648D02*
G01*
X155556891Y-74694143D01*
X155702482Y-74754449D01*
X155833510Y-74841999D01*
X155944941Y-74953430D01*
X156032491Y-75084458D01*
X156092797Y-75230049D01*
X156123540Y-75384607D01*
X156123540Y-75542193D01*
X156092797Y-75696751D01*
X156032491Y-75842342D01*
X155944941Y-75973370D01*
X155833510Y-76084801D01*
X155702482Y-76172351D01*
X155556891Y-76232657D01*
X155453852Y-76253152D01*
X155402334Y-76263400D01*
X155244746Y-76263400D01*
X155193228Y-76253152D01*
X155090189Y-76232657D01*
X154944598Y-76172351D01*
X154813570Y-76084801D01*
X154702139Y-75973370D01*
X154614589Y-75842342D01*
X154554283Y-75696751D01*
X154523540Y-75542193D01*
X154523540Y-75384607D01*
X154554283Y-75230049D01*
X154614589Y-75084458D01*
X154702139Y-74953430D01*
X154813570Y-74841999D01*
X154944598Y-74754449D01*
X155090189Y-74694143D01*
X155193228Y-74673648D01*
X155244746Y-74663400D01*
X155402334Y-74663400D01*
X155453852Y-74673648D01*
G37*
G36*
X150373852Y-74673648D02*
G01*
X150476891Y-74694143D01*
X150622482Y-74754449D01*
X150753510Y-74841999D01*
X150864941Y-74953430D01*
X150952491Y-75084458D01*
X151012797Y-75230049D01*
X151043540Y-75384607D01*
X151043540Y-75542193D01*
X151012797Y-75696751D01*
X150952491Y-75842342D01*
X150864941Y-75973370D01*
X150753510Y-76084801D01*
X150622482Y-76172351D01*
X150476891Y-76232657D01*
X150373852Y-76253152D01*
X150322334Y-76263400D01*
X150164746Y-76263400D01*
X150113228Y-76253152D01*
X150010189Y-76232657D01*
X149864598Y-76172351D01*
X149733570Y-76084801D01*
X149622139Y-75973370D01*
X149534589Y-75842342D01*
X149474283Y-75696751D01*
X149443540Y-75542193D01*
X149443540Y-75384607D01*
X149474283Y-75230049D01*
X149534589Y-75084458D01*
X149622139Y-74953430D01*
X149733570Y-74841999D01*
X149864598Y-74754449D01*
X150010189Y-74694143D01*
X150113228Y-74673648D01*
X150164746Y-74663400D01*
X150322334Y-74663400D01*
X150373852Y-74673648D01*
G37*
G36*
X135133852Y-74673648D02*
G01*
X135236891Y-74694143D01*
X135382482Y-74754449D01*
X135513510Y-74841999D01*
X135624941Y-74953430D01*
X135712491Y-75084458D01*
X135772797Y-75230049D01*
X135803540Y-75384607D01*
X135803540Y-75542193D01*
X135772797Y-75696751D01*
X135712491Y-75842342D01*
X135624941Y-75973370D01*
X135513510Y-76084801D01*
X135382482Y-76172351D01*
X135236891Y-76232657D01*
X135133852Y-76253152D01*
X135082334Y-76263400D01*
X134924746Y-76263400D01*
X134873228Y-76253152D01*
X134770189Y-76232657D01*
X134624598Y-76172351D01*
X134493570Y-76084801D01*
X134382139Y-75973370D01*
X134294589Y-75842342D01*
X134234283Y-75696751D01*
X134203540Y-75542193D01*
X134203540Y-75384607D01*
X134234283Y-75230049D01*
X134294589Y-75084458D01*
X134382139Y-74953430D01*
X134493570Y-74841999D01*
X134624598Y-74754449D01*
X134770189Y-74694143D01*
X134873228Y-74673648D01*
X134924746Y-74663400D01*
X135082334Y-74663400D01*
X135133852Y-74673648D01*
G37*
G36*
X137673852Y-74673648D02*
G01*
X137776891Y-74694143D01*
X137922482Y-74754449D01*
X138053510Y-74841999D01*
X138164941Y-74953430D01*
X138252491Y-75084458D01*
X138312797Y-75230049D01*
X138343540Y-75384607D01*
X138343540Y-75542193D01*
X138312797Y-75696751D01*
X138252491Y-75842342D01*
X138164941Y-75973370D01*
X138053510Y-76084801D01*
X137922482Y-76172351D01*
X137776891Y-76232657D01*
X137673852Y-76253152D01*
X137622334Y-76263400D01*
X137464746Y-76263400D01*
X137413228Y-76253152D01*
X137310189Y-76232657D01*
X137164598Y-76172351D01*
X137033570Y-76084801D01*
X136922139Y-75973370D01*
X136834589Y-75842342D01*
X136774283Y-75696751D01*
X136743540Y-75542193D01*
X136743540Y-75384607D01*
X136774283Y-75230049D01*
X136834589Y-75084458D01*
X136922139Y-74953430D01*
X137033570Y-74841999D01*
X137164598Y-74754449D01*
X137310189Y-74694143D01*
X137413228Y-74673648D01*
X137464746Y-74663400D01*
X137622334Y-74663400D01*
X137673852Y-74673648D01*
G37*
G36*
X140213852Y-74673648D02*
G01*
X140316891Y-74694143D01*
X140462482Y-74754449D01*
X140593510Y-74841999D01*
X140704941Y-74953430D01*
X140792491Y-75084458D01*
X140852797Y-75230049D01*
X140883540Y-75384607D01*
X140883540Y-75542193D01*
X140852797Y-75696751D01*
X140792491Y-75842342D01*
X140704941Y-75973370D01*
X140593510Y-76084801D01*
X140462482Y-76172351D01*
X140316891Y-76232657D01*
X140213852Y-76253152D01*
X140162334Y-76263400D01*
X140004746Y-76263400D01*
X139953228Y-76253152D01*
X139850189Y-76232657D01*
X139704598Y-76172351D01*
X139573570Y-76084801D01*
X139462139Y-75973370D01*
X139374589Y-75842342D01*
X139314283Y-75696751D01*
X139283540Y-75542193D01*
X139283540Y-75384607D01*
X139314283Y-75230049D01*
X139374589Y-75084458D01*
X139462139Y-74953430D01*
X139573570Y-74841999D01*
X139704598Y-74754449D01*
X139850189Y-74694143D01*
X139953228Y-74673648D01*
X140004746Y-74663400D01*
X140162334Y-74663400D01*
X140213852Y-74673648D01*
G37*
G36*
X142753852Y-74673648D02*
G01*
X142856891Y-74694143D01*
X143002482Y-74754449D01*
X143133510Y-74841999D01*
X143244941Y-74953430D01*
X143332491Y-75084458D01*
X143392797Y-75230049D01*
X143423540Y-75384607D01*
X143423540Y-75542193D01*
X143392797Y-75696751D01*
X143332491Y-75842342D01*
X143244941Y-75973370D01*
X143133510Y-76084801D01*
X143002482Y-76172351D01*
X142856891Y-76232657D01*
X142753852Y-76253152D01*
X142702334Y-76263400D01*
X142544746Y-76263400D01*
X142493228Y-76253152D01*
X142390189Y-76232657D01*
X142244598Y-76172351D01*
X142113570Y-76084801D01*
X142002139Y-75973370D01*
X141914589Y-75842342D01*
X141854283Y-75696751D01*
X141823540Y-75542193D01*
X141823540Y-75384607D01*
X141854283Y-75230049D01*
X141914589Y-75084458D01*
X142002139Y-74953430D01*
X142113570Y-74841999D01*
X142244598Y-74754449D01*
X142390189Y-74694143D01*
X142493228Y-74673648D01*
X142544746Y-74663400D01*
X142702334Y-74663400D01*
X142753852Y-74673648D01*
G37*
G36*
X145293852Y-74673648D02*
G01*
X145396891Y-74694143D01*
X145542482Y-74754449D01*
X145673510Y-74841999D01*
X145784941Y-74953430D01*
X145872491Y-75084458D01*
X145932797Y-75230049D01*
X145963540Y-75384607D01*
X145963540Y-75542193D01*
X145932797Y-75696751D01*
X145872491Y-75842342D01*
X145784941Y-75973370D01*
X145673510Y-76084801D01*
X145542482Y-76172351D01*
X145396891Y-76232657D01*
X145293852Y-76253152D01*
X145242334Y-76263400D01*
X145084746Y-76263400D01*
X145033228Y-76253152D01*
X144930189Y-76232657D01*
X144784598Y-76172351D01*
X144653570Y-76084801D01*
X144542139Y-75973370D01*
X144454589Y-75842342D01*
X144394283Y-75696751D01*
X144363540Y-75542193D01*
X144363540Y-75384607D01*
X144394283Y-75230049D01*
X144454589Y-75084458D01*
X144542139Y-74953430D01*
X144653570Y-74841999D01*
X144784598Y-74754449D01*
X144930189Y-74694143D01*
X145033228Y-74673648D01*
X145084746Y-74663400D01*
X145242334Y-74663400D01*
X145293852Y-74673648D01*
G37*
G36*
X147833852Y-74673648D02*
G01*
X147936891Y-74694143D01*
X148082482Y-74754449D01*
X148213510Y-74841999D01*
X148324941Y-74953430D01*
X148412491Y-75084458D01*
X148472797Y-75230049D01*
X148503540Y-75384607D01*
X148503540Y-75542193D01*
X148472797Y-75696751D01*
X148412491Y-75842342D01*
X148324941Y-75973370D01*
X148213510Y-76084801D01*
X148082482Y-76172351D01*
X147936891Y-76232657D01*
X147833852Y-76253152D01*
X147782334Y-76263400D01*
X147624746Y-76263400D01*
X147573228Y-76253152D01*
X147470189Y-76232657D01*
X147324598Y-76172351D01*
X147193570Y-76084801D01*
X147082139Y-75973370D01*
X146994589Y-75842342D01*
X146934283Y-75696751D01*
X146903540Y-75542193D01*
X146903540Y-75384607D01*
X146934283Y-75230049D01*
X146994589Y-75084458D01*
X147082139Y-74953430D01*
X147193570Y-74841999D01*
X147324598Y-74754449D01*
X147470189Y-74694143D01*
X147573228Y-74673648D01*
X147624746Y-74663400D01*
X147782334Y-74663400D01*
X147833852Y-74673648D01*
G37*
G36*
X152913852Y-74673648D02*
G01*
X153016891Y-74694143D01*
X153162482Y-74754449D01*
X153293510Y-74841999D01*
X153404941Y-74953430D01*
X153492491Y-75084458D01*
X153552797Y-75230049D01*
X153583540Y-75384607D01*
X153583540Y-75542193D01*
X153552797Y-75696751D01*
X153492491Y-75842342D01*
X153404941Y-75973370D01*
X153293510Y-76084801D01*
X153162482Y-76172351D01*
X153016891Y-76232657D01*
X152913852Y-76253152D01*
X152862334Y-76263400D01*
X152704746Y-76263400D01*
X152653228Y-76253152D01*
X152550189Y-76232657D01*
X152404598Y-76172351D01*
X152273570Y-76084801D01*
X152162139Y-75973370D01*
X152074589Y-75842342D01*
X152014283Y-75696751D01*
X151983540Y-75542193D01*
X151983540Y-75384607D01*
X152014283Y-75230049D01*
X152074589Y-75084458D01*
X152162139Y-74953430D01*
X152273570Y-74841999D01*
X152404598Y-74754449D01*
X152550189Y-74694143D01*
X152653228Y-74673648D01*
X152704746Y-74663400D01*
X152862334Y-74663400D01*
X152913852Y-74673648D01*
G37*
G36*
X178576312Y-73717248D02*
G01*
X178679351Y-73737743D01*
X178824942Y-73798049D01*
X178955970Y-73885599D01*
X179067401Y-73997030D01*
X179154951Y-74128058D01*
X179215257Y-74273649D01*
X179225973Y-74327525D01*
X179243587Y-74416073D01*
X179246000Y-74428207D01*
X179246000Y-74585793D01*
X179215257Y-74740351D01*
X179154951Y-74885942D01*
X179067401Y-75016970D01*
X178955970Y-75128401D01*
X178824942Y-75215951D01*
X178679351Y-75276257D01*
X178576312Y-75296752D01*
X178524794Y-75307000D01*
X178367206Y-75307000D01*
X178315688Y-75296752D01*
X178212649Y-75276257D01*
X178067058Y-75215951D01*
X177936030Y-75128401D01*
X177824599Y-75016970D01*
X177737049Y-74885942D01*
X177676743Y-74740351D01*
X177646000Y-74585793D01*
X177646000Y-74428207D01*
X177648414Y-74416073D01*
X177666027Y-74327525D01*
X177676743Y-74273649D01*
X177737049Y-74128058D01*
X177824599Y-73997030D01*
X177936030Y-73885599D01*
X178067058Y-73798049D01*
X178212649Y-73737743D01*
X178315688Y-73717248D01*
X178367206Y-73707000D01*
X178524794Y-73707000D01*
X178576312Y-73717248D01*
G37*
M02*
