G04 #@! TF.GenerationSoftware,KiCad,Pcbnew,5.1.6-c6e7f7d~87~ubuntu20.04.1*
G04 #@! TF.CreationDate,2020-07-20T09:25:59+02:00*
G04 #@! TF.ProjectId,x-LedChaser,782d4c65-6443-4686-9173-65722e6b6963,1.0*
G04 #@! TF.SameCoordinates,Original*
G04 #@! TF.FileFunction,Legend,Bot*
G04 #@! TF.FilePolarity,Positive*
%FSLAX46Y46*%
G04 Gerber Fmt 4.6, Leading zero omitted, Abs format (unit mm)*
G04 Created by KiCad (PCBNEW 5.1.6-c6e7f7d~87~ubuntu20.04.1) date 2020-07-20 09:25:59*
%MOMM*%
%LPD*%
G01*
G04 APERTURE LIST*
%ADD10C,0.152400*%
%ADD11C,0.010000*%
G04 APERTURE END LIST*
D10*
X227279320Y-74591333D02*
X226795511Y-74591333D01*
X227376082Y-74881619D02*
X227037416Y-73865619D01*
X226698749Y-74881619D01*
X226505225Y-73865619D02*
X225924654Y-73865619D01*
X226214940Y-74881619D02*
X226214940Y-73865619D01*
X225585987Y-74881619D02*
X225585987Y-74204285D01*
X225585987Y-74301047D02*
X225537606Y-74252666D01*
X225440844Y-74204285D01*
X225295701Y-74204285D01*
X225198940Y-74252666D01*
X225150559Y-74349428D01*
X225150559Y-74881619D01*
X225150559Y-74349428D02*
X225102178Y-74252666D01*
X225005416Y-74204285D01*
X224860273Y-74204285D01*
X224763511Y-74252666D01*
X224715130Y-74349428D01*
X224715130Y-74881619D01*
X223844273Y-74833238D02*
X223941035Y-74881619D01*
X224134559Y-74881619D01*
X224231320Y-74833238D01*
X224279701Y-74736476D01*
X224279701Y-74349428D01*
X224231320Y-74252666D01*
X224134559Y-74204285D01*
X223941035Y-74204285D01*
X223844273Y-74252666D01*
X223795892Y-74349428D01*
X223795892Y-74446190D01*
X224279701Y-74542952D01*
X222925035Y-74204285D02*
X222925035Y-75026761D01*
X222973416Y-75123523D01*
X223021797Y-75171904D01*
X223118559Y-75220285D01*
X223263701Y-75220285D01*
X223360463Y-75171904D01*
X222925035Y-74833238D02*
X223021797Y-74881619D01*
X223215320Y-74881619D01*
X223312082Y-74833238D01*
X223360463Y-74784857D01*
X223408844Y-74688095D01*
X223408844Y-74397809D01*
X223360463Y-74301047D01*
X223312082Y-74252666D01*
X223215320Y-74204285D01*
X223021797Y-74204285D01*
X222925035Y-74252666D01*
X222005797Y-74881619D02*
X222005797Y-74349428D01*
X222054178Y-74252666D01*
X222150940Y-74204285D01*
X222344463Y-74204285D01*
X222441225Y-74252666D01*
X222005797Y-74833238D02*
X222102559Y-74881619D01*
X222344463Y-74881619D01*
X222441225Y-74833238D01*
X222489606Y-74736476D01*
X222489606Y-74639714D01*
X222441225Y-74542952D01*
X222344463Y-74494571D01*
X222102559Y-74494571D01*
X222005797Y-74446190D01*
X221618749Y-73865619D02*
X220989797Y-73865619D01*
X221328463Y-74252666D01*
X221183320Y-74252666D01*
X221086559Y-74301047D01*
X221038178Y-74349428D01*
X220989797Y-74446190D01*
X220989797Y-74688095D01*
X221038178Y-74784857D01*
X221086559Y-74833238D01*
X221183320Y-74881619D01*
X221473606Y-74881619D01*
X221570368Y-74833238D01*
X221618749Y-74784857D01*
X220602749Y-73962380D02*
X220554368Y-73914000D01*
X220457606Y-73865619D01*
X220215701Y-73865619D01*
X220118940Y-73914000D01*
X220070559Y-73962380D01*
X220022178Y-74059142D01*
X220022178Y-74155904D01*
X220070559Y-74301047D01*
X220651130Y-74881619D01*
X220022178Y-74881619D01*
X219441606Y-74301047D02*
X219538368Y-74252666D01*
X219586749Y-74204285D01*
X219635130Y-74107523D01*
X219635130Y-74059142D01*
X219586749Y-73962380D01*
X219538368Y-73914000D01*
X219441606Y-73865619D01*
X219248082Y-73865619D01*
X219151320Y-73914000D01*
X219102940Y-73962380D01*
X219054559Y-74059142D01*
X219054559Y-74107523D01*
X219102940Y-74204285D01*
X219151320Y-74252666D01*
X219248082Y-74301047D01*
X219441606Y-74301047D01*
X219538368Y-74349428D01*
X219586749Y-74397809D01*
X219635130Y-74494571D01*
X219635130Y-74688095D01*
X219586749Y-74784857D01*
X219538368Y-74833238D01*
X219441606Y-74881619D01*
X219248082Y-74881619D01*
X219151320Y-74833238D01*
X219102940Y-74784857D01*
X219054559Y-74688095D01*
X219054559Y-74494571D01*
X219102940Y-74397809D01*
X219151320Y-74349428D01*
X219248082Y-74301047D01*
X218619130Y-74881619D02*
X218619130Y-73865619D01*
X218232082Y-73865619D01*
X218135320Y-73914000D01*
X218086940Y-73962380D01*
X218038559Y-74059142D01*
X218038559Y-74204285D01*
X218086940Y-74301047D01*
X218135320Y-74349428D01*
X218232082Y-74397809D01*
X218619130Y-74397809D01*
X216345225Y-74881619D02*
X216829035Y-74881619D01*
X216829035Y-73865619D01*
X216006559Y-74349428D02*
X215667892Y-74349428D01*
X215522749Y-74881619D02*
X216006559Y-74881619D01*
X216006559Y-73865619D01*
X215522749Y-73865619D01*
X215087320Y-74881619D02*
X215087320Y-73865619D01*
X214845416Y-73865619D01*
X214700273Y-73914000D01*
X214603511Y-74010761D01*
X214555130Y-74107523D01*
X214506749Y-74301047D01*
X214506749Y-74446190D01*
X214555130Y-74639714D01*
X214603511Y-74736476D01*
X214700273Y-74833238D01*
X214845416Y-74881619D01*
X215087320Y-74881619D01*
X212716654Y-74784857D02*
X212765035Y-74833238D01*
X212910178Y-74881619D01*
X213006940Y-74881619D01*
X213152082Y-74833238D01*
X213248844Y-74736476D01*
X213297225Y-74639714D01*
X213345606Y-74446190D01*
X213345606Y-74301047D01*
X213297225Y-74107523D01*
X213248844Y-74010761D01*
X213152082Y-73914000D01*
X213006940Y-73865619D01*
X212910178Y-73865619D01*
X212765035Y-73914000D01*
X212716654Y-73962380D01*
X212281225Y-74881619D02*
X212281225Y-73865619D01*
X211845797Y-74881619D02*
X211845797Y-74349428D01*
X211894178Y-74252666D01*
X211990940Y-74204285D01*
X212136082Y-74204285D01*
X212232844Y-74252666D01*
X212281225Y-74301047D01*
X210926559Y-74881619D02*
X210926559Y-74349428D01*
X210974940Y-74252666D01*
X211071701Y-74204285D01*
X211265225Y-74204285D01*
X211361987Y-74252666D01*
X210926559Y-74833238D02*
X211023320Y-74881619D01*
X211265225Y-74881619D01*
X211361987Y-74833238D01*
X211410368Y-74736476D01*
X211410368Y-74639714D01*
X211361987Y-74542952D01*
X211265225Y-74494571D01*
X211023320Y-74494571D01*
X210926559Y-74446190D01*
X210491130Y-74833238D02*
X210394368Y-74881619D01*
X210200844Y-74881619D01*
X210104082Y-74833238D01*
X210055701Y-74736476D01*
X210055701Y-74688095D01*
X210104082Y-74591333D01*
X210200844Y-74542952D01*
X210345987Y-74542952D01*
X210442749Y-74494571D01*
X210491130Y-74397809D01*
X210491130Y-74349428D01*
X210442749Y-74252666D01*
X210345987Y-74204285D01*
X210200844Y-74204285D01*
X210104082Y-74252666D01*
X209233225Y-74833238D02*
X209329987Y-74881619D01*
X209523511Y-74881619D01*
X209620273Y-74833238D01*
X209668654Y-74736476D01*
X209668654Y-74349428D01*
X209620273Y-74252666D01*
X209523511Y-74204285D01*
X209329987Y-74204285D01*
X209233225Y-74252666D01*
X209184844Y-74349428D01*
X209184844Y-74446190D01*
X209668654Y-74542952D01*
X208749416Y-74881619D02*
X208749416Y-74204285D01*
X208749416Y-74397809D02*
X208701035Y-74301047D01*
X208652654Y-74252666D01*
X208555892Y-74204285D01*
X208459130Y-74204285D01*
X207443130Y-74204285D02*
X207249606Y-74881619D01*
X207056082Y-74397809D01*
X206862559Y-74881619D01*
X206669035Y-74204285D01*
X206281987Y-74881619D02*
X206281987Y-74204285D01*
X206281987Y-73865619D02*
X206330368Y-73914000D01*
X206281987Y-73962380D01*
X206233606Y-73914000D01*
X206281987Y-73865619D01*
X206281987Y-73962380D01*
X205943320Y-74204285D02*
X205556273Y-74204285D01*
X205798178Y-73865619D02*
X205798178Y-74736476D01*
X205749797Y-74833238D01*
X205653035Y-74881619D01*
X205556273Y-74881619D01*
X205217606Y-74881619D02*
X205217606Y-73865619D01*
X204782178Y-74881619D02*
X204782178Y-74349428D01*
X204830559Y-74252666D01*
X204927320Y-74204285D01*
X205072463Y-74204285D01*
X205169225Y-74252666D01*
X205217606Y-74301047D01*
X203621035Y-73865619D02*
X202943701Y-73865619D01*
X203379130Y-74881619D01*
X202121225Y-74204285D02*
X202121225Y-74881619D01*
X202363130Y-73817238D02*
X202605035Y-74542952D01*
X201976082Y-74542952D01*
X201589035Y-74881619D02*
X201589035Y-73865619D01*
X201589035Y-74349428D02*
X201008463Y-74349428D01*
X201008463Y-74881619D02*
X201008463Y-73865619D01*
X199944082Y-74784857D02*
X199992463Y-74833238D01*
X200137606Y-74881619D01*
X200234368Y-74881619D01*
X200379511Y-74833238D01*
X200476273Y-74736476D01*
X200524654Y-74639714D01*
X200573035Y-74446190D01*
X200573035Y-74301047D01*
X200524654Y-74107523D01*
X200476273Y-74010761D01*
X200379511Y-73914000D01*
X200234368Y-73865619D01*
X200137606Y-73865619D01*
X199992463Y-73914000D01*
X199944082Y-73962380D01*
X199024844Y-73865619D02*
X199508654Y-73865619D01*
X199557035Y-74349428D01*
X199508654Y-74301047D01*
X199411892Y-74252666D01*
X199169987Y-74252666D01*
X199073225Y-74301047D01*
X199024844Y-74349428D01*
X198976463Y-74446190D01*
X198976463Y-74688095D01*
X199024844Y-74784857D01*
X199073225Y-74833238D01*
X199169987Y-74881619D01*
X199411892Y-74881619D01*
X199508654Y-74833238D01*
X199557035Y-74784857D01*
X198492654Y-74881619D02*
X198299130Y-74881619D01*
X198202368Y-74833238D01*
X198153987Y-74784857D01*
X198057225Y-74639714D01*
X198008844Y-74446190D01*
X198008844Y-74059142D01*
X198057225Y-73962380D01*
X198105606Y-73914000D01*
X198202368Y-73865619D01*
X198395892Y-73865619D01*
X198492654Y-73914000D01*
X198541035Y-73962380D01*
X198589416Y-74059142D01*
X198589416Y-74301047D01*
X198541035Y-74397809D01*
X198492654Y-74446190D01*
X198395892Y-74494571D01*
X198202368Y-74494571D01*
X198105606Y-74446190D01*
X198057225Y-74397809D01*
X198008844Y-74301047D01*
X197089606Y-73865619D02*
X197573416Y-73865619D01*
X197621797Y-74349428D01*
X197573416Y-74301047D01*
X197476654Y-74252666D01*
X197234749Y-74252666D01*
X197137987Y-74301047D01*
X197089606Y-74349428D01*
X197041225Y-74446190D01*
X197041225Y-74688095D01*
X197089606Y-74784857D01*
X197137987Y-74833238D01*
X197234749Y-74881619D01*
X197476654Y-74881619D01*
X197573416Y-74833238D01*
X197621797Y-74784857D01*
X195541416Y-75268666D02*
X195589797Y-75220285D01*
X195686559Y-75075142D01*
X195734940Y-74978380D01*
X195783320Y-74833238D01*
X195831701Y-74591333D01*
X195831701Y-74397809D01*
X195783320Y-74155904D01*
X195734940Y-74010761D01*
X195686559Y-73914000D01*
X195589797Y-73768857D01*
X195541416Y-73720476D01*
X195154368Y-74881619D02*
X195154368Y-74204285D01*
X195154368Y-74397809D02*
X195105987Y-74301047D01*
X195057606Y-74252666D01*
X194960844Y-74204285D01*
X194864082Y-74204285D01*
X194138368Y-74833238D02*
X194235130Y-74881619D01*
X194428654Y-74881619D01*
X194525416Y-74833238D01*
X194573797Y-74736476D01*
X194573797Y-74349428D01*
X194525416Y-74252666D01*
X194428654Y-74204285D01*
X194235130Y-74204285D01*
X194138368Y-74252666D01*
X194089987Y-74349428D01*
X194089987Y-74446190D01*
X194573797Y-74542952D01*
X193751320Y-74204285D02*
X193509416Y-74881619D01*
X193267511Y-74204285D01*
X191574178Y-74881619D02*
X192154749Y-74881619D01*
X191864463Y-74881619D02*
X191864463Y-73865619D01*
X191961225Y-74010761D01*
X192057987Y-74107523D01*
X192154749Y-74155904D01*
X191138749Y-74784857D02*
X191090368Y-74833238D01*
X191138749Y-74881619D01*
X191187130Y-74833238D01*
X191138749Y-74784857D01*
X191138749Y-74881619D01*
X190461416Y-73865619D02*
X190364654Y-73865619D01*
X190267892Y-73914000D01*
X190219511Y-73962380D01*
X190171130Y-74059142D01*
X190122749Y-74252666D01*
X190122749Y-74494571D01*
X190171130Y-74688095D01*
X190219511Y-74784857D01*
X190267892Y-74833238D01*
X190364654Y-74881619D01*
X190461416Y-74881619D01*
X190558178Y-74833238D01*
X190606559Y-74784857D01*
X190654940Y-74688095D01*
X190703320Y-74494571D01*
X190703320Y-74252666D01*
X190654940Y-74059142D01*
X190606559Y-73962380D01*
X190558178Y-73914000D01*
X190461416Y-73865619D01*
X189493797Y-73865619D02*
X189397035Y-73865619D01*
X189300273Y-73914000D01*
X189251892Y-73962380D01*
X189203511Y-74059142D01*
X189155130Y-74252666D01*
X189155130Y-74494571D01*
X189203511Y-74688095D01*
X189251892Y-74784857D01*
X189300273Y-74833238D01*
X189397035Y-74881619D01*
X189493797Y-74881619D01*
X189590559Y-74833238D01*
X189638940Y-74784857D01*
X189687320Y-74688095D01*
X189735701Y-74494571D01*
X189735701Y-74252666D01*
X189687320Y-74059142D01*
X189638940Y-73962380D01*
X189590559Y-73914000D01*
X189493797Y-73865619D01*
X188816463Y-75268666D02*
X188768082Y-75220285D01*
X188671320Y-75075142D01*
X188622940Y-74978380D01*
X188574559Y-74833238D01*
X188526178Y-74591333D01*
X188526178Y-74397809D01*
X188574559Y-74155904D01*
X188622940Y-74010761D01*
X188671320Y-73914000D01*
X188768082Y-73768857D01*
X188816463Y-73720476D01*
X226655536Y-73006857D02*
X226703917Y-73055238D01*
X226849060Y-73103619D01*
X226945821Y-73103619D01*
X227090964Y-73055238D01*
X227187726Y-72958476D01*
X227236107Y-72861714D01*
X227284488Y-72668190D01*
X227284488Y-72523047D01*
X227236107Y-72329523D01*
X227187726Y-72232761D01*
X227090964Y-72136000D01*
X226945821Y-72087619D01*
X226849060Y-72087619D01*
X226703917Y-72136000D01*
X226655536Y-72184380D01*
X226074964Y-73103619D02*
X226171726Y-73055238D01*
X226220107Y-73006857D01*
X226268488Y-72910095D01*
X226268488Y-72619809D01*
X226220107Y-72523047D01*
X226171726Y-72474666D01*
X226074964Y-72426285D01*
X225929821Y-72426285D01*
X225833060Y-72474666D01*
X225784679Y-72523047D01*
X225736298Y-72619809D01*
X225736298Y-72910095D01*
X225784679Y-73006857D01*
X225833060Y-73055238D01*
X225929821Y-73103619D01*
X226074964Y-73103619D01*
X225300869Y-72426285D02*
X225300869Y-73442285D01*
X225300869Y-72474666D02*
X225204107Y-72426285D01*
X225010583Y-72426285D01*
X224913821Y-72474666D01*
X224865440Y-72523047D01*
X224817060Y-72619809D01*
X224817060Y-72910095D01*
X224865440Y-73006857D01*
X224913821Y-73055238D01*
X225010583Y-73103619D01*
X225204107Y-73103619D01*
X225300869Y-73055238D01*
X224478393Y-72426285D02*
X224236488Y-73103619D01*
X223994583Y-72426285D02*
X224236488Y-73103619D01*
X224333250Y-73345523D01*
X224381631Y-73393904D01*
X224478393Y-73442285D01*
X223607536Y-73103619D02*
X223607536Y-72426285D01*
X223607536Y-72619809D02*
X223559155Y-72523047D01*
X223510774Y-72474666D01*
X223414012Y-72426285D01*
X223317250Y-72426285D01*
X222978583Y-73103619D02*
X222978583Y-72426285D01*
X222978583Y-72087619D02*
X223026964Y-72136000D01*
X222978583Y-72184380D01*
X222930202Y-72136000D01*
X222978583Y-72087619D01*
X222978583Y-72184380D01*
X222059345Y-72426285D02*
X222059345Y-73248761D01*
X222107726Y-73345523D01*
X222156107Y-73393904D01*
X222252869Y-73442285D01*
X222398012Y-73442285D01*
X222494774Y-73393904D01*
X222059345Y-73055238D02*
X222156107Y-73103619D01*
X222349631Y-73103619D01*
X222446393Y-73055238D01*
X222494774Y-73006857D01*
X222543155Y-72910095D01*
X222543155Y-72619809D01*
X222494774Y-72523047D01*
X222446393Y-72474666D01*
X222349631Y-72426285D01*
X222156107Y-72426285D01*
X222059345Y-72474666D01*
X221575536Y-73103619D02*
X221575536Y-72087619D01*
X221140107Y-73103619D02*
X221140107Y-72571428D01*
X221188488Y-72474666D01*
X221285250Y-72426285D01*
X221430393Y-72426285D01*
X221527155Y-72474666D01*
X221575536Y-72523047D01*
X220801440Y-72426285D02*
X220414393Y-72426285D01*
X220656298Y-72087619D02*
X220656298Y-72958476D01*
X220607917Y-73055238D01*
X220511155Y-73103619D01*
X220414393Y-73103619D01*
X218479155Y-72329523D02*
X218575917Y-72281142D01*
X218769440Y-72281142D01*
X218866202Y-72329523D01*
X218962964Y-72426285D01*
X219011345Y-72523047D01*
X219011345Y-72716571D01*
X218962964Y-72813333D01*
X218866202Y-72910095D01*
X218769440Y-72958476D01*
X218575917Y-72958476D01*
X218479155Y-72910095D01*
X218672679Y-71942476D02*
X218914583Y-71990857D01*
X219156488Y-72136000D01*
X219301631Y-72377904D01*
X219350012Y-72619809D01*
X219301631Y-72861714D01*
X219156488Y-73103619D01*
X218914583Y-73248761D01*
X218672679Y-73297142D01*
X218430774Y-73248761D01*
X218188869Y-73103619D01*
X218043726Y-72861714D01*
X217995345Y-72619809D01*
X218043726Y-72377904D01*
X218188869Y-72136000D01*
X218430774Y-71990857D01*
X218672679Y-71942476D01*
X216834202Y-72184380D02*
X216785821Y-72136000D01*
X216689060Y-72087619D01*
X216447155Y-72087619D01*
X216350393Y-72136000D01*
X216302012Y-72184380D01*
X216253631Y-72281142D01*
X216253631Y-72377904D01*
X216302012Y-72523047D01*
X216882583Y-73103619D01*
X216253631Y-73103619D01*
X215624679Y-72087619D02*
X215527917Y-72087619D01*
X215431155Y-72136000D01*
X215382774Y-72184380D01*
X215334393Y-72281142D01*
X215286012Y-72474666D01*
X215286012Y-72716571D01*
X215334393Y-72910095D01*
X215382774Y-73006857D01*
X215431155Y-73055238D01*
X215527917Y-73103619D01*
X215624679Y-73103619D01*
X215721440Y-73055238D01*
X215769821Y-73006857D01*
X215818202Y-72910095D01*
X215866583Y-72716571D01*
X215866583Y-72474666D01*
X215818202Y-72281142D01*
X215769821Y-72184380D01*
X215721440Y-72136000D01*
X215624679Y-72087619D01*
X214898964Y-72184380D02*
X214850583Y-72136000D01*
X214753821Y-72087619D01*
X214511917Y-72087619D01*
X214415155Y-72136000D01*
X214366774Y-72184380D01*
X214318393Y-72281142D01*
X214318393Y-72377904D01*
X214366774Y-72523047D01*
X214947345Y-73103619D01*
X214318393Y-73103619D01*
X213689440Y-72087619D02*
X213592679Y-72087619D01*
X213495917Y-72136000D01*
X213447536Y-72184380D01*
X213399155Y-72281142D01*
X213350774Y-72474666D01*
X213350774Y-72716571D01*
X213399155Y-72910095D01*
X213447536Y-73006857D01*
X213495917Y-73055238D01*
X213592679Y-73103619D01*
X213689440Y-73103619D01*
X213786202Y-73055238D01*
X213834583Y-73006857D01*
X213882964Y-72910095D01*
X213931345Y-72716571D01*
X213931345Y-72474666D01*
X213882964Y-72281142D01*
X213834583Y-72184380D01*
X213786202Y-72136000D01*
X213689440Y-72087619D01*
X211560679Y-73006857D02*
X211609060Y-73055238D01*
X211754202Y-73103619D01*
X211850964Y-73103619D01*
X211996107Y-73055238D01*
X212092869Y-72958476D01*
X212141250Y-72861714D01*
X212189631Y-72668190D01*
X212189631Y-72523047D01*
X212141250Y-72329523D01*
X212092869Y-72232761D01*
X211996107Y-72136000D01*
X211850964Y-72087619D01*
X211754202Y-72087619D01*
X211609060Y-72136000D01*
X211560679Y-72184380D01*
X211125250Y-73103619D02*
X211125250Y-72087619D01*
X210689821Y-73103619D02*
X210689821Y-72571428D01*
X210738202Y-72474666D01*
X210834964Y-72426285D01*
X210980107Y-72426285D01*
X211076869Y-72474666D01*
X211125250Y-72523047D01*
X210206012Y-73103619D02*
X210206012Y-72426285D01*
X210206012Y-72619809D02*
X210157631Y-72523047D01*
X210109250Y-72474666D01*
X210012488Y-72426285D01*
X209915726Y-72426285D01*
X209577060Y-73103619D02*
X209577060Y-72426285D01*
X209577060Y-72087619D02*
X209625440Y-72136000D01*
X209577060Y-72184380D01*
X209528679Y-72136000D01*
X209577060Y-72087619D01*
X209577060Y-72184380D01*
X209141631Y-73055238D02*
X209044869Y-73103619D01*
X208851345Y-73103619D01*
X208754583Y-73055238D01*
X208706202Y-72958476D01*
X208706202Y-72910095D01*
X208754583Y-72813333D01*
X208851345Y-72764952D01*
X208996488Y-72764952D01*
X209093250Y-72716571D01*
X209141631Y-72619809D01*
X209141631Y-72571428D01*
X209093250Y-72474666D01*
X208996488Y-72426285D01*
X208851345Y-72426285D01*
X208754583Y-72474666D01*
X208415917Y-72426285D02*
X208028869Y-72426285D01*
X208270774Y-72087619D02*
X208270774Y-72958476D01*
X208222393Y-73055238D01*
X208125631Y-73103619D01*
X208028869Y-73103619D01*
X207690202Y-73103619D02*
X207690202Y-72426285D01*
X207690202Y-72087619D02*
X207738583Y-72136000D01*
X207690202Y-72184380D01*
X207641821Y-72136000D01*
X207690202Y-72087619D01*
X207690202Y-72184380D01*
X206770964Y-73103619D02*
X206770964Y-72571428D01*
X206819345Y-72474666D01*
X206916107Y-72426285D01*
X207109631Y-72426285D01*
X207206393Y-72474666D01*
X206770964Y-73055238D02*
X206867726Y-73103619D01*
X207109631Y-73103619D01*
X207206393Y-73055238D01*
X207254774Y-72958476D01*
X207254774Y-72861714D01*
X207206393Y-72764952D01*
X207109631Y-72716571D01*
X206867726Y-72716571D01*
X206770964Y-72668190D01*
X206287155Y-72426285D02*
X206287155Y-73103619D01*
X206287155Y-72523047D02*
X206238774Y-72474666D01*
X206142012Y-72426285D01*
X205996869Y-72426285D01*
X205900107Y-72474666D01*
X205851726Y-72571428D01*
X205851726Y-73103619D01*
X204593821Y-73103619D02*
X204593821Y-72087619D01*
X204013250Y-73103619D02*
X204448679Y-72523047D01*
X204013250Y-72087619D02*
X204593821Y-72668190D01*
X203577821Y-73006857D02*
X203529440Y-73055238D01*
X203577821Y-73103619D01*
X203626202Y-73055238D01*
X203577821Y-73006857D01*
X203577821Y-73103619D01*
X202319917Y-73103619D02*
X202319917Y-72087619D01*
X201739345Y-73103619D02*
X202174774Y-72523047D01*
X201739345Y-72087619D02*
X202319917Y-72668190D01*
X200868488Y-73103619D02*
X200868488Y-72571428D01*
X200916869Y-72474666D01*
X201013631Y-72426285D01*
X201207155Y-72426285D01*
X201303917Y-72474666D01*
X200868488Y-73055238D02*
X200965250Y-73103619D01*
X201207155Y-73103619D01*
X201303917Y-73055238D01*
X201352298Y-72958476D01*
X201352298Y-72861714D01*
X201303917Y-72764952D01*
X201207155Y-72716571D01*
X200965250Y-72716571D01*
X200868488Y-72668190D01*
X199949250Y-73103619D02*
X199949250Y-72087619D01*
X199949250Y-73055238D02*
X200046012Y-73103619D01*
X200239536Y-73103619D01*
X200336298Y-73055238D01*
X200384679Y-73006857D01*
X200433060Y-72910095D01*
X200433060Y-72619809D01*
X200384679Y-72523047D01*
X200336298Y-72474666D01*
X200239536Y-72426285D01*
X200046012Y-72426285D01*
X199949250Y-72474666D01*
X199078393Y-73055238D02*
X199175155Y-73103619D01*
X199368679Y-73103619D01*
X199465440Y-73055238D01*
X199513821Y-72958476D01*
X199513821Y-72571428D01*
X199465440Y-72474666D01*
X199368679Y-72426285D01*
X199175155Y-72426285D01*
X199078393Y-72474666D01*
X199030012Y-72571428D01*
X199030012Y-72668190D01*
X199513821Y-72764952D01*
X198594583Y-73103619D02*
X198594583Y-72426285D01*
X198594583Y-72619809D02*
X198546202Y-72523047D01*
X198497821Y-72474666D01*
X198401060Y-72426285D01*
X198304298Y-72426285D01*
X197530202Y-72426285D02*
X197530202Y-73103619D01*
X197965631Y-72426285D02*
X197965631Y-72958476D01*
X197917250Y-73055238D01*
X197820488Y-73103619D01*
X197675345Y-73103619D01*
X197578583Y-73055238D01*
X197530202Y-73006857D01*
X196610964Y-73103619D02*
X196610964Y-72087619D01*
X196610964Y-73055238D02*
X196707726Y-73103619D01*
X196901250Y-73103619D01*
X196998012Y-73055238D01*
X197046393Y-73006857D01*
X197094774Y-72910095D01*
X197094774Y-72619809D01*
X197046393Y-72523047D01*
X196998012Y-72474666D01*
X196901250Y-72426285D01*
X196707726Y-72426285D01*
X196610964Y-72474666D01*
D11*
G36*
X232126808Y-91479166D02*
G01*
X232039015Y-91522540D01*
X231930751Y-91598122D01*
X231851845Y-91680542D01*
X231797805Y-91784037D01*
X231764141Y-91922843D01*
X231746363Y-92111194D01*
X231739980Y-92363328D01*
X231739607Y-92471724D01*
X231740696Y-92709287D01*
X231745222Y-92879068D01*
X231755068Y-92996550D01*
X231772118Y-93077215D01*
X231798259Y-93136545D01*
X231825458Y-93177020D01*
X231999080Y-93349225D01*
X232203538Y-93452806D01*
X232424104Y-93483960D01*
X232646046Y-93438885D01*
X232716360Y-93407009D01*
X232884689Y-93319271D01*
X232884689Y-94694172D01*
X232761838Y-94630643D01*
X232599967Y-94581491D01*
X232401005Y-94568900D01*
X232202328Y-94592147D01*
X232052290Y-94644370D01*
X231927841Y-94743826D01*
X231821508Y-94886143D01*
X231813513Y-94900755D01*
X231779793Y-94969582D01*
X231755166Y-95038956D01*
X231738214Y-95122996D01*
X231727519Y-95235816D01*
X231721662Y-95391533D01*
X231719227Y-95604265D01*
X231718787Y-95843664D01*
X231718787Y-96607443D01*
X232176820Y-96607443D01*
X232176820Y-95199108D01*
X232304933Y-95091308D01*
X232438018Y-95005079D01*
X232564048Y-94989401D01*
X232690778Y-95029747D01*
X232758317Y-95069254D01*
X232808586Y-95125527D01*
X232844338Y-95210572D01*
X232868328Y-95336394D01*
X232883311Y-95514998D01*
X232892040Y-95758391D01*
X232895114Y-95920394D01*
X232905508Y-96586623D01*
X233124115Y-96599209D01*
X233342721Y-96611795D01*
X233342721Y-92477464D01*
X232884689Y-92477464D01*
X232873011Y-92707953D01*
X232833662Y-92867950D01*
X232760166Y-92967497D01*
X232646049Y-93016639D01*
X232530754Y-93026459D01*
X232400238Y-93015175D01*
X232313617Y-92970764D01*
X232259451Y-92912081D01*
X232216810Y-92848962D01*
X232191426Y-92778645D01*
X232180131Y-92680123D01*
X232179760Y-92532387D01*
X232183560Y-92408683D01*
X232192288Y-92222328D01*
X232205280Y-92099982D01*
X232227159Y-92022377D01*
X232262546Y-91970245D01*
X232295941Y-91940111D01*
X232435475Y-91874399D01*
X232600619Y-91863787D01*
X232695446Y-91886423D01*
X232789334Y-91966881D01*
X232851526Y-92123392D01*
X232881669Y-92354852D01*
X232884689Y-92477464D01*
X233342721Y-92477464D01*
X233342721Y-91444164D01*
X233113705Y-91444164D01*
X232976206Y-91449602D01*
X232905267Y-91468909D01*
X232884697Y-91506576D01*
X232884689Y-91507692D01*
X232875145Y-91544581D01*
X232833051Y-91540393D01*
X232749361Y-91499859D01*
X232554354Y-91437850D01*
X232334954Y-91431332D01*
X232126808Y-91479166D01*
G37*
X232126808Y-91479166D02*
X232039015Y-91522540D01*
X231930751Y-91598122D01*
X231851845Y-91680542D01*
X231797805Y-91784037D01*
X231764141Y-91922843D01*
X231746363Y-92111194D01*
X231739980Y-92363328D01*
X231739607Y-92471724D01*
X231740696Y-92709287D01*
X231745222Y-92879068D01*
X231755068Y-92996550D01*
X231772118Y-93077215D01*
X231798259Y-93136545D01*
X231825458Y-93177020D01*
X231999080Y-93349225D01*
X232203538Y-93452806D01*
X232424104Y-93483960D01*
X232646046Y-93438885D01*
X232716360Y-93407009D01*
X232884689Y-93319271D01*
X232884689Y-94694172D01*
X232761838Y-94630643D01*
X232599967Y-94581491D01*
X232401005Y-94568900D01*
X232202328Y-94592147D01*
X232052290Y-94644370D01*
X231927841Y-94743826D01*
X231821508Y-94886143D01*
X231813513Y-94900755D01*
X231779793Y-94969582D01*
X231755166Y-95038956D01*
X231738214Y-95122996D01*
X231727519Y-95235816D01*
X231721662Y-95391533D01*
X231719227Y-95604265D01*
X231718787Y-95843664D01*
X231718787Y-96607443D01*
X232176820Y-96607443D01*
X232176820Y-95199108D01*
X232304933Y-95091308D01*
X232438018Y-95005079D01*
X232564048Y-94989401D01*
X232690778Y-95029747D01*
X232758317Y-95069254D01*
X232808586Y-95125527D01*
X232844338Y-95210572D01*
X232868328Y-95336394D01*
X232883311Y-95514998D01*
X232892040Y-95758391D01*
X232895114Y-95920394D01*
X232905508Y-96586623D01*
X233124115Y-96599209D01*
X233342721Y-96611795D01*
X233342721Y-92477464D01*
X232884689Y-92477464D01*
X232873011Y-92707953D01*
X232833662Y-92867950D01*
X232760166Y-92967497D01*
X232646049Y-93016639D01*
X232530754Y-93026459D01*
X232400238Y-93015175D01*
X232313617Y-92970764D01*
X232259451Y-92912081D01*
X232216810Y-92848962D01*
X232191426Y-92778645D01*
X232180131Y-92680123D01*
X232179760Y-92532387D01*
X232183560Y-92408683D01*
X232192288Y-92222328D01*
X232205280Y-92099982D01*
X232227159Y-92022377D01*
X232262546Y-91970245D01*
X232295941Y-91940111D01*
X232435475Y-91874399D01*
X232600619Y-91863787D01*
X232695446Y-91886423D01*
X232789334Y-91966881D01*
X232851526Y-92123392D01*
X232881669Y-92354852D01*
X232884689Y-92477464D01*
X233342721Y-92477464D01*
X233342721Y-91444164D01*
X233113705Y-91444164D01*
X232976206Y-91449602D01*
X232905267Y-91468909D01*
X232884697Y-91506576D01*
X232884689Y-91507692D01*
X232875145Y-91544581D01*
X232833051Y-91540393D01*
X232749361Y-91499859D01*
X232554354Y-91437850D01*
X232334954Y-91431332D01*
X232126808Y-91479166D01*
G36*
X230389779Y-94583247D02*
G01*
X230193889Y-94635514D01*
X230044767Y-94730253D01*
X229939535Y-94854338D01*
X229906821Y-94907296D01*
X229882669Y-94962768D01*
X229865784Y-95033730D01*
X229854873Y-95133154D01*
X229848640Y-95274016D01*
X229845791Y-95469289D01*
X229845032Y-95731948D01*
X229845016Y-95801633D01*
X229845016Y-96607443D01*
X230044885Y-96607443D01*
X230172370Y-96598515D01*
X230266634Y-96575896D01*
X230290251Y-96561946D01*
X230354815Y-96537870D01*
X230420759Y-96561946D01*
X230529332Y-96592003D01*
X230687042Y-96604100D01*
X230861844Y-96598851D01*
X231021693Y-96576869D01*
X231115016Y-96548663D01*
X231295609Y-96432731D01*
X231408470Y-96271847D01*
X231459209Y-96057936D01*
X231459680Y-96052443D01*
X231455227Y-95957547D01*
X231052557Y-95957547D01*
X231017354Y-96065484D01*
X230960014Y-96126229D01*
X230844913Y-96172172D01*
X230692986Y-96190512D01*
X230538061Y-96181485D01*
X230413964Y-96145332D01*
X230379197Y-96122137D01*
X230318444Y-96014960D01*
X230303049Y-95893120D01*
X230303049Y-95733017D01*
X230533403Y-95733017D01*
X230752241Y-95749863D01*
X230918137Y-95797593D01*
X231021338Y-95871986D01*
X231052557Y-95957547D01*
X231455227Y-95957547D01*
X231448713Y-95818731D01*
X231371631Y-95633946D01*
X231226714Y-95494206D01*
X231206683Y-95481495D01*
X231120610Y-95440105D01*
X231014073Y-95415041D01*
X230865141Y-95402858D01*
X230688213Y-95400057D01*
X230303049Y-95399902D01*
X230303049Y-95238443D01*
X230319387Y-95113168D01*
X230361078Y-95029241D01*
X230365959Y-95024773D01*
X230458736Y-94988059D01*
X230598784Y-94973828D01*
X230753555Y-94980821D01*
X230890499Y-95007780D01*
X230971759Y-95048212D01*
X231015790Y-95080601D01*
X231062285Y-95086784D01*
X231126451Y-95060248D01*
X231223495Y-94994479D01*
X231368626Y-94882963D01*
X231381947Y-94872516D01*
X231375121Y-94833862D01*
X231318178Y-94769572D01*
X231231630Y-94698131D01*
X231135992Y-94638021D01*
X231105944Y-94623827D01*
X230996341Y-94595503D01*
X230835735Y-94575300D01*
X230656302Y-94567196D01*
X230647911Y-94567180D01*
X230389779Y-94583247D01*
G37*
X230389779Y-94583247D02*
X230193889Y-94635514D01*
X230044767Y-94730253D01*
X229939535Y-94854338D01*
X229906821Y-94907296D01*
X229882669Y-94962768D01*
X229865784Y-95033730D01*
X229854873Y-95133154D01*
X229848640Y-95274016D01*
X229845791Y-95469289D01*
X229845032Y-95731948D01*
X229845016Y-95801633D01*
X229845016Y-96607443D01*
X230044885Y-96607443D01*
X230172370Y-96598515D01*
X230266634Y-96575896D01*
X230290251Y-96561946D01*
X230354815Y-96537870D01*
X230420759Y-96561946D01*
X230529332Y-96592003D01*
X230687042Y-96604100D01*
X230861844Y-96598851D01*
X231021693Y-96576869D01*
X231115016Y-96548663D01*
X231295609Y-96432731D01*
X231408470Y-96271847D01*
X231459209Y-96057936D01*
X231459680Y-96052443D01*
X231455227Y-95957547D01*
X231052557Y-95957547D01*
X231017354Y-96065484D01*
X230960014Y-96126229D01*
X230844913Y-96172172D01*
X230692986Y-96190512D01*
X230538061Y-96181485D01*
X230413964Y-96145332D01*
X230379197Y-96122137D01*
X230318444Y-96014960D01*
X230303049Y-95893120D01*
X230303049Y-95733017D01*
X230533403Y-95733017D01*
X230752241Y-95749863D01*
X230918137Y-95797593D01*
X231021338Y-95871986D01*
X231052557Y-95957547D01*
X231455227Y-95957547D01*
X231448713Y-95818731D01*
X231371631Y-95633946D01*
X231226714Y-95494206D01*
X231206683Y-95481495D01*
X231120610Y-95440105D01*
X231014073Y-95415041D01*
X230865141Y-95402858D01*
X230688213Y-95400057D01*
X230303049Y-95399902D01*
X230303049Y-95238443D01*
X230319387Y-95113168D01*
X230361078Y-95029241D01*
X230365959Y-95024773D01*
X230458736Y-94988059D01*
X230598784Y-94973828D01*
X230753555Y-94980821D01*
X230890499Y-95007780D01*
X230971759Y-95048212D01*
X231015790Y-95080601D01*
X231062285Y-95086784D01*
X231126451Y-95060248D01*
X231223495Y-94994479D01*
X231368626Y-94882963D01*
X231381947Y-94872516D01*
X231375121Y-94833862D01*
X231318178Y-94769572D01*
X231231630Y-94698131D01*
X231135992Y-94638021D01*
X231105944Y-94623827D01*
X230996341Y-94595503D01*
X230835735Y-94575300D01*
X230656302Y-94567196D01*
X230647911Y-94567180D01*
X230389779Y-94583247D01*
G36*
X229095475Y-94571540D02*
G01*
X229033163Y-94590218D01*
X229013075Y-94631255D01*
X229012230Y-94649782D01*
X229008625Y-94701383D01*
X228983800Y-94709484D01*
X228916737Y-94674108D01*
X228876902Y-94649937D01*
X228751227Y-94598175D01*
X228601123Y-94572581D01*
X228443737Y-94570613D01*
X228296214Y-94589729D01*
X228175700Y-94627387D01*
X228099340Y-94681044D01*
X228084281Y-94748158D01*
X228091881Y-94766333D01*
X228147282Y-94841777D01*
X228233190Y-94934568D01*
X228248728Y-94949568D01*
X228330612Y-95018540D01*
X228401263Y-95040825D01*
X228500068Y-95025272D01*
X228539652Y-95014938D01*
X228662828Y-94990116D01*
X228749436Y-95001278D01*
X228822576Y-95040646D01*
X228889574Y-95093479D01*
X228938918Y-95159924D01*
X228973209Y-95252652D01*
X228995048Y-95384334D01*
X229007034Y-95567641D01*
X229011769Y-95815246D01*
X229012230Y-95964744D01*
X229012230Y-96607443D01*
X229428623Y-96607443D01*
X229428623Y-94567115D01*
X229220426Y-94567115D01*
X229095475Y-94571540D01*
G37*
X229095475Y-94571540D02*
X229033163Y-94590218D01*
X229013075Y-94631255D01*
X229012230Y-94649782D01*
X229008625Y-94701383D01*
X228983800Y-94709484D01*
X228916737Y-94674108D01*
X228876902Y-94649937D01*
X228751227Y-94598175D01*
X228601123Y-94572581D01*
X228443737Y-94570613D01*
X228296214Y-94589729D01*
X228175700Y-94627387D01*
X228099340Y-94681044D01*
X228084281Y-94748158D01*
X228091881Y-94766333D01*
X228147282Y-94841777D01*
X228233190Y-94934568D01*
X228248728Y-94949568D01*
X228330612Y-95018540D01*
X228401263Y-95040825D01*
X228500068Y-95025272D01*
X228539652Y-95014938D01*
X228662828Y-94990116D01*
X228749436Y-95001278D01*
X228822576Y-95040646D01*
X228889574Y-95093479D01*
X228938918Y-95159924D01*
X228973209Y-95252652D01*
X228995048Y-95384334D01*
X229007034Y-95567641D01*
X229011769Y-95815246D01*
X229012230Y-95964744D01*
X229012230Y-96607443D01*
X229428623Y-96607443D01*
X229428623Y-94567115D01*
X229220426Y-94567115D01*
X229095475Y-94571540D01*
G36*
X226472230Y-96607443D02*
G01*
X226701246Y-96607443D01*
X226834175Y-96603546D01*
X226903405Y-96587407D01*
X226928332Y-96552354D01*
X226930262Y-96528653D01*
X226934466Y-96481123D01*
X226960974Y-96472008D01*
X227030633Y-96501308D01*
X227084804Y-96528653D01*
X227292777Y-96593451D01*
X227518853Y-96597201D01*
X227702655Y-96548873D01*
X227873813Y-96432118D01*
X228004284Y-96259781D01*
X228075727Y-96056506D01*
X228077546Y-96045141D01*
X228088161Y-95921136D01*
X228093440Y-95743117D01*
X228093016Y-95608480D01*
X227638172Y-95608480D01*
X227627635Y-95787428D01*
X227603666Y-95934924D01*
X227571217Y-96018217D01*
X227448456Y-96132041D01*
X227302701Y-96172845D01*
X227152393Y-96139848D01*
X227023951Y-96041422D01*
X226975308Y-95975224D01*
X226946866Y-95896231D01*
X226933544Y-95780926D01*
X226930262Y-95607736D01*
X226936135Y-95436229D01*
X226951647Y-95285540D01*
X226973638Y-95184698D01*
X226977303Y-95175659D01*
X227065988Y-95068195D01*
X227195428Y-95009195D01*
X227340257Y-94999669D01*
X227475109Y-95040626D01*
X227574617Y-95133076D01*
X227584940Y-95151473D01*
X227617250Y-95263646D01*
X227634852Y-95424934D01*
X227638172Y-95608480D01*
X228093016Y-95608480D01*
X228092800Y-95540212D01*
X228089806Y-95431010D01*
X228069442Y-95160856D01*
X228027117Y-94958024D01*
X227956706Y-94808077D01*
X227852088Y-94696579D01*
X227750521Y-94631127D01*
X227608616Y-94585117D01*
X227432121Y-94569336D01*
X227251393Y-94582190D01*
X227096787Y-94622081D01*
X227015101Y-94669801D01*
X226930262Y-94746579D01*
X226930262Y-93775967D01*
X226472230Y-93775967D01*
X226472230Y-96607443D01*
G37*
X226472230Y-96607443D02*
X226701246Y-96607443D01*
X226834175Y-96603546D01*
X226903405Y-96587407D01*
X226928332Y-96552354D01*
X226930262Y-96528653D01*
X226934466Y-96481123D01*
X226960974Y-96472008D01*
X227030633Y-96501308D01*
X227084804Y-96528653D01*
X227292777Y-96593451D01*
X227518853Y-96597201D01*
X227702655Y-96548873D01*
X227873813Y-96432118D01*
X228004284Y-96259781D01*
X228075727Y-96056506D01*
X228077546Y-96045141D01*
X228088161Y-95921136D01*
X228093440Y-95743117D01*
X228093016Y-95608480D01*
X227638172Y-95608480D01*
X227627635Y-95787428D01*
X227603666Y-95934924D01*
X227571217Y-96018217D01*
X227448456Y-96132041D01*
X227302701Y-96172845D01*
X227152393Y-96139848D01*
X227023951Y-96041422D01*
X226975308Y-95975224D01*
X226946866Y-95896231D01*
X226933544Y-95780926D01*
X226930262Y-95607736D01*
X226936135Y-95436229D01*
X226951647Y-95285540D01*
X226973638Y-95184698D01*
X226977303Y-95175659D01*
X227065988Y-95068195D01*
X227195428Y-95009195D01*
X227340257Y-94999669D01*
X227475109Y-95040626D01*
X227574617Y-95133076D01*
X227584940Y-95151473D01*
X227617250Y-95263646D01*
X227634852Y-95424934D01*
X227638172Y-95608480D01*
X228093016Y-95608480D01*
X228092800Y-95540212D01*
X228089806Y-95431010D01*
X228069442Y-95160856D01*
X228027117Y-94958024D01*
X227956706Y-94808077D01*
X227852088Y-94696579D01*
X227750521Y-94631127D01*
X227608616Y-94585117D01*
X227432121Y-94569336D01*
X227251393Y-94582190D01*
X227096787Y-94622081D01*
X227015101Y-94669801D01*
X226930262Y-94746579D01*
X226930262Y-93775967D01*
X226472230Y-93775967D01*
X226472230Y-96607443D01*
G36*
X224709058Y-94587935D02*
G01*
X224493752Y-95233344D01*
X224278445Y-95878754D01*
X224210936Y-95649738D01*
X224170309Y-95508204D01*
X224116867Y-95316936D01*
X224059158Y-95106693D01*
X224028645Y-94993918D01*
X223913864Y-94567115D01*
X223440313Y-94567115D01*
X223581861Y-95014738D01*
X223651567Y-95234903D01*
X223735777Y-95500471D01*
X223823719Y-95777492D01*
X223902228Y-96024492D01*
X224081048Y-96586623D01*
X224274118Y-96599185D01*
X224467189Y-96611746D01*
X224571882Y-96266070D01*
X224636447Y-96051335D01*
X224706908Y-95814604D01*
X224768489Y-95605526D01*
X224770919Y-95597205D01*
X224816915Y-95455537D01*
X224857497Y-95358874D01*
X224885920Y-95322321D01*
X224891761Y-95326549D01*
X224912262Y-95383217D01*
X224951215Y-95504605D01*
X225003878Y-95675448D01*
X225065509Y-95880482D01*
X225098857Y-95993262D01*
X225279454Y-96607443D01*
X225662733Y-96607443D01*
X225969133Y-95639328D01*
X226055209Y-95367759D01*
X226133620Y-95121138D01*
X226200661Y-94911048D01*
X226252631Y-94749076D01*
X226285826Y-94646808D01*
X226295916Y-94616928D01*
X226287928Y-94586334D01*
X226225208Y-94572935D01*
X226094685Y-94574275D01*
X226074253Y-94575288D01*
X225832208Y-94587935D01*
X225673683Y-95170885D01*
X225615415Y-95383486D01*
X225563345Y-95570377D01*
X225522056Y-95715331D01*
X225496134Y-95802120D01*
X225491344Y-95816269D01*
X225471496Y-95799998D01*
X225431470Y-95715697D01*
X225375862Y-95574842D01*
X225309269Y-95388911D01*
X225252976Y-95220956D01*
X225038422Y-94563209D01*
X224709058Y-94587935D01*
G37*
X224709058Y-94587935D02*
X224493752Y-95233344D01*
X224278445Y-95878754D01*
X224210936Y-95649738D01*
X224170309Y-95508204D01*
X224116867Y-95316936D01*
X224059158Y-95106693D01*
X224028645Y-94993918D01*
X223913864Y-94567115D01*
X223440313Y-94567115D01*
X223581861Y-95014738D01*
X223651567Y-95234903D01*
X223735777Y-95500471D01*
X223823719Y-95777492D01*
X223902228Y-96024492D01*
X224081048Y-96586623D01*
X224274118Y-96599185D01*
X224467189Y-96611746D01*
X224571882Y-96266070D01*
X224636447Y-96051335D01*
X224706908Y-95814604D01*
X224768489Y-95605526D01*
X224770919Y-95597205D01*
X224816915Y-95455537D01*
X224857497Y-95358874D01*
X224885920Y-95322321D01*
X224891761Y-95326549D01*
X224912262Y-95383217D01*
X224951215Y-95504605D01*
X225003878Y-95675448D01*
X225065509Y-95880482D01*
X225098857Y-95993262D01*
X225279454Y-96607443D01*
X225662733Y-96607443D01*
X225969133Y-95639328D01*
X226055209Y-95367759D01*
X226133620Y-95121138D01*
X226200661Y-94911048D01*
X226252631Y-94749076D01*
X226285826Y-94646808D01*
X226295916Y-94616928D01*
X226287928Y-94586334D01*
X226225208Y-94572935D01*
X226094685Y-94574275D01*
X226074253Y-94575288D01*
X225832208Y-94587935D01*
X225673683Y-95170885D01*
X225615415Y-95383486D01*
X225563345Y-95570377D01*
X225522056Y-95715331D01*
X225496134Y-95802120D01*
X225491344Y-95816269D01*
X225471496Y-95799998D01*
X225431470Y-95715697D01*
X225375862Y-95574842D01*
X225309269Y-95388911D01*
X225252976Y-95220956D01*
X225038422Y-94563209D01*
X224709058Y-94587935D01*
G36*
X222367330Y-94579480D02*
G01*
X222191821Y-94622109D01*
X222141088Y-94644693D01*
X222042746Y-94703847D01*
X221967273Y-94770472D01*
X221911429Y-94856135D01*
X221871974Y-94972405D01*
X221845668Y-95130848D01*
X221829271Y-95343034D01*
X221819543Y-95620529D01*
X221815849Y-95805885D01*
X221802255Y-96607443D01*
X222034456Y-96607443D01*
X222175323Y-96601536D01*
X222247898Y-96581350D01*
X222266656Y-96547453D01*
X222276559Y-96510799D01*
X222320834Y-96517807D01*
X222381164Y-96547197D01*
X222532197Y-96592246D01*
X222726307Y-96604385D01*
X222930469Y-96584529D01*
X223111660Y-96533592D01*
X223127911Y-96526522D01*
X223293509Y-96410188D01*
X223402676Y-96248467D01*
X223452909Y-96059430D01*
X223449072Y-95991515D01*
X223039237Y-95991515D01*
X223003125Y-96082914D01*
X222896058Y-96148411D01*
X222723316Y-96183563D01*
X222631000Y-96188231D01*
X222477150Y-96176282D01*
X222374885Y-96129844D01*
X222349934Y-96107771D01*
X222282339Y-95987681D01*
X222266656Y-95878754D01*
X222266656Y-95733017D01*
X222469648Y-95733017D01*
X222705613Y-95745043D01*
X222871119Y-95782871D01*
X222975695Y-95849121D01*
X222999109Y-95878656D01*
X223039237Y-95991515D01*
X223449072Y-95991515D01*
X223441705Y-95861148D01*
X223366560Y-95671692D01*
X223264032Y-95543656D01*
X223201935Y-95488302D01*
X223141145Y-95451924D01*
X223062048Y-95429744D01*
X222945029Y-95416982D01*
X222770473Y-95408857D01*
X222701237Y-95406521D01*
X222266656Y-95392321D01*
X222267293Y-95260784D01*
X222284124Y-95122519D01*
X222344974Y-95038917D01*
X222467905Y-94985507D01*
X222471203Y-94984555D01*
X222645496Y-94963555D01*
X222816048Y-94990985D01*
X222942800Y-95057689D01*
X222993658Y-95090625D01*
X223048435Y-95086068D01*
X223132728Y-95038349D01*
X223182227Y-95004671D01*
X223279045Y-94932716D01*
X223339018Y-94878779D01*
X223348641Y-94863337D01*
X223309015Y-94783424D01*
X223191936Y-94687989D01*
X223141082Y-94655789D01*
X222994887Y-94600332D01*
X222797863Y-94568913D01*
X222579011Y-94561855D01*
X222367330Y-94579480D01*
G37*
X222367330Y-94579480D02*
X222191821Y-94622109D01*
X222141088Y-94644693D01*
X222042746Y-94703847D01*
X221967273Y-94770472D01*
X221911429Y-94856135D01*
X221871974Y-94972405D01*
X221845668Y-95130848D01*
X221829271Y-95343034D01*
X221819543Y-95620529D01*
X221815849Y-95805885D01*
X221802255Y-96607443D01*
X222034456Y-96607443D01*
X222175323Y-96601536D01*
X222247898Y-96581350D01*
X222266656Y-96547453D01*
X222276559Y-96510799D01*
X222320834Y-96517807D01*
X222381164Y-96547197D01*
X222532197Y-96592246D01*
X222726307Y-96604385D01*
X222930469Y-96584529D01*
X223111660Y-96533592D01*
X223127911Y-96526522D01*
X223293509Y-96410188D01*
X223402676Y-96248467D01*
X223452909Y-96059430D01*
X223449072Y-95991515D01*
X223039237Y-95991515D01*
X223003125Y-96082914D01*
X222896058Y-96148411D01*
X222723316Y-96183563D01*
X222631000Y-96188231D01*
X222477150Y-96176282D01*
X222374885Y-96129844D01*
X222349934Y-96107771D01*
X222282339Y-95987681D01*
X222266656Y-95878754D01*
X222266656Y-95733017D01*
X222469648Y-95733017D01*
X222705613Y-95745043D01*
X222871119Y-95782871D01*
X222975695Y-95849121D01*
X222999109Y-95878656D01*
X223039237Y-95991515D01*
X223449072Y-95991515D01*
X223441705Y-95861148D01*
X223366560Y-95671692D01*
X223264032Y-95543656D01*
X223201935Y-95488302D01*
X223141145Y-95451924D01*
X223062048Y-95429744D01*
X222945029Y-95416982D01*
X222770473Y-95408857D01*
X222701237Y-95406521D01*
X222266656Y-95392321D01*
X222267293Y-95260784D01*
X222284124Y-95122519D01*
X222344974Y-95038917D01*
X222467905Y-94985507D01*
X222471203Y-94984555D01*
X222645496Y-94963555D01*
X222816048Y-94990985D01*
X222942800Y-95057689D01*
X222993658Y-95090625D01*
X223048435Y-95086068D01*
X223132728Y-95038349D01*
X223182227Y-95004671D01*
X223279045Y-94932716D01*
X223339018Y-94878779D01*
X223348641Y-94863337D01*
X223309015Y-94783424D01*
X223191936Y-94687989D01*
X223141082Y-94655789D01*
X222994887Y-94600332D01*
X222797863Y-94568913D01*
X222579011Y-94561855D01*
X222367330Y-94579480D01*
G36*
X220390893Y-94566460D02*
G01*
X220230818Y-94598017D01*
X220139688Y-94644743D01*
X220043821Y-94722370D01*
X220180213Y-94894579D01*
X220264306Y-94998867D01*
X220321408Y-95049746D01*
X220378156Y-95057519D01*
X220461189Y-95032488D01*
X220500167Y-95018327D01*
X220659074Y-94997433D01*
X220804601Y-95042220D01*
X220911440Y-95143399D01*
X220928795Y-95175659D01*
X220947697Y-95261115D01*
X220962284Y-95418606D01*
X220971874Y-95636969D01*
X220975781Y-95905038D01*
X220975836Y-95943172D01*
X220975836Y-96607443D01*
X221433869Y-96607443D01*
X221433869Y-94567115D01*
X221204852Y-94567115D01*
X221072801Y-94570563D01*
X221004008Y-94585907D01*
X220978570Y-94620648D01*
X220975836Y-94653416D01*
X220975836Y-94739717D01*
X220866122Y-94653416D01*
X220740320Y-94594538D01*
X220571319Y-94565426D01*
X220390893Y-94566460D01*
G37*
X220390893Y-94566460D02*
X220230818Y-94598017D01*
X220139688Y-94644743D01*
X220043821Y-94722370D01*
X220180213Y-94894579D01*
X220264306Y-94998867D01*
X220321408Y-95049746D01*
X220378156Y-95057519D01*
X220461189Y-95032488D01*
X220500167Y-95018327D01*
X220659074Y-94997433D01*
X220804601Y-95042220D01*
X220911440Y-95143399D01*
X220928795Y-95175659D01*
X220947697Y-95261115D01*
X220962284Y-95418606D01*
X220971874Y-95636969D01*
X220975781Y-95905038D01*
X220975836Y-95943172D01*
X220975836Y-96607443D01*
X221433869Y-96607443D01*
X221433869Y-94567115D01*
X221204852Y-94567115D01*
X221072801Y-94570563D01*
X221004008Y-94585907D01*
X220978570Y-94620648D01*
X220975836Y-94653416D01*
X220975836Y-94739717D01*
X220866122Y-94653416D01*
X220740320Y-94594538D01*
X220571319Y-94565426D01*
X220390893Y-94566460D01*
G36*
X219075158Y-94577999D02*
G01*
X218876124Y-94629746D01*
X218709439Y-94736544D01*
X218628731Y-94816326D01*
X218496432Y-95004931D01*
X218420610Y-95223720D01*
X218394562Y-95492668D01*
X218394429Y-95514410D01*
X218394197Y-95733017D01*
X219652405Y-95733017D01*
X219625585Y-95847525D01*
X219577159Y-95951232D01*
X219492404Y-96059290D01*
X219474677Y-96076541D01*
X219322320Y-96169904D01*
X219148576Y-96185738D01*
X218948589Y-96124313D01*
X218914689Y-96107771D01*
X218810712Y-96057484D01*
X218741069Y-96028834D01*
X218728917Y-96026184D01*
X218686499Y-96051913D01*
X218605601Y-96114861D01*
X218564535Y-96149259D01*
X218479440Y-96228276D01*
X218451497Y-96280451D01*
X218470890Y-96328446D01*
X218481257Y-96341570D01*
X218551469Y-96399008D01*
X218667326Y-96468813D01*
X218748131Y-96509564D01*
X218977499Y-96581362D01*
X219231436Y-96604625D01*
X219471926Y-96577059D01*
X219539279Y-96557321D01*
X219747738Y-96445612D01*
X219902254Y-96273721D01*
X220003722Y-96039979D01*
X220053035Y-95742716D01*
X220058449Y-95587279D01*
X220042641Y-95360973D01*
X219643377Y-95360973D01*
X219604760Y-95377702D01*
X219500958Y-95390829D01*
X219350044Y-95398575D01*
X219247803Y-95399902D01*
X219063899Y-95398623D01*
X218947826Y-95392638D01*
X218884148Y-95378724D01*
X218857433Y-95353655D01*
X218852230Y-95317280D01*
X218887927Y-95205229D01*
X218977804Y-95094488D01*
X219096034Y-95009489D01*
X219214310Y-94974718D01*
X219374956Y-95005563D01*
X219514022Y-95094732D01*
X219610443Y-95223263D01*
X219643377Y-95360973D01*
X220042641Y-95360973D01*
X220035428Y-95257733D01*
X219964376Y-94995175D01*
X219843790Y-94797525D01*
X219672166Y-94662702D01*
X219448002Y-94588626D01*
X219326562Y-94574360D01*
X219075158Y-94577999D01*
G37*
X219075158Y-94577999D02*
X218876124Y-94629746D01*
X218709439Y-94736544D01*
X218628731Y-94816326D01*
X218496432Y-95004931D01*
X218420610Y-95223720D01*
X218394562Y-95492668D01*
X218394429Y-95514410D01*
X218394197Y-95733017D01*
X219652405Y-95733017D01*
X219625585Y-95847525D01*
X219577159Y-95951232D01*
X219492404Y-96059290D01*
X219474677Y-96076541D01*
X219322320Y-96169904D01*
X219148576Y-96185738D01*
X218948589Y-96124313D01*
X218914689Y-96107771D01*
X218810712Y-96057484D01*
X218741069Y-96028834D01*
X218728917Y-96026184D01*
X218686499Y-96051913D01*
X218605601Y-96114861D01*
X218564535Y-96149259D01*
X218479440Y-96228276D01*
X218451497Y-96280451D01*
X218470890Y-96328446D01*
X218481257Y-96341570D01*
X218551469Y-96399008D01*
X218667326Y-96468813D01*
X218748131Y-96509564D01*
X218977499Y-96581362D01*
X219231436Y-96604625D01*
X219471926Y-96577059D01*
X219539279Y-96557321D01*
X219747738Y-96445612D01*
X219902254Y-96273721D01*
X220003722Y-96039979D01*
X220053035Y-95742716D01*
X220058449Y-95587279D01*
X220042641Y-95360973D01*
X219643377Y-95360973D01*
X219604760Y-95377702D01*
X219500958Y-95390829D01*
X219350044Y-95398575D01*
X219247803Y-95399902D01*
X219063899Y-95398623D01*
X218947826Y-95392638D01*
X218884148Y-95378724D01*
X218857433Y-95353655D01*
X218852230Y-95317280D01*
X218887927Y-95205229D01*
X218977804Y-95094488D01*
X219096034Y-95009489D01*
X219214310Y-94974718D01*
X219374956Y-95005563D01*
X219514022Y-95094732D01*
X219610443Y-95223263D01*
X219643377Y-95360973D01*
X220042641Y-95360973D01*
X220035428Y-95257733D01*
X219964376Y-94995175D01*
X219843790Y-94797525D01*
X219672166Y-94662702D01*
X219448002Y-94588626D01*
X219326562Y-94574360D01*
X219075158Y-94577999D01*
G36*
X234211390Y-91465802D02*
G01*
X233993553Y-91562108D01*
X233828184Y-91722919D01*
X233715043Y-91948482D01*
X233653888Y-92239042D01*
X233649505Y-92284408D01*
X233646070Y-92604256D01*
X233690602Y-92884614D01*
X233780391Y-93111847D01*
X233828471Y-93184941D01*
X233995945Y-93339643D01*
X234209232Y-93439838D01*
X234447846Y-93481418D01*
X234691303Y-93460272D01*
X234876370Y-93395145D01*
X235035521Y-93285393D01*
X235165596Y-93141496D01*
X235167846Y-93138130D01*
X235220670Y-93049314D01*
X235254999Y-92960005D01*
X235275788Y-92847294D01*
X235287991Y-92688273D01*
X235293367Y-92557868D01*
X235295605Y-92439611D01*
X234879294Y-92439611D01*
X234875225Y-92557335D01*
X234860455Y-92714049D01*
X234834398Y-92814621D01*
X234787407Y-92886173D01*
X234743397Y-92927971D01*
X234587377Y-93015484D01*
X234424131Y-93027179D01*
X234272096Y-92964212D01*
X234196080Y-92893653D01*
X234141303Y-92822550D01*
X234109263Y-92754512D01*
X234095200Y-92665967D01*
X234094358Y-92533339D01*
X234098691Y-92411195D01*
X234108011Y-92236710D01*
X234122788Y-92123538D01*
X234149420Y-92049721D01*
X234194309Y-91993298D01*
X234229880Y-91961050D01*
X234378671Y-91876340D01*
X234539187Y-91872117D01*
X234673780Y-91922292D01*
X234788600Y-92027075D01*
X234857004Y-92199198D01*
X234879294Y-92439611D01*
X235295605Y-92439611D01*
X235298276Y-92298548D01*
X235289893Y-92104610D01*
X235264772Y-91958745D01*
X235219468Y-91843641D01*
X235150536Y-91741986D01*
X235124978Y-91711802D01*
X234965175Y-91561412D01*
X234793769Y-91473566D01*
X234584151Y-91436762D01*
X234481936Y-91433754D01*
X234211390Y-91465802D01*
G37*
X234211390Y-91465802D02*
X233993553Y-91562108D01*
X233828184Y-91722919D01*
X233715043Y-91948482D01*
X233653888Y-92239042D01*
X233649505Y-92284408D01*
X233646070Y-92604256D01*
X233690602Y-92884614D01*
X233780391Y-93111847D01*
X233828471Y-93184941D01*
X233995945Y-93339643D01*
X234209232Y-93439838D01*
X234447846Y-93481418D01*
X234691303Y-93460272D01*
X234876370Y-93395145D01*
X235035521Y-93285393D01*
X235165596Y-93141496D01*
X235167846Y-93138130D01*
X235220670Y-93049314D01*
X235254999Y-92960005D01*
X235275788Y-92847294D01*
X235287991Y-92688273D01*
X235293367Y-92557868D01*
X235295605Y-92439611D01*
X234879294Y-92439611D01*
X234875225Y-92557335D01*
X234860455Y-92714049D01*
X234834398Y-92814621D01*
X234787407Y-92886173D01*
X234743397Y-92927971D01*
X234587377Y-93015484D01*
X234424131Y-93027179D01*
X234272096Y-92964212D01*
X234196080Y-92893653D01*
X234141303Y-92822550D01*
X234109263Y-92754512D01*
X234095200Y-92665967D01*
X234094358Y-92533339D01*
X234098691Y-92411195D01*
X234108011Y-92236710D01*
X234122788Y-92123538D01*
X234149420Y-92049721D01*
X234194309Y-91993298D01*
X234229880Y-91961050D01*
X234378671Y-91876340D01*
X234539187Y-91872117D01*
X234673780Y-91922292D01*
X234788600Y-92027075D01*
X234857004Y-92199198D01*
X234879294Y-92439611D01*
X235295605Y-92439611D01*
X235298276Y-92298548D01*
X235289893Y-92104610D01*
X235264772Y-91958745D01*
X235219468Y-91843641D01*
X235150536Y-91741986D01*
X235124978Y-91711802D01*
X234965175Y-91561412D01*
X234793769Y-91473566D01*
X234584151Y-91436762D01*
X234481936Y-91433754D01*
X234211390Y-91465802D01*
G36*
X230298675Y-91490526D02*
G01*
X230257181Y-91510061D01*
X230113566Y-91615263D01*
X229977764Y-91768793D01*
X229876362Y-91937845D01*
X229847520Y-92015567D01*
X229821206Y-92154398D01*
X229805515Y-92322177D01*
X229803609Y-92391459D01*
X229803377Y-92610066D01*
X231061585Y-92610066D01*
X231034766Y-92724574D01*
X230968934Y-92860004D01*
X230853839Y-92977046D01*
X230716913Y-93052442D01*
X230629658Y-93068098D01*
X230511328Y-93049099D01*
X230370149Y-93001446D01*
X230322189Y-92979521D01*
X230144829Y-92890944D01*
X229993470Y-93006391D01*
X229906131Y-93084474D01*
X229859658Y-93148922D01*
X229857305Y-93167837D01*
X229898822Y-93213681D01*
X229989810Y-93283349D01*
X230072395Y-93337700D01*
X230295249Y-93435405D01*
X230545087Y-93479628D01*
X230792710Y-93468130D01*
X230990098Y-93408029D01*
X231193576Y-93279284D01*
X231338179Y-93109774D01*
X231428639Y-92890462D01*
X231469689Y-92612309D01*
X231473329Y-92485034D01*
X231458761Y-92193375D01*
X231456972Y-92184891D01*
X231040059Y-92184891D01*
X231028577Y-92212242D01*
X230981384Y-92227324D01*
X230884049Y-92233788D01*
X230722136Y-92235285D01*
X230659790Y-92235312D01*
X230470103Y-92233052D01*
X230349811Y-92224844D01*
X230285116Y-92208550D01*
X230262220Y-92182027D01*
X230261410Y-92173510D01*
X230287540Y-92105825D01*
X230352937Y-92011005D01*
X230381052Y-91977805D01*
X230485426Y-91883906D01*
X230594225Y-91846988D01*
X230652843Y-91843902D01*
X230811426Y-91882493D01*
X230944413Y-91986155D01*
X231028772Y-92136717D01*
X231030267Y-92141623D01*
X231040059Y-92184891D01*
X231456972Y-92184891D01*
X231410316Y-91963722D01*
X231323045Y-91779983D01*
X231216311Y-91649557D01*
X231018980Y-91508131D01*
X230787015Y-91432556D01*
X230540288Y-91425724D01*
X230298675Y-91490526D01*
G37*
X230298675Y-91490526D02*
X230257181Y-91510061D01*
X230113566Y-91615263D01*
X229977764Y-91768793D01*
X229876362Y-91937845D01*
X229847520Y-92015567D01*
X229821206Y-92154398D01*
X229805515Y-92322177D01*
X229803609Y-92391459D01*
X229803377Y-92610066D01*
X231061585Y-92610066D01*
X231034766Y-92724574D01*
X230968934Y-92860004D01*
X230853839Y-92977046D01*
X230716913Y-93052442D01*
X230629658Y-93068098D01*
X230511328Y-93049099D01*
X230370149Y-93001446D01*
X230322189Y-92979521D01*
X230144829Y-92890944D01*
X229993470Y-93006391D01*
X229906131Y-93084474D01*
X229859658Y-93148922D01*
X229857305Y-93167837D01*
X229898822Y-93213681D01*
X229989810Y-93283349D01*
X230072395Y-93337700D01*
X230295249Y-93435405D01*
X230545087Y-93479628D01*
X230792710Y-93468130D01*
X230990098Y-93408029D01*
X231193576Y-93279284D01*
X231338179Y-93109774D01*
X231428639Y-92890462D01*
X231469689Y-92612309D01*
X231473329Y-92485034D01*
X231458761Y-92193375D01*
X231456972Y-92184891D01*
X231040059Y-92184891D01*
X231028577Y-92212242D01*
X230981384Y-92227324D01*
X230884049Y-92233788D01*
X230722136Y-92235285D01*
X230659790Y-92235312D01*
X230470103Y-92233052D01*
X230349811Y-92224844D01*
X230285116Y-92208550D01*
X230262220Y-92182027D01*
X230261410Y-92173510D01*
X230287540Y-92105825D01*
X230352937Y-92011005D01*
X230381052Y-91977805D01*
X230485426Y-91883906D01*
X230594225Y-91846988D01*
X230652843Y-91843902D01*
X230811426Y-91882493D01*
X230944413Y-91986155D01*
X231028772Y-92136717D01*
X231030267Y-92141623D01*
X231040059Y-92184891D01*
X231456972Y-92184891D01*
X231410316Y-91963722D01*
X231323045Y-91779983D01*
X231216311Y-91649557D01*
X231018980Y-91508131D01*
X230787015Y-91432556D01*
X230540288Y-91425724D01*
X230298675Y-91490526D01*
G36*
X225759582Y-91437003D02*
G01*
X225601900Y-91466907D01*
X225438315Y-91529452D01*
X225420836Y-91537426D01*
X225296783Y-91602656D01*
X225210871Y-91663274D01*
X225183102Y-91702106D01*
X225209547Y-91765437D01*
X225273780Y-91858881D01*
X225302292Y-91893762D01*
X225419789Y-92031066D01*
X225571268Y-91941691D01*
X225715430Y-91882152D01*
X225882000Y-91850326D01*
X226041738Y-91848316D01*
X226165406Y-91878221D01*
X226195084Y-91896886D01*
X226251602Y-91982466D01*
X226258471Y-92081049D01*
X226216180Y-92158062D01*
X226191164Y-92172998D01*
X226116204Y-92191547D01*
X225984439Y-92213348D01*
X225822009Y-92234180D01*
X225792044Y-92237447D01*
X225531160Y-92282575D01*
X225341945Y-92359230D01*
X225216457Y-92474491D01*
X225146757Y-92635435D01*
X225125044Y-92832015D01*
X225155039Y-93055473D01*
X225252441Y-93230949D01*
X225417639Y-93358758D01*
X225651023Y-93439218D01*
X225910098Y-93470962D01*
X226121367Y-93470580D01*
X226292735Y-93441749D01*
X226409770Y-93401944D01*
X226557650Y-93332587D01*
X226694313Y-93252097D01*
X226742885Y-93216670D01*
X226867803Y-93114705D01*
X226566491Y-92809813D01*
X226395204Y-92923165D01*
X226223406Y-93008300D01*
X226039952Y-93052830D01*
X225863603Y-93057528D01*
X225713119Y-93023170D01*
X225607260Y-92950529D01*
X225573079Y-92889238D01*
X225578206Y-92790941D01*
X225663143Y-92715773D01*
X225827657Y-92663866D01*
X226007899Y-92639875D01*
X226285291Y-92594104D01*
X226491365Y-92507748D01*
X226628878Y-92378280D01*
X226700587Y-92203172D01*
X226710521Y-91995565D01*
X226661452Y-91778714D01*
X226549580Y-91614805D01*
X226373903Y-91503088D01*
X226133419Y-91442814D01*
X225955257Y-91430999D01*
X225759582Y-91437003D01*
G37*
X225759582Y-91437003D02*
X225601900Y-91466907D01*
X225438315Y-91529452D01*
X225420836Y-91537426D01*
X225296783Y-91602656D01*
X225210871Y-91663274D01*
X225183102Y-91702106D01*
X225209547Y-91765437D01*
X225273780Y-91858881D01*
X225302292Y-91893762D01*
X225419789Y-92031066D01*
X225571268Y-91941691D01*
X225715430Y-91882152D01*
X225882000Y-91850326D01*
X226041738Y-91848316D01*
X226165406Y-91878221D01*
X226195084Y-91896886D01*
X226251602Y-91982466D01*
X226258471Y-92081049D01*
X226216180Y-92158062D01*
X226191164Y-92172998D01*
X226116204Y-92191547D01*
X225984439Y-92213348D01*
X225822009Y-92234180D01*
X225792044Y-92237447D01*
X225531160Y-92282575D01*
X225341945Y-92359230D01*
X225216457Y-92474491D01*
X225146757Y-92635435D01*
X225125044Y-92832015D01*
X225155039Y-93055473D01*
X225252441Y-93230949D01*
X225417639Y-93358758D01*
X225651023Y-93439218D01*
X225910098Y-93470962D01*
X226121367Y-93470580D01*
X226292735Y-93441749D01*
X226409770Y-93401944D01*
X226557650Y-93332587D01*
X226694313Y-93252097D01*
X226742885Y-93216670D01*
X226867803Y-93114705D01*
X226566491Y-92809813D01*
X226395204Y-92923165D01*
X226223406Y-93008300D01*
X226039952Y-93052830D01*
X225863603Y-93057528D01*
X225713119Y-93023170D01*
X225607260Y-92950529D01*
X225573079Y-92889238D01*
X225578206Y-92790941D01*
X225663143Y-92715773D01*
X225827657Y-92663866D01*
X226007899Y-92639875D01*
X226285291Y-92594104D01*
X226491365Y-92507748D01*
X226628878Y-92378280D01*
X226700587Y-92203172D01*
X226710521Y-91995565D01*
X226661452Y-91778714D01*
X226549580Y-91614805D01*
X226373903Y-91503088D01*
X226133419Y-91442814D01*
X225955257Y-91430999D01*
X225759582Y-91437003D01*
G36*
X223783479Y-91468805D02*
G01*
X223572864Y-91583505D01*
X223408085Y-91764574D01*
X223330446Y-91911838D01*
X223297114Y-92041907D01*
X223275517Y-92227333D01*
X223266261Y-92440939D01*
X223269955Y-92655550D01*
X223287206Y-92843991D01*
X223307357Y-92944637D01*
X223375333Y-93082323D01*
X223493058Y-93228566D01*
X223634935Y-93356452D01*
X223775368Y-93439063D01*
X223778793Y-93440373D01*
X223953055Y-93476472D01*
X224159573Y-93477365D01*
X224355826Y-93444501D01*
X224431604Y-93418161D01*
X224626779Y-93307484D01*
X224766562Y-93162478D01*
X224858401Y-92970503D01*
X224909746Y-92718920D01*
X224921363Y-92587142D01*
X224919881Y-92421553D01*
X224473541Y-92421553D01*
X224458506Y-92663177D01*
X224415228Y-92847303D01*
X224346449Y-92964949D01*
X224297450Y-92998590D01*
X224171907Y-93022050D01*
X224022682Y-93015104D01*
X223893667Y-92981345D01*
X223859834Y-92962772D01*
X223770572Y-92854599D01*
X223711655Y-92689051D01*
X223686576Y-92487581D01*
X223698826Y-92271646D01*
X223726204Y-92141690D01*
X223804809Y-91991191D01*
X223928896Y-91897114D01*
X224078339Y-91864587D01*
X224233013Y-91898738D01*
X224351826Y-91982273D01*
X224414265Y-92051193D01*
X224450707Y-92119126D01*
X224468077Y-92211064D01*
X224473301Y-92351999D01*
X224473541Y-92421553D01*
X224919881Y-92421553D01*
X224918215Y-92235495D01*
X224860944Y-91947134D01*
X224749543Y-91722049D01*
X224584007Y-91560230D01*
X224364330Y-91461666D01*
X224317158Y-91450236D01*
X224033664Y-91423406D01*
X223783479Y-91468805D01*
G37*
X223783479Y-91468805D02*
X223572864Y-91583505D01*
X223408085Y-91764574D01*
X223330446Y-91911838D01*
X223297114Y-92041907D01*
X223275517Y-92227333D01*
X223266261Y-92440939D01*
X223269955Y-92655550D01*
X223287206Y-92843991D01*
X223307357Y-92944637D01*
X223375333Y-93082323D01*
X223493058Y-93228566D01*
X223634935Y-93356452D01*
X223775368Y-93439063D01*
X223778793Y-93440373D01*
X223953055Y-93476472D01*
X224159573Y-93477365D01*
X224355826Y-93444501D01*
X224431604Y-93418161D01*
X224626779Y-93307484D01*
X224766562Y-93162478D01*
X224858401Y-92970503D01*
X224909746Y-92718920D01*
X224921363Y-92587142D01*
X224919881Y-92421553D01*
X224473541Y-92421553D01*
X224458506Y-92663177D01*
X224415228Y-92847303D01*
X224346449Y-92964949D01*
X224297450Y-92998590D01*
X224171907Y-93022050D01*
X224022682Y-93015104D01*
X223893667Y-92981345D01*
X223859834Y-92962772D01*
X223770572Y-92854599D01*
X223711655Y-92689051D01*
X223686576Y-92487581D01*
X223698826Y-92271646D01*
X223726204Y-92141690D01*
X223804809Y-91991191D01*
X223928896Y-91897114D01*
X224078339Y-91864587D01*
X224233013Y-91898738D01*
X224351826Y-91982273D01*
X224414265Y-92051193D01*
X224450707Y-92119126D01*
X224468077Y-92211064D01*
X224473301Y-92351999D01*
X224473541Y-92421553D01*
X224919881Y-92421553D01*
X224918215Y-92235495D01*
X224860944Y-91947134D01*
X224749543Y-91722049D01*
X224584007Y-91560230D01*
X224364330Y-91461666D01*
X224317158Y-91450236D01*
X224033664Y-91423406D01*
X223783479Y-91468805D01*
G36*
X222516492Y-92092311D02*
G01*
X222512556Y-92397698D01*
X222498177Y-92629660D01*
X222469496Y-92797786D01*
X222422652Y-92911671D01*
X222353789Y-92980905D01*
X222259046Y-93015080D01*
X222141738Y-93023811D01*
X222018877Y-93014028D01*
X221925556Y-92978287D01*
X221857916Y-92906995D01*
X221812099Y-92790561D01*
X221784245Y-92619391D01*
X221770496Y-92383896D01*
X221766984Y-92092311D01*
X221766984Y-91444164D01*
X221308951Y-91444164D01*
X221308951Y-93442853D01*
X221537967Y-93442853D01*
X221676029Y-93437258D01*
X221747122Y-93417611D01*
X221766984Y-93380313D01*
X221778946Y-93347094D01*
X221826553Y-93354121D01*
X221922515Y-93401132D01*
X222142452Y-93473654D01*
X222375726Y-93468516D01*
X222599245Y-93389766D01*
X222705687Y-93327558D01*
X222786878Y-93260204D01*
X222846192Y-93175928D01*
X222887004Y-93062957D01*
X222912688Y-92909515D01*
X222926619Y-92703827D01*
X222932171Y-92434118D01*
X222932885Y-92225551D01*
X222932885Y-91444164D01*
X222516492Y-91444164D01*
X222516492Y-92092311D01*
G37*
X222516492Y-92092311D02*
X222512556Y-92397698D01*
X222498177Y-92629660D01*
X222469496Y-92797786D01*
X222422652Y-92911671D01*
X222353789Y-92980905D01*
X222259046Y-93015080D01*
X222141738Y-93023811D01*
X222018877Y-93014028D01*
X221925556Y-92978287D01*
X221857916Y-92906995D01*
X221812099Y-92790561D01*
X221784245Y-92619391D01*
X221770496Y-92383896D01*
X221766984Y-92092311D01*
X221766984Y-91444164D01*
X221308951Y-91444164D01*
X221308951Y-93442853D01*
X221537967Y-93442853D01*
X221676029Y-93437258D01*
X221747122Y-93417611D01*
X221766984Y-93380313D01*
X221778946Y-93347094D01*
X221826553Y-93354121D01*
X221922515Y-93401132D01*
X222142452Y-93473654D01*
X222375726Y-93468516D01*
X222599245Y-93389766D01*
X222705687Y-93327558D01*
X222786878Y-93260204D01*
X222846192Y-93175928D01*
X222887004Y-93062957D01*
X222912688Y-92909515D01*
X222926619Y-92703827D01*
X222932171Y-92434118D01*
X222932885Y-92225551D01*
X222932885Y-91444164D01*
X222516492Y-91444164D01*
X222516492Y-92092311D01*
G36*
X218463712Y-91461602D02*
G01*
X218222457Y-91564090D01*
X218146469Y-91613981D01*
X218049352Y-91690651D01*
X217988388Y-91750936D01*
X217977803Y-91770571D01*
X218007692Y-91814142D01*
X218084181Y-91888077D01*
X218145418Y-91939679D01*
X218313033Y-92074378D01*
X218445386Y-91963010D01*
X218547664Y-91891113D01*
X218647390Y-91866296D01*
X218761525Y-91872357D01*
X218942766Y-91917418D01*
X219067525Y-92010949D01*
X219143342Y-92162154D01*
X219177760Y-92380236D01*
X219177769Y-92380373D01*
X219174792Y-92624124D01*
X219128533Y-92802966D01*
X219036258Y-92924730D01*
X218973350Y-92965964D01*
X218806283Y-93017311D01*
X218627838Y-93017342D01*
X218472585Y-92967522D01*
X218435836Y-92943180D01*
X218343670Y-92881004D01*
X218271613Y-92870813D01*
X218193898Y-92917092D01*
X218107982Y-93000212D01*
X217971989Y-93140521D01*
X218122977Y-93264978D01*
X218356260Y-93405443D01*
X218619327Y-93474666D01*
X218894240Y-93469653D01*
X219074784Y-93423755D01*
X219285806Y-93310249D01*
X219454574Y-93131685D01*
X219531247Y-93005639D01*
X219593346Y-92824791D01*
X219624419Y-92595745D01*
X219624658Y-92347510D01*
X219594257Y-92109093D01*
X219533408Y-91909503D01*
X219523824Y-91889039D01*
X219381898Y-91688341D01*
X219189741Y-91542217D01*
X218962536Y-91453698D01*
X218715465Y-91425815D01*
X218463712Y-91461602D01*
G37*
X218463712Y-91461602D02*
X218222457Y-91564090D01*
X218146469Y-91613981D01*
X218049352Y-91690651D01*
X217988388Y-91750936D01*
X217977803Y-91770571D01*
X218007692Y-91814142D01*
X218084181Y-91888077D01*
X218145418Y-91939679D01*
X218313033Y-92074378D01*
X218445386Y-91963010D01*
X218547664Y-91891113D01*
X218647390Y-91866296D01*
X218761525Y-91872357D01*
X218942766Y-91917418D01*
X219067525Y-92010949D01*
X219143342Y-92162154D01*
X219177760Y-92380236D01*
X219177769Y-92380373D01*
X219174792Y-92624124D01*
X219128533Y-92802966D01*
X219036258Y-92924730D01*
X218973350Y-92965964D01*
X218806283Y-93017311D01*
X218627838Y-93017342D01*
X218472585Y-92967522D01*
X218435836Y-92943180D01*
X218343670Y-92881004D01*
X218271613Y-92870813D01*
X218193898Y-92917092D01*
X218107982Y-93000212D01*
X217971989Y-93140521D01*
X218122977Y-93264978D01*
X218356260Y-93405443D01*
X218619327Y-93474666D01*
X218894240Y-93469653D01*
X219074784Y-93423755D01*
X219285806Y-93310249D01*
X219454574Y-93131685D01*
X219531247Y-93005639D01*
X219593346Y-92824791D01*
X219624419Y-92595745D01*
X219624658Y-92347510D01*
X219594257Y-92109093D01*
X219533408Y-91909503D01*
X219523824Y-91889039D01*
X219381898Y-91688341D01*
X219189741Y-91542217D01*
X218962536Y-91453698D01*
X218715465Y-91425815D01*
X218463712Y-91461602D01*
G36*
X216938208Y-91437019D02*
G01*
X216831586Y-91462922D01*
X216627170Y-91557772D01*
X216452375Y-91702633D01*
X216331403Y-91876320D01*
X216314783Y-91915317D01*
X216291984Y-92017465D01*
X216276025Y-92168573D01*
X216270590Y-92321301D01*
X216270590Y-92610066D01*
X216874361Y-92610066D01*
X217123381Y-92611007D01*
X217298811Y-92616723D01*
X217410335Y-92631550D01*
X217467640Y-92659827D01*
X217480412Y-92705890D01*
X217458338Y-92774077D01*
X217418795Y-92853863D01*
X217308491Y-92987017D01*
X217155208Y-93053355D01*
X216967859Y-93051194D01*
X216755637Y-92978991D01*
X216572227Y-92889883D01*
X216420038Y-93010220D01*
X216267849Y-93130558D01*
X216411026Y-93262843D01*
X216602172Y-93387832D01*
X216837247Y-93463189D01*
X217090102Y-93484278D01*
X217334587Y-93446460D01*
X217374033Y-93433628D01*
X217588910Y-93321414D01*
X217748750Y-93154118D01*
X217856920Y-92926748D01*
X217916790Y-92634308D01*
X217917487Y-92628040D01*
X217922848Y-92309332D01*
X217901177Y-92195632D01*
X217478131Y-92195632D01*
X217439278Y-92213116D01*
X217333795Y-92226508D01*
X217178293Y-92234155D01*
X217079751Y-92235312D01*
X216895987Y-92234588D01*
X216781086Y-92229983D01*
X216720634Y-92217848D01*
X216700217Y-92194530D01*
X216705419Y-92156382D01*
X216709783Y-92141623D01*
X216784276Y-92002944D01*
X216901434Y-91891179D01*
X217004827Y-91842066D01*
X217142184Y-91845032D01*
X217281371Y-91906278D01*
X217398126Y-92007683D01*
X217468190Y-92131122D01*
X217478131Y-92195632D01*
X217901177Y-92195632D01*
X217869421Y-92029020D01*
X217763428Y-91793780D01*
X217611089Y-91610284D01*
X217418626Y-91485209D01*
X217192258Y-91425229D01*
X216938208Y-91437019D01*
G37*
X216938208Y-91437019D02*
X216831586Y-91462922D01*
X216627170Y-91557772D01*
X216452375Y-91702633D01*
X216331403Y-91876320D01*
X216314783Y-91915317D01*
X216291984Y-92017465D01*
X216276025Y-92168573D01*
X216270590Y-92321301D01*
X216270590Y-92610066D01*
X216874361Y-92610066D01*
X217123381Y-92611007D01*
X217298811Y-92616723D01*
X217410335Y-92631550D01*
X217467640Y-92659827D01*
X217480412Y-92705890D01*
X217458338Y-92774077D01*
X217418795Y-92853863D01*
X217308491Y-92987017D01*
X217155208Y-93053355D01*
X216967859Y-93051194D01*
X216755637Y-92978991D01*
X216572227Y-92889883D01*
X216420038Y-93010220D01*
X216267849Y-93130558D01*
X216411026Y-93262843D01*
X216602172Y-93387832D01*
X216837247Y-93463189D01*
X217090102Y-93484278D01*
X217334587Y-93446460D01*
X217374033Y-93433628D01*
X217588910Y-93321414D01*
X217748750Y-93154118D01*
X217856920Y-92926748D01*
X217916790Y-92634308D01*
X217917487Y-92628040D01*
X217922848Y-92309332D01*
X217901177Y-92195632D01*
X217478131Y-92195632D01*
X217439278Y-92213116D01*
X217333795Y-92226508D01*
X217178293Y-92234155D01*
X217079751Y-92235312D01*
X216895987Y-92234588D01*
X216781086Y-92229983D01*
X216720634Y-92217848D01*
X216700217Y-92194530D01*
X216705419Y-92156382D01*
X216709783Y-92141623D01*
X216784276Y-92002944D01*
X216901434Y-91891179D01*
X217004827Y-91842066D01*
X217142184Y-91845032D01*
X217281371Y-91906278D01*
X217398126Y-92007683D01*
X217468190Y-92131122D01*
X217478131Y-92195632D01*
X217901177Y-92195632D01*
X217869421Y-92029020D01*
X217763428Y-91793780D01*
X217611089Y-91610284D01*
X217418626Y-91485209D01*
X217192258Y-91425229D01*
X216938208Y-91437019D01*
G36*
X228302892Y-91478563D02*
G01*
X228199260Y-91528062D01*
X228098894Y-91599561D01*
X228022432Y-91681853D01*
X227966738Y-91786811D01*
X227928677Y-91926313D01*
X227905115Y-92112233D01*
X227892915Y-92356448D01*
X227888944Y-92670833D01*
X227888882Y-92703754D01*
X227887967Y-93442853D01*
X228346000Y-93442853D01*
X228346000Y-92761481D01*
X228346326Y-92509050D01*
X228348581Y-92326093D01*
X228354681Y-92198807D01*
X228366541Y-92113386D01*
X228386076Y-92056026D01*
X228415203Y-92012924D01*
X228455776Y-91970334D01*
X228597731Y-91878824D01*
X228752694Y-91861843D01*
X228900323Y-91919701D01*
X228951663Y-91962763D01*
X228989353Y-92003249D01*
X229016413Y-92046607D01*
X229034603Y-92106463D01*
X229045684Y-92196441D01*
X229051414Y-92330168D01*
X229053556Y-92521270D01*
X229053869Y-92753911D01*
X229053869Y-93442853D01*
X229511902Y-93442853D01*
X229511902Y-91444164D01*
X229282885Y-91444164D01*
X229145386Y-91449602D01*
X229074447Y-91468909D01*
X229053878Y-91506576D01*
X229053869Y-91507692D01*
X229044325Y-91544581D01*
X229002233Y-91540395D01*
X228918541Y-91499861D01*
X228728727Y-91440224D01*
X228511599Y-91433591D01*
X228302892Y-91478563D01*
G37*
X228302892Y-91478563D02*
X228199260Y-91528062D01*
X228098894Y-91599561D01*
X228022432Y-91681853D01*
X227966738Y-91786811D01*
X227928677Y-91926313D01*
X227905115Y-92112233D01*
X227892915Y-92356448D01*
X227888944Y-92670833D01*
X227888882Y-92703754D01*
X227887967Y-93442853D01*
X228346000Y-93442853D01*
X228346000Y-92761481D01*
X228346326Y-92509050D01*
X228348581Y-92326093D01*
X228354681Y-92198807D01*
X228366541Y-92113386D01*
X228386076Y-92056026D01*
X228415203Y-92012924D01*
X228455776Y-91970334D01*
X228597731Y-91878824D01*
X228752694Y-91861843D01*
X228900323Y-91919701D01*
X228951663Y-91962763D01*
X228989353Y-92003249D01*
X229016413Y-92046607D01*
X229034603Y-92106463D01*
X229045684Y-92196441D01*
X229051414Y-92330168D01*
X229053556Y-92521270D01*
X229053869Y-92753911D01*
X229053869Y-93442853D01*
X229511902Y-93442853D01*
X229511902Y-91444164D01*
X229282885Y-91444164D01*
X229145386Y-91449602D01*
X229074447Y-91468909D01*
X229053878Y-91506576D01*
X229053869Y-91507692D01*
X229044325Y-91544581D01*
X229002233Y-91540395D01*
X228918541Y-91499861D01*
X228728727Y-91440224D01*
X228511599Y-91433591D01*
X228302892Y-91478563D01*
G36*
X219847131Y-91442231D02*
G01*
X219703908Y-91485989D01*
X219611694Y-91541280D01*
X219581656Y-91585004D01*
X219589924Y-91636834D01*
X219643573Y-91718259D01*
X219688937Y-91775927D01*
X219782454Y-91880182D01*
X219852713Y-91924045D01*
X219912607Y-91921182D01*
X220090280Y-91875967D01*
X220220766Y-91878020D01*
X220326727Y-91929261D01*
X220362300Y-91959252D01*
X220476164Y-92064778D01*
X220476164Y-93442853D01*
X220934197Y-93442853D01*
X220934197Y-91444164D01*
X220705180Y-91444164D01*
X220567682Y-91449602D01*
X220496742Y-91468909D01*
X220476173Y-91506576D01*
X220476164Y-91507692D01*
X220466450Y-91547146D01*
X220422522Y-91542000D01*
X220361656Y-91513536D01*
X220235946Y-91460569D01*
X220133866Y-91428703D01*
X220002520Y-91420533D01*
X219847131Y-91442231D01*
G37*
X219847131Y-91442231D02*
X219703908Y-91485989D01*
X219611694Y-91541280D01*
X219581656Y-91585004D01*
X219589924Y-91636834D01*
X219643573Y-91718259D01*
X219688937Y-91775927D01*
X219782454Y-91880182D01*
X219852713Y-91924045D01*
X219912607Y-91921182D01*
X220090280Y-91875967D01*
X220220766Y-91878020D01*
X220326727Y-91929261D01*
X220362300Y-91959252D01*
X220476164Y-92064778D01*
X220476164Y-93442853D01*
X220934197Y-93442853D01*
X220934197Y-91444164D01*
X220705180Y-91444164D01*
X220567682Y-91449602D01*
X220496742Y-91468909D01*
X220476173Y-91506576D01*
X220476164Y-91507692D01*
X220466450Y-91547146D01*
X220422522Y-91542000D01*
X220361656Y-91513536D01*
X220235946Y-91460569D01*
X220133866Y-91428703D01*
X220002520Y-91420533D01*
X219847131Y-91442231D01*
G36*
X224557695Y-77639960D02*
G01*
X224369443Y-78638542D01*
X223674817Y-78924889D01*
X222980192Y-79211237D01*
X222146872Y-78644586D01*
X221913499Y-78486811D01*
X221702543Y-78345939D01*
X221523847Y-78228401D01*
X221387256Y-78140629D01*
X221302614Y-78089055D01*
X221279563Y-78077935D01*
X221238037Y-78106535D01*
X221149302Y-78185604D01*
X221023303Y-78305041D01*
X220869986Y-78454744D01*
X220699298Y-78624615D01*
X220521186Y-78804551D01*
X220345594Y-78984454D01*
X220182470Y-79154222D01*
X220041759Y-79303754D01*
X219933408Y-79422952D01*
X219867363Y-79501713D01*
X219851574Y-79528072D01*
X219874297Y-79576666D01*
X219938001Y-79683126D01*
X220035987Y-79837039D01*
X220161559Y-80027991D01*
X220308018Y-80245569D01*
X220392885Y-80369671D01*
X220547574Y-80596279D01*
X220685030Y-80800770D01*
X220798586Y-80972965D01*
X220881572Y-81102685D01*
X220927322Y-81179751D01*
X220934197Y-81195947D01*
X220918612Y-81241975D01*
X220876132Y-81349250D01*
X220813165Y-81502687D01*
X220736121Y-81687206D01*
X220651410Y-81887721D01*
X220565442Y-82089152D01*
X220484627Y-82276415D01*
X220415373Y-82434428D01*
X220364092Y-82548107D01*
X220337191Y-82602370D01*
X220335604Y-82604506D01*
X220293365Y-82614867D01*
X220180874Y-82637982D01*
X220009791Y-82671579D01*
X219791777Y-82713385D01*
X219538491Y-82761127D01*
X219390712Y-82788659D01*
X219120062Y-82840190D01*
X218875603Y-82889225D01*
X218669700Y-82933081D01*
X218514723Y-82969074D01*
X218423038Y-82994521D01*
X218404607Y-83002595D01*
X218386555Y-83057242D01*
X218371990Y-83180662D01*
X218360902Y-83358423D01*
X218353281Y-83576091D01*
X218349116Y-83819235D01*
X218348398Y-84073423D01*
X218351118Y-84324220D01*
X218357265Y-84557196D01*
X218366829Y-84757918D01*
X218379801Y-84911954D01*
X218396171Y-85004870D01*
X218405989Y-85024213D01*
X218464677Y-85047398D01*
X218589034Y-85080544D01*
X218762610Y-85119758D01*
X218968958Y-85161145D01*
X219040989Y-85174534D01*
X219388281Y-85238147D01*
X219662617Y-85289378D01*
X219873061Y-85330261D01*
X220028678Y-85362834D01*
X220138533Y-85389132D01*
X220211689Y-85411192D01*
X220257213Y-85431049D01*
X220284167Y-85450741D01*
X220287939Y-85454632D01*
X220325585Y-85517324D01*
X220383014Y-85639331D01*
X220454492Y-85805712D01*
X220534285Y-86001529D01*
X220616657Y-86211840D01*
X220695875Y-86421708D01*
X220766204Y-86616191D01*
X220821911Y-86780350D01*
X220857259Y-86899245D01*
X220866516Y-86957936D01*
X220865744Y-86959992D01*
X220834380Y-87007964D01*
X220763226Y-87113516D01*
X220659760Y-87265660D01*
X220531460Y-87453410D01*
X220385801Y-87665780D01*
X220344320Y-87726130D01*
X220196413Y-87944929D01*
X220066261Y-88144562D01*
X219960955Y-88313565D01*
X219887584Y-88440475D01*
X219853237Y-88513829D01*
X219851574Y-88522841D01*
X219880431Y-88570207D01*
X219960169Y-88664042D01*
X220080538Y-88794261D01*
X220231287Y-88950779D01*
X220402164Y-89123510D01*
X220582921Y-89302371D01*
X220763306Y-89477276D01*
X220933068Y-89638140D01*
X221081958Y-89774878D01*
X221199724Y-89877407D01*
X221276117Y-89935640D01*
X221297250Y-89945148D01*
X221346440Y-89922754D01*
X221447153Y-89862356D01*
X221582983Y-89774129D01*
X221687490Y-89703115D01*
X221876851Y-89572811D01*
X222101101Y-89419384D01*
X222326036Y-89266201D01*
X222446968Y-89184218D01*
X222856296Y-88907353D01*
X223199898Y-89093136D01*
X223356435Y-89174523D01*
X223489546Y-89237784D01*
X223579611Y-89273865D01*
X223602537Y-89278885D01*
X223630105Y-89241817D01*
X223684492Y-89137069D01*
X223761637Y-88974303D01*
X223857482Y-88763181D01*
X223967966Y-88513365D01*
X224089029Y-88234517D01*
X224216611Y-87936299D01*
X224346653Y-87628374D01*
X224475094Y-87320404D01*
X224597874Y-87022050D01*
X224710933Y-86742975D01*
X224810212Y-86492841D01*
X224891651Y-86281310D01*
X224951189Y-86118043D01*
X224984766Y-86012705D01*
X224990166Y-85976527D01*
X224947366Y-85930381D01*
X224853656Y-85855472D01*
X224728627Y-85767364D01*
X224718133Y-85760394D01*
X224394980Y-85501721D01*
X224134413Y-85199938D01*
X223938690Y-84864695D01*
X223810068Y-84505642D01*
X223750805Y-84132426D01*
X223763161Y-83754700D01*
X223849393Y-83382111D01*
X224011759Y-83024310D01*
X224059528Y-82946027D01*
X224307991Y-82629919D01*
X224601519Y-82376079D01*
X224929953Y-82185827D01*
X225283135Y-82060485D01*
X225650905Y-82001372D01*
X226023103Y-82009807D01*
X226389571Y-82087112D01*
X226740149Y-82234606D01*
X227064677Y-82453610D01*
X227165064Y-82542498D01*
X227420551Y-82820744D01*
X227606722Y-83113656D01*
X227734430Y-83441986D01*
X227805556Y-83767133D01*
X227823114Y-84132702D01*
X227764566Y-84500086D01*
X227635858Y-84856866D01*
X227442938Y-85190626D01*
X227191752Y-85488947D01*
X226888248Y-85739411D01*
X226848360Y-85765813D01*
X226721991Y-85852272D01*
X226625927Y-85927184D01*
X226580000Y-85975015D01*
X226579332Y-85976527D01*
X226589192Y-86028267D01*
X226628278Y-86145696D01*
X226692528Y-86319154D01*
X226777880Y-86538979D01*
X226880273Y-86795513D01*
X226995646Y-87079096D01*
X227119937Y-87380067D01*
X227249084Y-87688767D01*
X227379026Y-87995536D01*
X227505702Y-88290714D01*
X227625049Y-88564640D01*
X227733006Y-88807656D01*
X227825512Y-89010101D01*
X227898504Y-89162315D01*
X227947923Y-89254638D01*
X227967823Y-89278885D01*
X228028634Y-89260004D01*
X228142418Y-89209364D01*
X228289555Y-89136017D01*
X228370462Y-89093136D01*
X228714065Y-88907353D01*
X229123393Y-89184218D01*
X229332346Y-89326054D01*
X229561113Y-89482141D01*
X229775491Y-89629109D01*
X229882871Y-89703115D01*
X230033898Y-89804531D01*
X230161782Y-89884898D01*
X230249842Y-89934041D01*
X230278445Y-89944429D01*
X230320076Y-89916405D01*
X230412211Y-89838172D01*
X230545918Y-89717852D01*
X230712265Y-89563568D01*
X230902320Y-89383443D01*
X231022521Y-89267790D01*
X231232815Y-89061167D01*
X231414556Y-88876358D01*
X231560397Y-88721270D01*
X231662991Y-88603807D01*
X231714991Y-88531875D01*
X231719980Y-88517278D01*
X231696829Y-88461753D01*
X231632854Y-88349484D01*
X231535153Y-88191837D01*
X231410820Y-88000179D01*
X231266954Y-87785876D01*
X231226041Y-87726130D01*
X231076967Y-87508982D01*
X230943225Y-87313475D01*
X230832291Y-87150599D01*
X230751644Y-87031337D01*
X230708759Y-86966678D01*
X230704617Y-86959992D01*
X230710812Y-86908462D01*
X230743700Y-86795166D01*
X230797545Y-86635042D01*
X230866613Y-86443032D01*
X230945169Y-86234074D01*
X231027480Y-86023109D01*
X231107811Y-85825076D01*
X231180428Y-85654916D01*
X231239595Y-85527567D01*
X231279580Y-85457971D01*
X231282422Y-85454632D01*
X231306873Y-85434742D01*
X231348169Y-85415073D01*
X231415377Y-85393589D01*
X231517559Y-85368253D01*
X231663781Y-85337029D01*
X231863107Y-85297882D01*
X232124603Y-85248775D01*
X232457331Y-85187672D01*
X232529372Y-85174534D01*
X232742885Y-85133282D01*
X232929022Y-85092926D01*
X233071334Y-85057361D01*
X233153371Y-85030480D01*
X233164372Y-85024213D01*
X233182498Y-84968654D01*
X233197233Y-84844495D01*
X233208564Y-84666169D01*
X233216484Y-84448109D01*
X233220981Y-84204746D01*
X233222046Y-83950514D01*
X233219670Y-83699845D01*
X233213841Y-83467171D01*
X233204551Y-83266924D01*
X233191789Y-83113538D01*
X233175546Y-83021444D01*
X233165754Y-83002595D01*
X233111239Y-82983582D01*
X232987104Y-82952650D01*
X232805715Y-82912482D01*
X232579440Y-82865762D01*
X232320647Y-82815173D01*
X232179649Y-82788659D01*
X231912127Y-82738650D01*
X231673562Y-82693346D01*
X231475614Y-82655021D01*
X231329943Y-82625947D01*
X231248209Y-82608397D01*
X231234757Y-82604506D01*
X231212021Y-82560638D01*
X231163960Y-82454976D01*
X231096981Y-82302613D01*
X231017490Y-82118646D01*
X230931892Y-81918170D01*
X230846595Y-81716281D01*
X230768005Y-81528073D01*
X230702527Y-81368642D01*
X230656569Y-81253084D01*
X230636537Y-81196494D01*
X230636164Y-81194021D01*
X230658874Y-81149379D01*
X230722541Y-81046647D01*
X230820475Y-80896037D01*
X230945983Y-80707757D01*
X231092374Y-80492018D01*
X231177475Y-80368098D01*
X231332545Y-80140883D01*
X231470275Y-79934595D01*
X231583947Y-79759671D01*
X231666839Y-79626545D01*
X231712231Y-79545653D01*
X231718787Y-79527520D01*
X231690605Y-79485312D01*
X231612696Y-79395191D01*
X231495010Y-79267254D01*
X231347500Y-79111596D01*
X231180119Y-78938315D01*
X231002819Y-78757507D01*
X230825552Y-78579267D01*
X230658270Y-78413693D01*
X230510925Y-78270880D01*
X230393470Y-78160925D01*
X230315857Y-78093924D01*
X230289892Y-78077935D01*
X230247616Y-78100419D01*
X230146499Y-78163585D01*
X229996373Y-78261003D01*
X229807070Y-78386243D01*
X229588421Y-78532875D01*
X229423489Y-78644586D01*
X228590169Y-79211237D01*
X227895544Y-78924889D01*
X227200918Y-78638542D01*
X227012666Y-77639960D01*
X226824413Y-76641377D01*
X224745948Y-76641377D01*
X224557695Y-77639960D01*
G37*
X224557695Y-77639960D02*
X224369443Y-78638542D01*
X223674817Y-78924889D01*
X222980192Y-79211237D01*
X222146872Y-78644586D01*
X221913499Y-78486811D01*
X221702543Y-78345939D01*
X221523847Y-78228401D01*
X221387256Y-78140629D01*
X221302614Y-78089055D01*
X221279563Y-78077935D01*
X221238037Y-78106535D01*
X221149302Y-78185604D01*
X221023303Y-78305041D01*
X220869986Y-78454744D01*
X220699298Y-78624615D01*
X220521186Y-78804551D01*
X220345594Y-78984454D01*
X220182470Y-79154222D01*
X220041759Y-79303754D01*
X219933408Y-79422952D01*
X219867363Y-79501713D01*
X219851574Y-79528072D01*
X219874297Y-79576666D01*
X219938001Y-79683126D01*
X220035987Y-79837039D01*
X220161559Y-80027991D01*
X220308018Y-80245569D01*
X220392885Y-80369671D01*
X220547574Y-80596279D01*
X220685030Y-80800770D01*
X220798586Y-80972965D01*
X220881572Y-81102685D01*
X220927322Y-81179751D01*
X220934197Y-81195947D01*
X220918612Y-81241975D01*
X220876132Y-81349250D01*
X220813165Y-81502687D01*
X220736121Y-81687206D01*
X220651410Y-81887721D01*
X220565442Y-82089152D01*
X220484627Y-82276415D01*
X220415373Y-82434428D01*
X220364092Y-82548107D01*
X220337191Y-82602370D01*
X220335604Y-82604506D01*
X220293365Y-82614867D01*
X220180874Y-82637982D01*
X220009791Y-82671579D01*
X219791777Y-82713385D01*
X219538491Y-82761127D01*
X219390712Y-82788659D01*
X219120062Y-82840190D01*
X218875603Y-82889225D01*
X218669700Y-82933081D01*
X218514723Y-82969074D01*
X218423038Y-82994521D01*
X218404607Y-83002595D01*
X218386555Y-83057242D01*
X218371990Y-83180662D01*
X218360902Y-83358423D01*
X218353281Y-83576091D01*
X218349116Y-83819235D01*
X218348398Y-84073423D01*
X218351118Y-84324220D01*
X218357265Y-84557196D01*
X218366829Y-84757918D01*
X218379801Y-84911954D01*
X218396171Y-85004870D01*
X218405989Y-85024213D01*
X218464677Y-85047398D01*
X218589034Y-85080544D01*
X218762610Y-85119758D01*
X218968958Y-85161145D01*
X219040989Y-85174534D01*
X219388281Y-85238147D01*
X219662617Y-85289378D01*
X219873061Y-85330261D01*
X220028678Y-85362834D01*
X220138533Y-85389132D01*
X220211689Y-85411192D01*
X220257213Y-85431049D01*
X220284167Y-85450741D01*
X220287939Y-85454632D01*
X220325585Y-85517324D01*
X220383014Y-85639331D01*
X220454492Y-85805712D01*
X220534285Y-86001529D01*
X220616657Y-86211840D01*
X220695875Y-86421708D01*
X220766204Y-86616191D01*
X220821911Y-86780350D01*
X220857259Y-86899245D01*
X220866516Y-86957936D01*
X220865744Y-86959992D01*
X220834380Y-87007964D01*
X220763226Y-87113516D01*
X220659760Y-87265660D01*
X220531460Y-87453410D01*
X220385801Y-87665780D01*
X220344320Y-87726130D01*
X220196413Y-87944929D01*
X220066261Y-88144562D01*
X219960955Y-88313565D01*
X219887584Y-88440475D01*
X219853237Y-88513829D01*
X219851574Y-88522841D01*
X219880431Y-88570207D01*
X219960169Y-88664042D01*
X220080538Y-88794261D01*
X220231287Y-88950779D01*
X220402164Y-89123510D01*
X220582921Y-89302371D01*
X220763306Y-89477276D01*
X220933068Y-89638140D01*
X221081958Y-89774878D01*
X221199724Y-89877407D01*
X221276117Y-89935640D01*
X221297250Y-89945148D01*
X221346440Y-89922754D01*
X221447153Y-89862356D01*
X221582983Y-89774129D01*
X221687490Y-89703115D01*
X221876851Y-89572811D01*
X222101101Y-89419384D01*
X222326036Y-89266201D01*
X222446968Y-89184218D01*
X222856296Y-88907353D01*
X223199898Y-89093136D01*
X223356435Y-89174523D01*
X223489546Y-89237784D01*
X223579611Y-89273865D01*
X223602537Y-89278885D01*
X223630105Y-89241817D01*
X223684492Y-89137069D01*
X223761637Y-88974303D01*
X223857482Y-88763181D01*
X223967966Y-88513365D01*
X224089029Y-88234517D01*
X224216611Y-87936299D01*
X224346653Y-87628374D01*
X224475094Y-87320404D01*
X224597874Y-87022050D01*
X224710933Y-86742975D01*
X224810212Y-86492841D01*
X224891651Y-86281310D01*
X224951189Y-86118043D01*
X224984766Y-86012705D01*
X224990166Y-85976527D01*
X224947366Y-85930381D01*
X224853656Y-85855472D01*
X224728627Y-85767364D01*
X224718133Y-85760394D01*
X224394980Y-85501721D01*
X224134413Y-85199938D01*
X223938690Y-84864695D01*
X223810068Y-84505642D01*
X223750805Y-84132426D01*
X223763161Y-83754700D01*
X223849393Y-83382111D01*
X224011759Y-83024310D01*
X224059528Y-82946027D01*
X224307991Y-82629919D01*
X224601519Y-82376079D01*
X224929953Y-82185827D01*
X225283135Y-82060485D01*
X225650905Y-82001372D01*
X226023103Y-82009807D01*
X226389571Y-82087112D01*
X226740149Y-82234606D01*
X227064677Y-82453610D01*
X227165064Y-82542498D01*
X227420551Y-82820744D01*
X227606722Y-83113656D01*
X227734430Y-83441986D01*
X227805556Y-83767133D01*
X227823114Y-84132702D01*
X227764566Y-84500086D01*
X227635858Y-84856866D01*
X227442938Y-85190626D01*
X227191752Y-85488947D01*
X226888248Y-85739411D01*
X226848360Y-85765813D01*
X226721991Y-85852272D01*
X226625927Y-85927184D01*
X226580000Y-85975015D01*
X226579332Y-85976527D01*
X226589192Y-86028267D01*
X226628278Y-86145696D01*
X226692528Y-86319154D01*
X226777880Y-86538979D01*
X226880273Y-86795513D01*
X226995646Y-87079096D01*
X227119937Y-87380067D01*
X227249084Y-87688767D01*
X227379026Y-87995536D01*
X227505702Y-88290714D01*
X227625049Y-88564640D01*
X227733006Y-88807656D01*
X227825512Y-89010101D01*
X227898504Y-89162315D01*
X227947923Y-89254638D01*
X227967823Y-89278885D01*
X228028634Y-89260004D01*
X228142418Y-89209364D01*
X228289555Y-89136017D01*
X228370462Y-89093136D01*
X228714065Y-88907353D01*
X229123393Y-89184218D01*
X229332346Y-89326054D01*
X229561113Y-89482141D01*
X229775491Y-89629109D01*
X229882871Y-89703115D01*
X230033898Y-89804531D01*
X230161782Y-89884898D01*
X230249842Y-89934041D01*
X230278445Y-89944429D01*
X230320076Y-89916405D01*
X230412211Y-89838172D01*
X230545918Y-89717852D01*
X230712265Y-89563568D01*
X230902320Y-89383443D01*
X231022521Y-89267790D01*
X231232815Y-89061167D01*
X231414556Y-88876358D01*
X231560397Y-88721270D01*
X231662991Y-88603807D01*
X231714991Y-88531875D01*
X231719980Y-88517278D01*
X231696829Y-88461753D01*
X231632854Y-88349484D01*
X231535153Y-88191837D01*
X231410820Y-88000179D01*
X231266954Y-87785876D01*
X231226041Y-87726130D01*
X231076967Y-87508982D01*
X230943225Y-87313475D01*
X230832291Y-87150599D01*
X230751644Y-87031337D01*
X230708759Y-86966678D01*
X230704617Y-86959992D01*
X230710812Y-86908462D01*
X230743700Y-86795166D01*
X230797545Y-86635042D01*
X230866613Y-86443032D01*
X230945169Y-86234074D01*
X231027480Y-86023109D01*
X231107811Y-85825076D01*
X231180428Y-85654916D01*
X231239595Y-85527567D01*
X231279580Y-85457971D01*
X231282422Y-85454632D01*
X231306873Y-85434742D01*
X231348169Y-85415073D01*
X231415377Y-85393589D01*
X231517559Y-85368253D01*
X231663781Y-85337029D01*
X231863107Y-85297882D01*
X232124603Y-85248775D01*
X232457331Y-85187672D01*
X232529372Y-85174534D01*
X232742885Y-85133282D01*
X232929022Y-85092926D01*
X233071334Y-85057361D01*
X233153371Y-85030480D01*
X233164372Y-85024213D01*
X233182498Y-84968654D01*
X233197233Y-84844495D01*
X233208564Y-84666169D01*
X233216484Y-84448109D01*
X233220981Y-84204746D01*
X233222046Y-83950514D01*
X233219670Y-83699845D01*
X233213841Y-83467171D01*
X233204551Y-83266924D01*
X233191789Y-83113538D01*
X233175546Y-83021444D01*
X233165754Y-83002595D01*
X233111239Y-82983582D01*
X232987104Y-82952650D01*
X232805715Y-82912482D01*
X232579440Y-82865762D01*
X232320647Y-82815173D01*
X232179649Y-82788659D01*
X231912127Y-82738650D01*
X231673562Y-82693346D01*
X231475614Y-82655021D01*
X231329943Y-82625947D01*
X231248209Y-82608397D01*
X231234757Y-82604506D01*
X231212021Y-82560638D01*
X231163960Y-82454976D01*
X231096981Y-82302613D01*
X231017490Y-82118646D01*
X230931892Y-81918170D01*
X230846595Y-81716281D01*
X230768005Y-81528073D01*
X230702527Y-81368642D01*
X230656569Y-81253084D01*
X230636537Y-81196494D01*
X230636164Y-81194021D01*
X230658874Y-81149379D01*
X230722541Y-81046647D01*
X230820475Y-80896037D01*
X230945983Y-80707757D01*
X231092374Y-80492018D01*
X231177475Y-80368098D01*
X231332545Y-80140883D01*
X231470275Y-79934595D01*
X231583947Y-79759671D01*
X231666839Y-79626545D01*
X231712231Y-79545653D01*
X231718787Y-79527520D01*
X231690605Y-79485312D01*
X231612696Y-79395191D01*
X231495010Y-79267254D01*
X231347500Y-79111596D01*
X231180119Y-78938315D01*
X231002819Y-78757507D01*
X230825552Y-78579267D01*
X230658270Y-78413693D01*
X230510925Y-78270880D01*
X230393470Y-78160925D01*
X230315857Y-78093924D01*
X230289892Y-78077935D01*
X230247616Y-78100419D01*
X230146499Y-78163585D01*
X229996373Y-78261003D01*
X229807070Y-78386243D01*
X229588421Y-78532875D01*
X229423489Y-78644586D01*
X228590169Y-79211237D01*
X227895544Y-78924889D01*
X227200918Y-78638542D01*
X227012666Y-77639960D01*
X226824413Y-76641377D01*
X224745948Y-76641377D01*
X224557695Y-77639960D01*
M02*
