M48
; DRILL file {KiCad 5.1.6-c6e7f7d~87~ubuntu20.04.1} date Mon Jul 20 09:26:02 2020
; FORMAT={-:-/ absolute / inch / decimal}
; #@! TF.CreationDate,2020-07-20T09:26:02+02:00
; #@! TF.GenerationSoftware,Kicad,Pcbnew,5.1.6-c6e7f7d~87~ubuntu20.04.1
; #@! TF.FileFunction,Plated,1,2,PTH
FMAT,2
INCH
T1C0.0157
T2C0.0197
T3C0.0315
T4C0.0354
T5C0.0394
T6C0.0433
T7C0.1063
%
G90
G05
T1
X4.0983Y-3.893
X6.2105Y-3.4402
X6.3119Y-3.4412
T2
X2.5353Y-2.9402
X2.5586Y-2.8839
X2.5586Y-2.9966
X2.615Y-2.8605
X2.615Y-3.02
X2.6714Y-2.8839
X2.6714Y-2.9966
X2.6947Y-2.9402
X9.0481Y-2.9402
X9.0714Y-2.8839
X9.0714Y-2.9966
X9.1278Y-2.8605
X9.1278Y-3.02
X9.1842Y-2.8839
X9.1842Y-2.9966
X9.2075Y-2.9402
X9.0481Y-4.9481
X9.0714Y-4.8917
X9.0714Y-5.0045
X9.1278Y-4.8684
X9.1278Y-5.0278
X9.1842Y-4.8917
X9.1842Y-5.0045
X9.2075Y-4.9481
X2.5353Y-4.9481
X2.5586Y-4.8917
X2.5586Y-5.0045
X2.615Y-4.8684
X2.615Y-5.0278
X2.6714Y-4.8917
X2.6714Y-5.0045
X2.6947Y-4.9481
T3
X3.67Y-4.3024
X3.67Y-4.7024
X7.0244Y-3.2227
X7.0244Y-3.3211
X7.04Y-4.3024
X7.04Y-4.7024
X7.665Y-3.785
X7.665Y-4.085
X7.765Y-3.785
X7.765Y-4.085
X7.865Y-3.785
X7.865Y-4.085
X7.965Y-3.785
X7.965Y-4.085
X8.065Y-3.785
X8.065Y-4.085
X8.165Y-3.785
X8.165Y-4.085
X8.265Y-3.785
X8.265Y-4.085
X8.365Y-3.785
X8.365Y-4.085
X4.44Y-4.3024
X4.44Y-4.7024
X5.74Y-4.3024
X5.74Y-4.7024
X6.78Y-4.3024
X6.78Y-4.7024
X7.555Y-4.3024
X7.555Y-4.7024
X3.92Y-4.3024
X3.92Y-4.7024
X2.5569Y-3.8339
X2.6554Y-3.8339
X6.0Y-4.3024
X6.0Y-4.7024
X3.53Y-3.785
X3.53Y-4.085
X3.63Y-3.785
X3.63Y-4.085
X3.73Y-3.785
X3.73Y-4.085
X3.83Y-3.785
X3.83Y-4.085
X3.93Y-3.785
X3.93Y-4.085
X4.03Y-3.785
X4.03Y-4.085
X4.13Y-3.785
X4.13Y-4.085
X4.23Y-3.785
X4.23Y-4.085
X4.96Y-4.3024
X4.96Y-4.7024
X7.82Y-4.3024
X7.82Y-4.7024
X6.26Y-4.3024
X6.26Y-4.7024
X3.14Y-4.3024
X3.14Y-4.7024
X5.3151Y-2.971
X5.3151Y-3.271
X5.4151Y-2.971
X5.4151Y-3.271
X5.5151Y-2.971
X5.5151Y-3.271
X5.6151Y-2.971
X5.6151Y-3.271
X5.7151Y-2.971
X5.7151Y-3.271
X5.8151Y-2.971
X5.8151Y-3.271
X5.9151Y-2.971
X5.9151Y-3.271
X6.0151Y-2.971
X6.0151Y-3.271
X6.1151Y-2.971
X6.1151Y-3.271
X6.2151Y-2.971
X6.2151Y-3.271
X6.3151Y-2.971
X6.3151Y-3.271
X6.4151Y-2.971
X6.4151Y-3.271
X6.5151Y-2.971
X6.5151Y-3.271
X6.6151Y-2.971
X6.6151Y-3.271
X4.7Y-4.3024
X4.7Y-4.7024
X7.3Y-4.3024
X7.3Y-4.7024
X3.405Y-4.3024
X3.405Y-4.7024
X8.6Y-4.3024
X8.6Y-4.7024
X5.585Y-3.785
X5.585Y-4.085
X5.685Y-3.785
X5.685Y-4.085
X5.785Y-3.785
X5.785Y-4.085
X5.885Y-3.785
X5.885Y-4.085
X5.985Y-3.785
X5.985Y-4.085
X6.085Y-3.785
X6.085Y-4.085
X6.185Y-3.785
X6.185Y-4.085
X6.285Y-3.785
X6.285Y-4.085
X8.86Y-4.3024
X8.86Y-4.7024
X8.08Y-4.3024
X8.08Y-4.7024
X8.34Y-4.3024
X8.34Y-4.7024
X5.22Y-4.3024
X5.22Y-4.7024
X4.18Y-4.3024
X4.18Y-4.7024
X5.3132Y-3.4167
X5.3132Y-3.8167
X2.885Y-4.3024
X2.885Y-4.7024
X7.0254Y-2.9333
X7.0254Y-3.0318
X6.804Y-3.0308
X6.804Y-3.2229
X2.679Y-3.2217
X2.7774Y-3.2217
X2.9599Y-3.2256
X3.3599Y-3.2256
X6.52Y-4.3024
X6.52Y-4.7024
X5.48Y-4.3024
X5.48Y-4.7024
T4
X8.81Y-4.9284
X8.91Y-4.9284
X5.95Y-4.9284
X6.05Y-4.9284
X8.03Y-4.9284
X8.13Y-4.9284
X7.51Y-4.9284
X7.61Y-4.9284
X6.21Y-4.9284
X6.31Y-4.9284
X4.91Y-4.9284
X5.01Y-4.9284
X6.73Y-4.9284
X6.83Y-4.9284
X4.39Y-4.9284
X4.49Y-4.9284
X5.43Y-4.9284
X5.53Y-4.9284
X6.99Y-4.9284
X7.09Y-4.9284
X5.17Y-4.9284
X5.27Y-4.9284
X5.69Y-4.9284
X5.79Y-4.9284
X3.1101Y-3.5269
X3.2101Y-3.5269
X6.47Y-4.9284
X6.57Y-4.9284
X7.77Y-4.9284
X7.87Y-4.9284
X4.65Y-4.9284
X4.75Y-4.9284
X3.61Y-4.9284
X3.71Y-4.9284
X7.25Y-4.9284
X7.35Y-4.9284
X8.29Y-4.9284
X8.39Y-4.9284
X3.35Y-4.9284
X3.45Y-4.9284
X8.55Y-4.9284
X8.65Y-4.9284
X2.83Y-4.9284
X2.93Y-4.9284
X3.87Y-4.9284
X3.97Y-4.9284
X4.13Y-4.9284
X4.23Y-4.9284
X3.09Y-4.9284
X3.19Y-4.9284
T5
X2.612Y-4.5725
X2.612Y-4.6725
T6
X2.612Y-4.0206
X2.612Y-4.4206
X2.5845Y-3.5544
X2.6845Y-3.5544
X2.7845Y-3.5544
T7
X2.615Y-4.9481
X2.615Y-2.9402
X9.1278Y-2.9402
X9.1278Y-4.9481
T0
M30
